<?xml version="1.0" standalone="no"?>
<!DOCTYPE svg PUBLIC "-//W3C//DTD SVG 20010904//EN"
 "http://www.w3.org/TR/2001/REC-SVG-20010904/DTD/svg10.dtd">
<svg version="1.0" xmlns="http://www.w3.org/2000/svg"
 width="1020.000000pt" height="1020.000000pt" viewBox="0 0 1020.000000 1020.000000"
 preserveAspectRatio="xMidYMid meet">

<g transform="translate(0.000000,1020.000000) scale(0.100000,-0.100000)"
fill="#000000" stroke="none">
<path d="M4490 9146 c0 -8 16 -57 35 -108 40 -109 89 -278 105 -363 15 -79 26
-400 14 -408 -5 -3 -41 22 -79 55 -232 198 -430 312 -584 337 -81 13 -196 -6
-330 -55 -175 -64 -618 -294 -615 -320 1 -5 30 -24 65 -43 119 -63 244 -139
334 -202 106 -76 328 -293 407 -400 60 -80 128 -191 128 -207 0 -6 -30 10 -67
34 -38 25 -117 69 -178 98 -167 81 -283 114 -428 121 -89 4 -90 3 -22 -5 177
-21 275 -48 420 -116 111 -52 284 -158 274 -168 -2 -2 -74 -25 -159 -51 -85
-26 -199 -64 -252 -85 -127 -51 -448 -212 -448 -225 0 -5 107 -36 238 -68 268
-66 368 -94 462 -130 81 -30 210 -95 210 -105 0 -4 -84 -52 -186 -108 -102
-55 -186 -105 -185 -110 0 -8 88 -17 561 -58 266 -23 298 -27 303 -40 3 -8
-18 -241 -22 -252 -1 -1 -50 -29 -111 -63 -60 -34 -140 -84 -176 -112 l-67
-50 -51 22 c-55 24 -118 28 -139 10 -8 -6 -22 -29 -32 -51 -18 -39 -19 -40
-71 -40 -55 0 -230 -48 -514 -142 -211 -69 -210 -69 -210 -122 0 -24 5 -67 10
-96 l10 -53 -54 -57 c-60 -63 -93 -121 -127 -228 -20 -64 -29 -77 -64 -101
-35 -23 -40 -32 -43 -69 -3 -42 -2 -43 42 -62 59 -25 59 -34 5 -228 -27 -95
-42 -171 -43 -217 -2 -42 -13 -106 -30 -160 -38 -123 -45 -271 -21 -443 l17
-127 -42 -100 c-66 -155 -119 -314 -129 -385 -6 -50 -2 -141 21 -389 l30 -323
-21 -22 c-21 -22 -21 -35 1 -299 1 -12 -9 -44 -22 -71 l-23 -49 30 -27 c17
-15 36 -29 43 -32 16 -5 30 -233 33 -541 3 -253 -1 -245 132 -258 95 -10 151
-23 265 -64 114 -41 192 -20 227 62 11 29 18 34 41 31 36 -4 39 -32 13 -152
-12 -53 -21 -100 -21 -106 0 -7 488 -10 1495 -10 l1495 0 0 29 c0 15 3 49 6
74 l7 46 28 -21 c28 -21 30 -21 310 -9 368 15 363 13 379 194 5 59 27 196 49
304 22 109 41 229 43 268 3 70 3 70 40 87 54 26 63 49 38 98 -20 38 -20 43 -6
171 9 79 20 138 29 148 28 33 29 53 1 82 l-26 28 11 123 c6 68 20 219 31 337
33 358 27 435 -54 636 -41 102 -45 154 -19 249 22 77 25 376 5 480 -9 48 -10
72 -3 79 6 6 11 34 11 62 0 61 -36 267 -55 312 -19 44 -22 201 -5 236 11 23
12 34 1 60 -7 18 -20 57 -28 87 -25 90 -63 161 -115 210 -49 47 -49 47 -42 97
12 91 30 80 -447 259 -156 58 -301 109 -321 111 -26 4 -47 17 -73 44 -20 22
-42 39 -50 39 -8 0 -37 -9 -65 -20 -28 -11 -57 -20 -65 -20 -8 0 -61 35 -117
78 -57 42 -145 102 -195 132 -85 50 -93 57 -93 85 0 16 -3 53 -6 81 l-7 52
134 6 c74 4 192 7 263 9 76 1 131 6 132 12 2 6 -46 32 -106 59 -61 27 -110 52
-110 56 0 6 338 102 557 159 57 14 103 31 103 37 0 10 -47 22 -300 76 -96 21
-133 39 -115 57 6 6 64 39 130 74 66 35 226 121 355 192 129 70 266 145 305
166 38 21 71 42 73 47 3 11 -116 19 -405 28 -117 4 -213 10 -213 14 0 4 81 76
180 160 100 84 177 156 173 160 -4 4 -78 1 -163 -6 -409 -33 -563 -44 -567
-40 -6 6 47 28 120 51 31 10 55 20 53 23 -5 4 -140 -35 -166 -49 -8 -4 -29
-12 -46 -17 l-31 -10 -32 78 c-62 151 -233 298 -409 350 -59 18 -64 27 -37 82
46 94 86 257 90 363 1 44 1 62 -1 40 -14 -139 -77 -378 -111 -415 -11 -12 -13
-8 -13 30 0 63 -36 302 -60 393 -42 168 -107 288 -190 354 -113 89 -330 183
-552 237 -59 15 -114 29 -123 32 -9 4 -15 0 -15 -10z m1480 -3586 c0 -5 -4
-10 -10 -10 -5 0 -10 5 -10 10 0 6 5 10 10 10 6 0 10 -4 10 -10z m-140 -190
c0 -5 -5 -10 -11 -10 -5 0 -7 5 -4 10 3 6 8 10 11 10 2 0 4 -4 4 -10z m348
-232 c31 -12 73 -31 92 -43 55 -35 129 -120 158 -183 23 -49 27 -70 27 -152 0
-85 -3 -102 -31 -160 -55 -117 -160 -199 -299 -235 -205 -53 -438 50 -521 231
-54 115 -53 213 1 331 48 105 183 206 310 232 71 14 195 4 263 -21z m-588 -33
c0 -8 -4 -15 -9 -15 -13 0 -22 16 -14 24 11 11 23 6 23 -9z m-10 -53 c0 -15 2
-15 11 -2 17 23 7 1 -34 -81 -22 -43 -43 -104 -50 -142 -40 -235 137 -467 398
-522 89 -19 118 -19 212 1 191 39 329 155 392 330 16 43 30 64 51 76 l30 17 0
-37 c0 -47 -12 -66 -36 -58 -16 5 -22 -3 -36 -52 -48 -163 -53 -177 -67 -174
-8 2 -24 -7 -36 -18 -14 -13 -25 -17 -29 -11 -9 15 -70 -24 -86 -55 -8 -14
-23 -30 -35 -36 -44 -24 -108 -85 -137 -133 -33 -53 -116 -145 -131 -145 -5 0
1 16 12 36 28 46 20 54 -19 20 -55 -46 -59 -34 -13 51 35 66 28 72 -24 22 -27
-25 -64 -57 -84 -72 -20 -14 -67 -66 -105 -114 -37 -48 -91 -115 -120 -148
-28 -33 -74 -100 -101 -150 -28 -49 -70 -119 -93 -154 -23 -35 -53 -89 -66
-120 -33 -82 -87 -189 -169 -331 -39 -69 -101 -181 -137 -250 -121 -230 -153
-285 -251 -431 -53 -79 -97 -152 -97 -161 0 -14 6 -16 33 -11 17 3 34 10 35
15 6 14 50 9 56 -8 21 -54 -16 -87 -99 -87 -52 0 -57 -2 -98 -46 -23 -25 -52
-58 -63 -73 -33 -42 -93 -78 -133 -79 -30 0 -33 -2 -15 -9 30 -12 37 -26 24
-50 -13 -25 4 -27 22 -2 35 47 138 80 194 62 38 -13 44 -25 15 -33 -15 -4 -18
-13 -17 -48 1 -37 7 -50 42 -85 41 -41 58 -83 47 -122 -3 -13 2 -33 12 -48 18
-28 18 -26 -27 -118 -13 -26 -3 -33 93 -65 63 -21 87 -34 96 -52 11 -20 10
-26 -3 -35 -12 -10 -297 -94 -316 -94 -12 0 -39 72 -33 90 9 29 -5 89 -24 99
-9 5 -30 12 -48 15 -30 7 -31 6 -48 -43 -9 -27 -25 -61 -37 -76 -21 -27 -77
-55 -109 -55 -10 0 -33 -9 -51 -20 -18 -11 -46 -20 -63 -21 l-30 -1 33 -14
c25 -11 32 -20 30 -35 -2 -16 -22 -27 -92 -49 -49 -16 -93 -27 -98 -24 -21 13
-89 186 -80 201 12 18 50 33 82 33 24 0 31 4 28 18 -4 25 31 65 70 81 20 9 32
20 32 33 0 17 -4 18 -37 11 -57 -12 -125 -8 -158 10 -16 8 -59 41 -95 72 -68
60 -91 72 -147 81 -31 5 -39 0 -81 -42 -62 -61 -83 -75 -110 -67 -17 4 -22 13
-22 39 0 26 10 45 41 79 51 55 111 80 177 72 66 -8 98 -27 172 -102 79 -80
105 -95 167 -95 75 0 79 6 63 89 -14 74 -21 86 -55 93 -14 2 -20 12 -21 29 -1
15 -11 41 -23 58 -40 55 -74 152 -68 193 3 21 3 38 -1 38 -3 0 -30 -14 -60
-31 l-55 -31 7 28 7 27 -53 -6 c-29 -4 -73 -10 -98 -13 l-45 -7 29 31 c15 17
25 35 22 41 -4 6 -37 11 -76 11 l-68 0 -11 -32 c-8 -27 -86 -337 -106 -425 -3
-15 -13 -23 -26 -23 -30 0 -60 75 -65 168 -7 109 -8 112 -69 196 -58 82 -69
120 -35 131 31 10 43 42 36 101 -4 35 1 86 15 156 18 90 24 106 50 126 36 29
37 54 3 81 l-27 21 51 178 c128 445 135 519 72 785 -21 89 -20 93 37 188 52
85 112 225 119 281 4 25 9 51 13 56 7 12 175 -144 169 -156 -2 -4 -25 -46 -51
-94 -28 -51 -47 -97 -45 -110 2 -18 23 -31 96 -64 51 -23 103 -44 114 -47 20
-6 20 -6 2 -36 -17 -29 -17 -32 -1 -60 21 -37 22 -83 1 -138 -17 -43 -16 -44
6 -68 l23 -25 -21 -23 c-26 -28 -28 -64 -5 -89 15 -17 15 -20 -6 -42 -27 -29
-24 -57 7 -71 12 -5 22 -12 22 -15 0 -3 -23 -37 -51 -75 -29 -39 -65 -98 -81
-132 l-30 -63 37 -67 c20 -38 41 -72 45 -77 5 -4 11 17 15 49 9 69 39 108 123
159 96 58 94 59 93 -71 -1 -66 2 -114 8 -117 6 -4 29 6 52 21 36 24 54 28 123
31 109 4 119 -4 78 -62 -25 -34 -92 -166 -92 -180 0 -2 32 -6 71 -10 66 -6 73
-5 87 15 9 13 21 19 33 16 11 -3 22 -1 25 4 3 5 21 9 41 9 32 0 35 -2 28 -22
-4 -13 -10 -50 -12 -83 l-4 -60 20 23 c11 12 27 46 37 74 9 28 56 121 104 207
48 86 118 217 155 291 38 74 92 176 120 225 52 91 85 158 129 263 31 72 209
421 248 486 30 49 35 67 41 156 2 25 9 59 14 77 9 26 9 31 -3 26 -9 -3 -14 2
-14 15 0 11 -7 22 -15 26 -21 8 -19 35 10 151 14 55 25 103 25 107 0 19 -17 5
-34 -27 -24 -44 -38 -33 -26 20 6 26 5 44 -2 52 -16 20 -1 87 37 163 19 38 35
72 35 75 0 3 -11 5 -25 5 -14 0 -25 1 -25 3 0 1 11 38 25 81 14 43 25 84 25
91 0 20 68 136 97 167 27 29 43 28 43 0z m968 -161 c3 -8 -1 -12 -9 -9 -7 2
-15 10 -17 17 -3 8 1 12 9 9 7 -2 15 -10 17 -17z m-1718 -451 c0 -5 -2 -10 -4
-10 -3 0 -8 5 -11 10 -3 6 -1 10 4 10 6 0 11 -4 11 -10z m509 -196 c-7 -18
-13 -24 -16 -16 -3 8 0 19 6 25 6 6 12 20 12 32 1 14 3 15 6 4 2 -8 -1 -29 -8
-45z m1020 -325 c7 -34 39 -103 81 -179 39 -68 70 -132 70 -142 0 -10 -11 -65
-25 -120 -64 -258 -63 -313 9 -530 31 -93 68 -226 82 -298 28 -134 28 -131 -3
-191 -2 -3 7 -19 19 -34 20 -25 23 -43 26 -133 2 -90 0 -109 -18 -139 -27 -46
-25 -64 10 -98 17 -16 30 -38 30 -48 0 -11 -35 -58 -77 -104 -73 -81 -78 -89
-104 -179 -31 -106 -52 -147 -76 -142 -13 2 -20 30 -34 125 -22 150 -109 597
-158 806 -12 48 -28 122 -37 164 -19 92 -36 127 -102 213 -51 65 -51 65 -31
86 24 26 24 49 -1 74 -24 24 -26 57 -6 96 9 16 12 34 7 43 -11 21 -6 118 8
155 10 23 8 33 -6 55 -11 16 -17 46 -18 79 l0 54 90 45 c156 78 175 92 175
121 0 15 -23 74 -52 131 l-51 104 34 29 c25 21 41 27 60 23 14 -3 36 -2 50 3
29 11 31 7 48 -69z m-544 -39 c3 -5 -1 -10 -9 -10 -9 0 -16 5 -16 10 0 6 4 10
9 10 6 0 13 -4 16 -10z m-585 -150 c0 -5 -4 -10 -10 -10 -5 0 -10 5 -10 10 0
6 5 10 10 10 6 0 10 -4 10 -10z m680 -224 c0 -11 -19 -15 -25 -6 -3 5 1 10 9
10 9 0 16 -2 16 -4z m900 -216 c0 -5 -2 -10 -4 -10 -3 0 -8 5 -11 10 -3 6 -1
10 4 10 6 0 11 -4 11 -10z"/>
<path d="M6130 5050 c-69 -20 -107 -27 -139 -23 -38 5 -43 4 -39 -13 2 -10 18
-29 37 -41 27 -18 42 -21 72 -17 31 5 39 3 39 -8 0 -27 -29 -41 -85 -41 -30 0
-55 -2 -55 -5 0 -19 57 -62 82 -62 20 0 28 -5 28 -18 0 -49 -69 -56 -137 -14
l-44 27 5 97 c7 114 0 128 -68 128 -56 0 -75 -20 -52 -54 26 -41 29 -97 16
-302 l-13 -195 29 -30 c54 -57 69 -35 81 121 8 102 8 104 24 77 8 -16 26 -34
40 -40 21 -11 25 -21 29 -86 4 -65 8 -76 31 -94 22 -16 30 -17 49 -7 12 7 72
15 133 19 l110 6 17 65 c33 122 33 118 6 145 -30 30 -67 32 -211 10 -94 -14
-115 -13 -115 4 0 17 310 34 380 21 42 -8 32 30 -15 57 -22 12 -44 24 -48 26
-5 1 -3 23 4 49 10 37 10 52 1 74 -12 25 -15 26 -72 22 -57 -4 -60 -3 -60 18
0 27 25 37 82 32 50 -4 58 10 26 46 -33 37 -62 38 -168 6z m100 -188 c0 -44
-62 -77 -68 -36 -2 12 4 29 13 38 22 22 55 21 55 -2z m6 -264 c-4 -23 -9 -44
-11 -47 -6 -6 -93 -20 -128 -20 -27 -1 -28 0 -25 47 3 47 3 47 43 53 22 3 60
7 84 8 l44 1 -7 -42z"/>
<path d="M5697 4818 c-4 -29 -22 -85 -42 -124 -19 -40 -35 -76 -35 -80 0 -5 9
-20 19 -34 18 -22 21 -23 45 -10 31 16 69 92 89 178 17 75 12 108 -16 116 -48
13 -54 8 -60 -46z"/>
<path d="M5545 5040 c-3 -5 -1 -10 4 -10 6 0 11 5 11 10 0 6 -2 10 -4 10 -3 0
-8 -4 -11 -10z"/>
<path d="M3691 2398 c-18 -62 -36 -125 -41 -140 -5 -14 -6 -28 -4 -31 3 -3 26
3 52 13 40 15 47 22 48 47 2 39 13 75 30 94 12 13 10 23 -14 72 -15 31 -30 57
-33 57 -4 0 -21 -51 -38 -112z"/>
<path d="M4394 2367 c-64 -37 -93 -77 -56 -77 9 0 24 -5 32 -10 12 -7 9 -11
-17 -20 -27 -10 -32 -17 -36 -53 -13 -99 -15 -92 16 -90 69 5 156 138 122 187
-8 11 -15 33 -15 48 0 30 -13 34 -46 15z"/>
<path d="M3626 2164 c-9 -35 -4 -38 33 -17 37 21 39 29 9 37 -34 9 -35 8 -42
-20z"/>
<path d="M5563 8680 c0 -25 2 -35 4 -22 2 12 2 32 0 45 -2 12 -4 2 -4 -23z"/>
<path d="M6465 7790 c-3 -5 -2 -10 4 -10 5 0 13 5 16 10 3 6 2 10 -4 10 -5 0
-13 -4 -16 -10z"/>
<path d="M6428 7773 c7 -3 16 -2 19 1 4 3 -2 6 -13 5 -11 0 -14 -3 -6 -6z"/>
<path d="M6380 7760 c-9 -6 -10 -10 -3 -10 6 0 15 5 18 10 8 12 4 12 -15 0z"/>
<path d="M6338 7743 c7 -3 16 -2 19 1 4 3 -2 6 -13 5 -11 0 -14 -3 -6 -6z"/>
<path d="M6258 7721 c-26 -9 -50 -20 -55 -25 -5 -5 0 -6 12 -2 11 5 36 13 55
18 19 5 39 14 45 19 12 12 0 10 -57 -10z"/>
<path d="M3080 7698 c0 -5 26 -7 58 -7 61 1 55 6 -15 11 -24 2 -43 0 -43 -4z"/>
<path d="M6630 6860 l-35 -7 35 -1 c19 -1 53 3 75 7 l40 9 -40 0 c-22 -1 -56
-4 -75 -8z"/>
<path d="M6503 6843 c15 -2 39 -2 55 0 15 2 2 4 -28 4 -30 0 -43 -2 -27 -4z"/>
<path d="M6345 6830 l-30 -8 30 0 c17 -1 48 3 70 7 l40 9 -40 0 c-22 0 -53 -4
-70 -8z"/>
<path d="M6218 6813 c18 -2 45 -2 60 0 15 2 0 4 -33 4 -33 0 -45 -2 -27 -4z"/>
<path d="M9780 1424 c-150 -32 -262 -115 -473 -351 l-98 -109 -61 29 c-69 33
-138 38 -188 12 -38 -20 -38 -33 0 -27 40 6 56 -9 91 -87 53 -117 88 -149 224
-206 79 -33 152 -72 161 -86 8 -14 -79 -131 -133 -179 -55 -48 -38 -48 57 -2
30 15 59 29 64 31 11 5 -36 -80 -72 -128 l-26 -34 46 31 c26 18 63 48 84 67
20 19 39 33 41 31 3 -2 0 -21 -6 -42 -6 -20 -8 -41 -5 -46 3 -4 -9 -11 -26
-15 -23 -4 -40 -18 -59 -46 -44 -66 -103 -127 -122 -127 -25 0 -24 1 12 65
l31 55 -21 29 c-12 16 -21 36 -21 45 0 9 -7 16 -16 16 -13 0 -15 -7 -10 -30 5
-26 -1 -40 -35 -83 -52 -66 -97 -99 -129 -95 -19 2 -25 9 -25 28 0 21 6 26 38
31 44 7 73 32 82 71 9 36 -23 55 -63 36 -30 -15 -92 -111 -92 -143 0 -83 110
-49 199 61 57 71 76 58 31 -21 -17 -30 -29 -62 -26 -70 7 -20 46 -19 74 1 20
14 23 14 28 0 7 -19 37 -21 67 -5 16 9 22 9 25 0 6 -19 46 -12 82 14 19 14 38
25 43 25 6 0 34 20 63 45 33 28 62 45 78 45 14 0 26 -3 26 -7 0 -3 -22 -48
-50 -100 -50 -93 -64 -134 -34 -97 8 10 12 13 8 5 -5 -10 -3 -12 5 -7 7 5 10
15 7 23 -3 8 -2 11 4 8 14 -9 179 306 180 343 0 15 -16 16 -25 2 -4 -6 -43
-39 -87 -75 -75 -61 -83 -65 -130 -65 -44 0 -49 2 -43 18 41 99 48 131 47 227
0 73 -6 119 -22 170 -27 91 -39 145 -30 145 3 0 27 -39 53 -87 l47 -88 0 76
c0 42 -7 98 -15 125 -8 27 -15 50 -15 52 0 7 58 -39 117 -92 35 -33 64 -52 68
-46 10 16 -23 104 -56 150 -17 23 -28 44 -25 47 3 3 58 -20 122 -51 64 -31
119 -54 122 -52 9 10 -60 105 -109 151 l-50 47 38 -5 c21 -2 43 -6 48 -8 6 -2
24 5 40 15 17 9 21 14 10 11 -16 -5 -18 -4 -7 6 23 24 -81 99 -137 99 -27 0
-33 13 -22 43 12 31 0 38 -55 30 -35 -4 -39 -3 -40 19 -2 42 91 98 226 136 35
10 35 10 -15 10 -27 0 -79 -6 -115 -14z m-433 -736 c-3 -7 -5 -2 -5 12 0 14 2
19 5 13 2 -7 2 -19 0 -25z m199 -345 c-7 -56 -36 -83 -50 -48 -4 13 40 95 52
95 3 0 2 -21 -2 -47z m214 -22 c-12 -23 -29 -35 -37 -27 -7 7 26 46 39 46 5 0
4 -9 -2 -19z m-600 -49 c0 -29 -29 -62 -56 -62 -30 0 -30 5 2 47 27 36 54 44
54 15z m304 3 c-17 -13 -18 -14 -1 -15 16 0 17 -2 1 -32 -23 -46 -64 -88 -86
-88 -10 0 -18 3 -18 6 0 3 18 37 40 75 31 51 46 69 62 69 21 0 21 0 2 -15z
m136 -23 c0 -16 -121 -114 -135 -108 -12 4 -11 12 7 43 36 63 48 73 90 73 21
0 38 -3 38 -8z"/>
<path d="M9854 346 c-3 -9 -3 -23 0 -32 6 -15 -17 -53 -92 -151 -13 -18 -20
-33 -14 -33 6 0 35 34 64 74 29 41 56 75 61 75 15 2 6 -32 -20 -78 -30 -54
-26 -81 11 -81 26 0 96 53 96 73 0 6 -15 -3 -33 -21 -29 -28 -75 -45 -65 -24
2 4 16 31 31 60 l28 53 -21 28 c-11 16 -20 36 -20 44 0 22 -19 31 -26 13z"/>
<path d="M10017 280 c-62 -141 -67 -160 -47 -160 6 0 10 9 10 19 0 11 14 50
30 87 17 37 29 72 26 78 -2 6 -11 -5 -19 -24z"/>
<path d="M10120 270 c0 -5 5 -10 10 -10 6 0 10 5 10 10 0 6 -4 10 -10 10 -5 0
-10 -4 -10 -10z"/>
<path d="M10075 210 c4 -19 7 -40 8 -47 1 -19 17 -4 17 15 -1 9 -8 28 -16 42
-15 25 -15 25 -9 -10z"/>
<path d="M10022 134 c10 -10 20 -15 24 -12 3 4 -5 12 -18 18 -22 12 -22 12 -6
-6z"/>
</g>
</svg>
