<?xml version="1.0" standalone="no"?>
<!DOCTYPE svg PUBLIC "-//W3C//DTD SVG 20010904//EN"
 "http://www.w3.org/TR/2001/REC-SVG-20010904/DTD/svg10.dtd">
<svg version="1.0" xmlns="http://www.w3.org/2000/svg"
 width="360.000000pt" height="360.000000pt" viewBox="0 0 360.000000 360.000000"
 preserveAspectRatio="xMidYMid meet">

<g transform="translate(0.000000,360.000000) scale(0.100000,-0.100000)"
fill="#000000" stroke="none">
<path d="M1625 3593 c-282 -34 -514 -110 -729 -237 -691 -408 -1030 -1199
-846 -1972 124 -524 471 -963 945 -1195 266 -130 519 -189 812 -189 607 0
1163 299 1496 805 279 424 367 968 237 1475 -175 684 -781 1209 -1509 1305
-95 13 -329 18 -406 8z m487 -252 c628 -134 1093 -599 1230 -1231 19 -90 22
-134 22 -315 0 -179 -3 -225 -22 -311 -26 -119 -81 -282 -124 -368 -33 -66
-136 -226 -145 -226 -3 0 -21 11 -39 25 -52 40 -73 97 -85 231 -6 66 -13 121
-15 123 -11 12 -60 -53 -94 -125 -44 -92 -100 -150 -152 -158 -71 -11 -375
-16 -567 -10 l-201 7 0 109 0 108 272 0 272 0 33 -36 c33 -36 34 -37 91 -31
77 8 145 33 173 63 23 24 24 34 31 227 10 251 11 260 54 306 51 57 46 75 -43
158 -88 83 -147 117 -188 107 -15 -4 -62 -30 -104 -58 l-76 -51 -255 0 -255 0
-3 88 -3 87 242 0 242 0 40 -36 c36 -33 43 -36 83 -30 59 8 170 59 184 85 7
15 10 81 8 204 -3 181 -3 184 22 219 13 20 37 44 52 53 32 19 44 54 29 83 -14
27 -187 171 -219 183 -39 15 -64 5 -136 -57 l-65 -56 -210 -1 c-159 -2 -207 1
-200 10 30 35 210 106 352 137 l27 6 -26 52 c-15 29 -63 90 -108 135 -99 101
-117 104 -210 44 -92 -60 -145 -71 -324 -71 -118 0 -153 3 -150 13 3 6 38 30
79 52 66 35 74 44 77 72 3 25 -3 35 -30 55 -43 32 -121 63 -195 78 -89 19 -92
21 -38 36 173 49 476 55 667 15z m-822 -80 c0 -3 -32 -47 -71 -98 -102 -134
-291 -326 -506 -515 l-186 -163 44 -3 c24 -1 85 9 134 22 l90 23 3 -268 2
-269 26 -6 c47 -12 129 3 219 39 104 42 96 42 358 39 l197 -2 0 -84 0 -84
-144 -7 c-287 -14 -494 16 -688 100 -17 7 -18 -20 -18 -483 l0 -489 31 -7
c132 -26 236 38 256 158 l6 36 283 0 284 0 0 -139 c0 -199 30 -269 137 -318
70 -32 212 -42 608 -42 334 -1 486 10 550 38 25 11 45 16 45 12 0 -20 -123
-140 -217 -210 -184 -138 -393 -233 -618 -281 -155 -33 -405 -38 -560 -12
-466 80 -871 358 -1116 767 -97 161 -174 385 -200 582 -18 136 -6 384 24 513
105 442 431 900 767 1079 100 54 260 98 260 72z m595 -321 c3 -5 -40 -59 -96
-120 l-102 -110 -253 0 c-140 0 -254 2 -254 4 0 10 242 217 262 226 31 12 435
13 443 0z m-280 -419 c3 -10 3 -26 -1 -35 -5 -14 -34 -16 -255 -16 l-249 0 0
35 0 35 249 0 c235 0 250 -1 256 -19z m820 -16 l0 -30 -252 -3 -253 -2 0 35 0
35 253 -2 252 -3 0 -30z m-820 -240 l0 -30 -245 -3 c-213 -2 -247 0 -256 13
-7 9 -10 25 -7 36 5 19 14 19 257 17 l251 -3 0 -30z m820 0 l0 -30 -252 -3
-253 -2 0 35 0 35 253 -2 252 -3 0 -30z m-820 -590 l0 -40 -282 -3 -283 -2 0
45 0 45 283 -2 282 -3 0 -40z m880 0 l0 -40 -282 -3 -283 -2 0 45 0 45 283 -2
282 -3 0 -40z m-877 -238 c2 -10 1 -29 -2 -43 l-6 -24 -280 0 -280 0 0 45 0
45 282 -2 c265 -3 283 -4 286 -21z m877 -22 l0 -40 -282 -3 -283 -2 0 45 0 45
283 -2 282 -3 0 -40z"/>
</g>
</svg>
