<?xml version="1.0" standalone="no"?>
<!DOCTYPE svg PUBLIC "-//W3C//DTD SVG 20010904//EN"
 "http://www.w3.org/TR/2001/REC-SVG-20010904/DTD/svg10.dtd">
<svg version="1.0" xmlns="http://www.w3.org/2000/svg"
 width="360.000000pt" height="360.000000pt" viewBox="0 0 360.000000 360.000000"
 preserveAspectRatio="xMidYMid meet">

<g transform="translate(0.000000,360.000000) scale(0.100000,-0.100000)"
fill="#000000" stroke="none">
<path d="M1742 3540 c-40 -37 -61 -64 -56 -71 4 -8 3 -9 -5 -5 -7 5 -21 -14
-40 -56 -27 -59 -27 -64 -12 -82 14 -17 12 -17 -15 2 -52 36 -137 134 -171
197 l-32 60 -1 -75 c0 -143 23 -227 100 -357 l30 -53 -30 0 c-25 0 -33 6 -47
34 -21 45 -62 54 -136 28 -30 -11 -63 -24 -73 -30 -17 -10 -16 -12 11 -21 17
-6 43 -18 58 -27 16 -9 45 -17 65 -18 30 -1 37 -5 37 -22 0 -13 18 -36 45 -59
54 -45 59 -53 61 -85 0 -21 2 -22 8 -6 6 15 10 11 21 -23 9 -28 24 -47 48 -61
31 -19 34 -19 27 -3 -4 10 -10 26 -12 36 -3 9 -9 17 -13 17 -5 0 -11 -8 -13
-17 -4 -15 -5 -15 -6 -2 0 9 10 33 24 53 14 21 22 43 19 49 -4 7 -3 9 1 4 5
-4 16 0 25 8 15 14 17 11 18 -30 2 -42 1 -45 -17 -35 -28 14 -31 13 -31 -13 0
-13 10 -32 22 -43 19 -15 20 -16 9 -1 -16 20 1 23 21 3 8 -7 25 -17 38 -21 22
-6 21 -3 -10 25 -35 31 -34 31 16 -4 46 -32 135 -76 152 -76 4 0 18 9 32 20
l25 19 -36 -8 c-47 -11 -71 2 -38 19 13 7 34 21 47 31 l23 17 -56 63 c-60 67
-67 94 -9 38 53 -51 77 -95 70 -127 -6 -25 -5 -26 8 -9 8 11 12 26 9 35 -4 14
-3 15 6 2 8 -12 12 -10 20 10 16 40 12 7 -4 -40 -8 -23 -15 -44 -15 -46 0 -11
61 34 66 49 3 9 10 15 15 12 5 -4 9 0 9 8 0 7 -17 28 -39 45 -21 17 -41 43
-44 57 -4 26 -3 25 35 -12 21 -21 48 -54 60 -73 11 -19 17 -32 14 -29 -3 3
-25 -11 -48 -33 -23 -21 -50 -38 -60 -38 -10 0 -22 -10 -27 -23 -5 -13 -16
-29 -25 -36 -9 -7 -16 -19 -16 -25 0 -6 14 5 31 24 l30 35 -16 -39 c-18 -46
-18 -49 -3 -40 7 4 8 3 4 -4 -5 -8 2 -12 21 -12 20 0 24 -3 14 -9 -8 -5 -24
-6 -37 -1 -15 6 -24 5 -28 -3 -2 -7 -5 -2 -5 9 -1 12 -8 25 -17 28 -24 9 -29
7 -16 -6 22 -22 14 -68 -20 -104 -18 -19 -38 -34 -45 -34 -19 0 -16 -14 7 -35
11 -10 20 -24 20 -31 0 -7 13 -11 34 -10 19 1 32 -2 30 -6 -3 -5 1 -8 8 -8 7
-1 2 -7 -12 -15 -29 -16 -44 -19 -36 -6 8 13 -20 21 -31 10 -16 -16 -38 17
-24 35 9 11 7 15 -10 19 -15 4 -19 2 -15 -9 8 -20 -4 -17 -34 9 -14 12 -6 3
18 -19 27 -26 43 -49 40 -60 -4 -21 -18 -27 -37 -15 -12 8 -12 12 -2 25 11 13
11 16 -2 16 -9 0 -17 -8 -19 -17 -3 -14 -12 -10 -49 24 -25 24 -49 40 -52 37
-3 -4 -14 -3 -24 1 -14 6 -8 10 25 19 24 6 43 14 43 19 0 4 -3 24 -7 44 -6 32
-8 34 -20 19 -12 -16 -13 -16 -25 6 -17 33 -17 33 -39 13 -24 -21 -26 -58 -5
-75 8 -7 14 -18 13 -24 -1 -6 7 -28 17 -48 15 -31 16 -40 5 -53 -19 -23 -31
-19 -75 32 l-42 47 -5 -27 c-4 -21 -2 -27 8 -23 8 3 14 1 14 -4 0 -14 -60 -42
-76 -36 -17 7 -17 7 2 -39 8 -20 10 -34 5 -30 -19 11 -12 -4 21 -42 18 -21 23
-30 11 -20 l-22 19 14 -44 c7 -23 16 -52 20 -63 5 -18 4 -17 -11 3 -9 12 -21
22 -27 22 -6 0 -7 -3 -4 -7 11 -10 -13 -33 -34 -33 -25 0 -24 -8 3 -37 17 -18
18 -23 6 -23 -9 0 -23 11 -32 25 -10 15 -25 25 -39 24 -19 -1 -19 -2 -3 -6 10
-3 30 -18 43 -34 14 -16 31 -29 39 -29 9 0 1 -14 -21 -37 -19 -20 -34 -37 -33
-39 6 -5 96 22 109 32 34 26 42 26 21 0 -12 -16 -22 -32 -22 -36 0 -15 74 -1
101 19 16 12 34 21 41 20 7 0 3 -4 -9 -9 -13 -5 -23 -14 -23 -20 0 -14 -65
-39 -87 -34 -12 3 -30 -8 -53 -33 -34 -37 -35 -38 -2 -9 l32 30 -27 -63 c-15
-35 -29 -59 -31 -53 -12 38 -65 -48 -55 -90 5 -22 5 -22 -9 -4 -10 13 -17 15
-22 8 -4 -7 -15 -12 -24 -12 -9 -1 -61 -23 -115 -49 -59 -29 -96 -42 -93 -34
4 9 1 13 -6 10 -7 -2 -21 3 -32 12 -18 15 -18 15 -12 -5 5 -15 1 -24 -16 -32
-19 -9 -20 -11 -5 -11 10 -1 16 -5 13 -9 -3 -5 19 -7 49 -4 37 3 55 1 55 -7 0
-6 -4 -11 -10 -11 -17 0 -11 -18 8 -24 12 -4 17 -16 17 -40 0 -26 -3 -32 -12
-24 -7 6 -13 17 -13 25 0 7 -8 17 -17 20 -10 4 -20 10 -23 14 -3 5 -26 -9 -51
-31 l-45 -38 -43 19 c-24 10 -48 19 -55 18 -6 0 -2 -4 9 -9 14 -6 16 -9 4 -9
-8 -1 -31 -17 -50 -37 l-34 -35 35 14 c19 8 55 18 80 22 l45 7 -37 -27 c-44
-30 -51 -52 -10 -32 36 19 152 50 159 43 3 -3 -6 -8 -20 -11 -15 -4 -31 -13
-38 -21 -9 -11 -2 -11 32 2 24 9 61 16 83 15 37 -2 38 -1 32 24 -6 24 -5 25
13 16 27 -15 70 -14 138 4 104 27 121 23 199 -47 l68 -63 -40 55 c-23 30 -51
73 -63 95 l-22 40 23 -30 c59 -75 96 -106 148 -126 l55 -20 -52 53 c-42 43
-57 68 -78 130 -14 43 -28 98 -32 123 -11 84 -25 61 -18 -31 l6 -89 -26 40
c-46 72 -43 101 16 175 16 21 18 22 14 5 -6 -19 -5 -19 7 -2 7 10 19 26 26 35
11 15 12 14 3 -5 -13 -27 -15 -61 -2 -47 5 5 14 26 21 47 16 52 21 43 8 -15
-12 -49 3 -151 22 -163 5 -3 13 21 19 52 16 81 31 136 37 130 3 -3 0 -49 -6
-104 -10 -88 -9 -105 8 -165 11 -38 18 -68 17 -68 -1 0 -31 43 -65 95 -35 53
-65 94 -66 92 -5 -5 40 -137 57 -168 14 -27 118 -139 129 -139 4 0 -4 53 -16
118 -13 66 -22 149 -22 192 1 41 3 55 4 30 6 -88 26 -212 34 -203 4 4 13 41
20 81 13 71 9 125 -17 231 -4 16 -2 22 5 17 6 -4 16 -33 23 -66 6 -33 15 -60
18 -60 12 0 41 58 41 81 l0 23 17 -23 c9 -13 19 -52 23 -85 l7 -61 1 55 c1 30
-3 74 -7 98 -5 23 -5 42 -1 42 13 0 38 -35 45 -62 9 -35 29 -37 23 -3 -6 29
-1 31 24 8 10 -9 18 -12 18 -6 0 10 -31 42 -40 41 -8 -2 -120 63 -126 73 -10
16 -24 9 -24 -12 0 -21 -1 -20 -21 5 -27 34 -43 34 -34 -1 l7 -28 -21 27 c-12
14 -21 40 -21 56 0 21 -8 37 -25 50 -34 27 -32 32 14 32 45 0 67 -25 73 -80 2
-19 9 -36 17 -38 8 -3 11 0 7 7 -11 17 2 13 42 -14 51 -35 58 -31 25 12 -25
32 -26 35 -6 25 12 -7 43 -11 70 -10 26 1 62 -2 78 -7 27 -7 29 -7 17 7 -21
26 3 30 54 8 26 -11 49 -19 51 -16 2 2 -16 19 -42 37 l-46 33 28 14 c15 8 36
21 45 29 9 8 22 13 28 11 6 -2 -7 -15 -29 -28 -22 -14 -41 -27 -41 -30 0 -3
21 -5 48 -6 26 0 39 2 30 4 -28 6 -21 20 12 27 22 5 38 1 59 -14 39 -28 46
-26 15 4 -27 27 -24 45 7 45 10 0 19 5 19 11 0 5 -4 7 -10 4 -19 -12 -10 7 13
25 l22 19 -40 -5 c-22 -3 -49 -7 -59 -9 -14 -3 -16 -1 -7 8 17 17 13 37 -8 37
-10 0 -26 -11 -35 -25 -9 -14 -22 -25 -28 -25 -7 0 -5 7 4 18 9 9 23 32 33 51
l17 33 -47 -32 c-69 -47 -65 -31 4 20 33 23 62 49 65 56 7 17 -6 18 -22 2 -24
-24 -20 -1 4 25 23 25 24 27 5 27 -53 0 -286 111 -249 118 9 2 58 -8 110 -22
51 -14 113 -25 138 -25 l45 1 -45 8 c-84 14 -259 80 -213 80 6 0 23 17 39 37
19 26 23 35 11 30 -16 -6 -25 12 -12 25 3 3 56 -6 118 -18 133 -28 204 -30
228 -8 16 14 16 59 -1 49 -4 -3 -25 9 -45 25 -21 17 -48 30 -61 30 -13 0 -24
4 -24 9 0 14 60 -5 93 -30 l29 -21 -17 25 c-9 14 -34 37 -55 52 -22 16 -37 32
-33 39 3 6 3 8 -2 4 -4 -4 -14 -3 -21 3 -9 7 -25 7 -53 -1 -23 -6 -46 -8 -51
-5 -6 4 -9 3 -8 -2 1 -4 -13 -23 -31 -41 -18 -18 -31 -35 -28 -38 3 -3 22 -1
43 5 24 7 34 7 27 0 -5 -5 -33 -13 -62 -18 -50 -8 -53 -7 -62 17 -5 14 -8 27
-5 29 2 3 7 -5 11 -16 7 -23 29 -28 39 -8 25 50 48 75 86 93 40 20 48 21 88 9
23 -7 53 -20 66 -28 21 -14 25 -14 40 1 16 16 17 15 5 -10 -10 -23 -15 -26
-33 -16 -20 10 -20 9 -4 -7 15 -17 18 -17 47 4 35 25 46 53 32 80 -15 27 -13
41 1 16 7 -11 15 -39 18 -62 l5 -43 25 23 c14 12 19 18 11 12 -12 -8 -13 -6
-7 10 13 34 15 54 5 60 -5 4 -9 1 -9 -4 0 -6 -4 -11 -9 -11 -5 0 -7 8 -4 18 3
14 -3 18 -32 20 -34 3 -36 1 -30 -20 5 -20 5 -21 -5 -5 -7 10 -9 21 -6 24 8 9
-24 43 -41 43 -7 0 -23 11 -34 24 -11 13 -28 23 -37 22 -10 -2 -22 4 -28 12
-9 13 -17 12 -57 -6 -26 -12 -47 -19 -47 -16 0 3 24 16 52 28 47 21 50 24 30
31 -23 7 -23 7 -5 27 14 16 10 15 -20 -5 -21 -15 -48 -29 -59 -33 -15 -4 -19
-13 -16 -34 2 -16 1 -27 -3 -24 -4 2 -11 25 -15 50 -3 24 -18 61 -31 82 l-25
37 25 -23 c14 -13 28 -35 31 -48 6 -21 9 -23 27 -14 11 6 16 16 13 22 -4 7 -2
8 5 4 13 -9 44 12 36 24 -3 4 3 14 13 21 15 13 16 12 3 -3 -26 -33 3 -18 46
24 44 43 61 77 21 42 -16 -14 -15 -10 6 19 16 20 31 37 34 37 3 0 1 -5 -6 -12
-7 -7 -12 -17 -12 -23 0 -5 7 -1 15 9 8 10 12 23 9 28 -8 13 26 49 39 41 5 -3
7 -1 3 5 -3 6 -2 13 4 17 5 3 10 10 10 15 0 5 -12 -3 -27 -17 -50 -46 -97 -71
-148 -79 l-50 -7 20 24 c10 13 44 51 75 83 42 45 48 55 25 41 -16 -9 -43 -29
-60 -44 -26 -23 -27 -23 -10 -2 29 33 71 62 101 67 26 5 26 5 -10 -37 -20 -24
-36 -47 -36 -52 0 -5 10 3 22 19 12 16 40 49 62 73 24 25 32 38 19 30 -13 -8
-23 -17 -23 -20 0 -3 -10 -4 -23 -2 -29 6 -146 -38 -195 -73 l-37 -27 37 36
c20 19 40 48 44 64 4 15 12 35 18 43 6 8 -26 -19 -71 -60 -45 -40 -79 -78 -76
-84 4 -5 -5 -1 -19 9 -15 12 -21 23 -16 30 5 5 35 57 67 115 32 58 73 132 91
165 31 56 32 58 7 33 -14 -16 -31 -28 -37 -28 -6 0 -8 -5 -4 -12 4 -7 3 -8 -5
-4 -6 4 -17 3 -24 -2 -7 -6 -30 -15 -53 -21 -61 -16 -147 -81 -156 -116 -4
-17 -5 11 -2 60 3 50 10 107 16 128 13 44 5 56 -24 38 -11 -7 -17 -8 -13 -2
16 26 -15 6 -73 -49z m48 6 c0 -2 -8 -10 -17 -17 -16 -13 -17 -12 -4 4 13 16
21 21 21 13z m-30 -40 c0 -2 -8 -10 -17 -17 -16 -13 -17 -12 -4 4 13 16 21 21
21 13z m160 -79 c0 -2 -10 -12 -22 -23 l-23 -19 19 23 c18 21 26 27 26 19z
m-379 -174 c13 -16 12 -17 -3 -4 -10 7 -18 15 -18 17 0 8 8 3 21 -13z m669
-197 c0 -2 -8 -10 -17 -17 -16 -13 -17 -12 -4 4 13 16 21 21 21 13z m-425
-125 c-10 -28 -15 -63 -12 -78 l6 -28 -14 30 c-19 39 -18 56 1 105 24 60 40
36 19 -29z m40 29 c-3 -5 -11 -10 -16 -10 -6 0 -7 5 -4 10 3 6 11 10 16 10 6
0 7 -4 4 -10z m78 -89 c-4 -3 -25 -22 -45 -40 -21 -19 -38 -29 -38 -22 0 19
69 83 82 75 5 -3 6 -9 1 -13z m-106 -53 c-3 -8 -6 -5 -6 6 -1 11 2 17 5 13 3
-3 4 -12 1 -19z m183 -103 c0 -8 -4 -15 -10 -15 -5 0 -7 7 -4 15 4 8 8 15 10
15 2 0 4 -7 4 -15z m-15 -265 c-3 -5 -12 -10 -18 -10 -7 0 -6 4 3 10 19 12 23
12 15 0z m-274 -495 l44 -15 -40 6 c-22 3 -51 12 -65 20 -28 17 -15 14 61 -11z
m-115 -5 c6 -6 35 -19 65 -30 58 -21 49 -27 -16 -9 -38 11 -40 10 -67 -22 -33
-39 -37 -30 -7 12 17 24 18 33 9 44 -14 17 0 21 16 5z m-236 -250 c0 -5 -4
-10 -10 -10 -5 0 -10 5 -10 10 0 6 5 10 10 10 6 0 10 -4 10 -10z m149 -125
c32 -54 36 -62 14 -37 -31 36 -95 147 -71 122 8 -8 34 -46 57 -85z m-409 -75
c12 -8 9 -10 -13 -10 -16 0 -26 4 -22 10 8 12 16 12 35 0z"/>
<path d="M2276 3105 c-9 -26 -7 -32 5 -12 6 10 9 21 6 23 -2 3 -7 -2 -11 -11z"/>
<path d="M1218 3103 c7 -3 16 -2 19 1 4 3 -2 6 -13 5 -11 0 -14 -3 -6 -6z"/>
<path d="M1304 3071 c7 -11 46 -35 46 -28 0 3 -12 12 -26 22 -15 9 -23 12 -20
6z"/>
<path d="M2250 3050 c-6 -11 -8 -20 -6 -20 3 0 10 9 16 20 6 11 8 20 6 20 -3
0 -10 -9 -16 -20z"/>
<path d="M1360 3036 c0 -2 8 -10 18 -17 15 -13 16 -12 3 4 -13 16 -21 21 -21
13z"/>
<path d="M2214 2998 l-19 -23 23 19 c21 18 27 26 19 26 -2 0 -12 -10 -23 -22z"/>
<path d="M1445 2950 l29 -30 -31 0 c-18 0 -44 5 -60 11 -23 8 -26 8 -15 -2 18
-19 15 -29 -8 -29 -11 0 -23 -7 -26 -15 -4 -8 -13 -15 -22 -15 -12 0 -10 -6 9
-27 21 -23 21 -25 5 -19 -19 6 -19 6 -4 -11 22 -24 33 -69 18 -78 -8 -5 -8
-11 2 -23 19 -22 52 -157 43 -172 -6 -9 -2 -9 12 -1 11 6 23 7 27 4 3 -3 6 15
6 41 0 43 -2 48 -20 43 -22 -6 -26 13 -9 48 9 19 9 18 5 -2 -5 -28 -2 -29 24
-3 15 15 32 20 73 19 28 -1 41 -4 28 -6 -15 -3 -20 -8 -13 -12 9 -5 9 -14 -1
-34 -12 -27 -31 -39 -21 -13 3 8 1 17 -5 21 -7 4 -11 -4 -11 -19 0 -14 -4 -26
-10 -26 -5 0 -10 -15 -10 -33 0 -39 -24 -77 -50 -77 -14 0 -17 -5 -12 -22 5
-21 6 -21 13 -2 7 18 10 13 13 -18 1 -7 -3 -13 -9 -13 -16 0 -76 -27 -71 -32
2 -2 18 3 35 12 27 13 31 13 31 1 0 -8 4 -17 9 -20 5 -4 7 3 4 14 -4 16 1 23
25 31 17 6 40 25 51 42 14 22 21 27 21 15 0 -20 8 -22 30 -8 11 7 15 28 15 75
0 36 -1 65 -3 65 -2 0 -12 -5 -23 -10 -26 -14 -25 1 4 45 17 27 29 35 52 35
l30 -1 -25 -14 c-14 -8 -20 -14 -15 -14 6 0 19 5 30 12 20 12 20 12 -5 37 -14
13 -27 22 -29 20 -2 -3 -8 6 -13 20 -8 22 -5 21 29 -12 40 -39 67 -50 57 -23
-4 8 -10 13 -15 10 -9 -6 -31 29 -24 37 3 3 -13 19 -36 37 -25 21 -38 39 -35
48 3 8 2 12 -3 9 -5 -3 -30 21 -57 54 -27 32 -53 59 -58 59 -6 1 3 -12 19 -29z
m63 -116 c23 -4 45 -11 48 -16 3 -5 -7 -6 -23 -3 -15 4 -38 8 -50 11 -26 5
-93 61 -93 77 0 6 17 -5 38 -25 26 -26 50 -39 80 -44z m0 -299 c0 -16 -2 -15
-8 5 -11 34 -11 60 0 35 5 -11 8 -29 8 -40z"/>
<path d="M1651 2926 c-9 -10 -8 -15 4 -20 10 -4 15 1 15 14 0 24 -4 25 -19 6z"/>
<path d="M2218 2913 c7 -3 16 -2 19 1 4 3 -2 6 -13 5 -11 0 -14 -3 -6 -6z"/>
<path d="M1289 2783 c-14 -35 -16 -120 -3 -132 5 -5 24 -12 43 -16 26 -6 32
-4 25 6 -4 7 -8 24 -9 37 0 13 -9 28 -19 34 -16 9 -16 11 -1 21 13 10 14 18 4
45 -13 39 -26 41 -40 5z"/>
<path d="M1746 2799 c5 -9 -7 -10 -42 -6 l-49 5 37 -19 c28 -14 43 -17 62 -9
25 9 26 9 21 -28 -3 -22 -1 -32 4 -24 7 11 9 11 14 -2 10 -25 25 -19 20 8 -3
13 0 27 7 31 8 5 -3 16 -30 31 -47 27 -54 29 -44 13z"/>
<path d="M1721 2702 c-46 -2 -68 -8 -77 -20 -18 -23 -17 -37 1 -22 21 18 27 8
16 -24 -7 -17 -7 -26 -1 -26 6 0 13 13 16 29 4 17 13 32 21 35 12 5 14 1 8
-21 l-6 -27 20 25 20 24 1 -30 1 -30 17 28 c9 15 31 32 47 36 23 7 25 9 8 10
-12 1 -23 4 -25 9 -1 4 -32 6 -67 4z"/>
<path d="M2352 2664 c-22 -15 -22 -15 -2 -36 11 -12 20 -27 20 -32 0 -24 20
21 20 46 0 34 -11 41 -38 22z"/>
<path d="M2420 2660 c-9 -6 -10 -10 -3 -10 6 0 15 5 18 10 8 12 4 12 -15 0z"/>
<path d="M1796 2637 c4 -16 1 -33 -6 -42 -7 -9 -11 -17 -9 -19 2 -2 11 6 20
18 15 19 15 25 3 46 l-14 25 6 -28z"/>
<path d="M1260 2620 c0 -34 22 -68 48 -75 14 -3 38 -15 54 -26 15 -11 28 -17
28 -12 -1 4 -19 20 -41 36 -22 15 -49 43 -60 62 -24 40 -29 43 -29 15z"/>
<path d="M1836 2613 c-12 -16 -14 -24 -6 -21 16 5 46 48 34 48 -5 0 -18 -12
-28 -27z"/>
<path d="M1182 2579 c-37 -29 -61 -57 -58 -64 4 -10 -3 -11 -30 -3 -29 8 -39
6 -67 -14 -39 -28 -51 -36 -113 -70 l-49 -27 48 -1 c26 0 47 -4 47 -10 0 -5 5
-10 11 -10 5 0 8 4 5 9 -7 11 49 25 64 16 20 -13 10 -79 -18 -116 -35 -46
-112 -115 -112 -100 0 6 -4 11 -10 11 -5 0 -7 -7 -4 -15 10 -24 19 -19 83 46
34 33 61 56 61 51 0 -5 16 5 37 24 20 18 40 31 44 28 4 -2 6 8 4 23 -2 16 -2
22 1 15 5 -10 9 -9 18 4 10 13 15 14 21 4 6 -9 4 -11 -5 -5 -10 6 -12 4 -7 -8
4 -10 1 -17 -5 -17 -6 0 -8 -3 -5 -7 4 -3 15 1 26 11 10 9 38 21 62 26 l44 9
-50 -2 c-46 -2 -50 0 -51 22 -1 13 -5 26 -10 30 -25 17 -13 49 31 85 54 45 58
35 9 -22 -19 -23 -34 -42 -32 -42 2 0 28 9 57 20 44 16 58 17 70 7 9 -6 4 3
-11 21 -15 18 -30 49 -33 70 -4 20 -7 40 -8 45 -1 4 -30 -16 -65 -44z m-72
-109 c0 -5 -4 -10 -10 -10 -5 0 -10 5 -10 10 0 6 5 10 10 10 6 0 10 -4 10 -10z
m-28 -108 c-2 -20 -8 -41 -14 -47 -8 -7 -9 0 -4 24 3 18 6 43 6 54 0 11 3 17
7 13 4 -4 6 -23 5 -44z"/>
<path d="M1714 2574 c0 -22 5 -42 11 -46 16 -11 36 29 29 58 -5 19 -9 22 -15
12 -8 -11 -10 -11 -18 1 -5 8 -8 0 -7 -25z"/>
<path d="M1691 2595 c1 -19 18 -51 18 -35 0 8 -4 22 -9 30 -5 8 -9 11 -9 5z"/>
<path d="M2400 2526 c0 -2 8 -10 18 -17 15 -13 16 -12 3 4 -13 16 -21 21 -21
13z"/>
<path d="M2357 2464 c-36 -34 -37 -34 -10 -28 91 20 105 32 65 53 -13 7 -26 1
-55 -25z"/>
<path d="M1564 2438 c-5 -8 -2 -9 11 -5 9 4 25 2 34 -5 14 -12 14 -11 2 5 -16
20 -37 22 -47 5z"/>
<path d="M2423 2390 c-18 -11 -33 -22 -33 -25 0 -2 16 5 35 16 19 12 35 23 35
25 0 6 -3 5 -37 -16z"/>
<path d="M1293 2393 c9 -2 23 -2 30 0 6 3 -1 5 -18 5 -16 0 -22 -2 -12 -5z"/>
<path d="M829 2369 c-23 -19 -23 -20 -2 -10 12 6 25 16 28 21 10 16 -1 12 -26
-11z"/>
<path d="M1420 2374 c0 -6 7 -19 16 -30 14 -18 14 -18 3 6 -14 31 -19 36 -19
24z"/>
<path d="M941 2341 c-12 -12 -21 -31 -21 -43 -1 -21 -3 -20 -30 12 -16 19 -30
30 -30 25 0 -6 5 -16 11 -22 9 -9 3 -12 -22 -11 -19 1 -37 6 -41 12 -5 7 -8 5
-8 -5 0 -26 -24 -41 -39 -26 -11 10 -11 8 -2 -10 16 -32 14 -53 -6 -53 -17 -1
-17 -1 0 -11 9 -5 17 -19 17 -29 0 -14 10 -21 34 -26 19 -3 41 -4 48 -1 7 3 3
6 -9 6 -34 1 -28 20 10 36 38 16 77 62 101 120 19 46 15 54 -13 26z m-69 -93
c-6 -6 -15 -8 -19 -4 -4 4 -1 11 7 16 8 5 17 7 19 4 3 -2 -1 -10 -7 -16z m-50
-10 c-7 -7 -12 -8 -12 -2 0 14 12 26 19 19 2 -3 -1 -11 -7 -17z m-16 -35 c-7
-7 -26 7 -26 19 0 6 6 6 15 -2 9 -7 13 -15 11 -17z"/>
<path d="M2340 2340 c-19 -11 -31 -19 -27 -20 11 0 67 29 67 35 0 7 -1 7 -40
-15z"/>
<path d="M2265 2310 c-8 -13 5 -13 25 0 13 8 13 10 -2 10 -9 0 -20 -4 -23 -10z"/>
<path d="M711 2228 c-2 -55 44 -120 64 -88 3 5 0 7 -9 4 -17 -7 -36 25 -47 76
-6 30 -7 31 -8 8z"/>
<path d="M2209 2213 c-13 -16 -12 -17 4 -4 9 7 17 15 17 17 0 8 -8 3 -21 -13z"/>
<path d="M1371 2086 c2 -2 15 -9 29 -15 24 -11 24 -11 6 3 -16 13 -49 24 -35
12z"/>
<path d="M1415 1982 c-5 -4 -17 -16 -25 -27 -11 -15 -7 -14 15 5 17 14 32 26
34 28 2 1 0 2 -5 2 -5 0 -13 -4 -19 -8z"/>
<path d="M2128 1983 c7 -3 16 -2 19 1 4 3 -2 6 -13 5 -11 0 -14 -3 -6 -6z"/>
<path d="M1975 1930 c-4 -6 -11 -8 -16 -5 -17 11 -20 -23 -4 -54 16 -32 32
-43 21 -16 -9 23 8 18 37 -12 16 -18 28 -43 31 -71 5 -42 4 -44 -42 -75 -81
-56 -136 -113 -175 -183 -20 -36 -37 -70 -37 -74 0 -4 19 -10 43 -14 23 -3 90
-17 150 -30 59 -12 107 -21 107 -19 0 2 -39 23 -87 45 -87 40 -163 63 -163 48
0 -4 -7 -11 -15 -14 -13 -5 -13 -2 1 17 35 45 156 143 221 179 74 41 110 51
52 15 -60 -37 -249 -181 -244 -185 2 -3 15 2 27 10 28 18 153 48 202 48 29 0
46 -10 97 -57 34 -32 84 -92 111 -133 l49 -75 -26 -6 c-84 -23 -116 -21 -165
11 -42 27 -329 134 -338 126 -10 -11 326 -183 463 -238 52 -21 157 -40 150
-27 -3 4 3 13 12 20 9 8 25 34 36 58 23 52 18 116 -19 231 -13 41 -24 83 -24
92 0 10 -10 26 -22 38 -24 22 -43 27 -32 8 3 -7 -8 3 -25 24 -23 27 -36 35
-53 30 -16 -4 -20 -2 -15 10 6 17 -30 58 -54 59 -11 0 -10 2 2 7 26 11 5 56
-23 49 -14 -4 -18 -3 -11 4 8 8 0 30 -23 71 -19 34 -33 63 -30 65 2 3 15 0 28
-7 22 -11 22 -10 3 5 -10 8 -24 14 -30 12 -5 -2 -16 2 -23 10 -25 24 -45 16
-40 -17 5 -30 4 -30 -16 -11 -12 10 -26 17 -32 14 -6 -2 -17 3 -24 12 -14 17
-26 19 -35 5z m25 -30 c-8 -5 -22 -9 -30 -9 -10 0 -8 3 5 9 27 12 43 12 25 0z
m300 -300 c0 -5 -4 -10 -10 -10 -5 0 -10 5 -10 10 0 6 5 10 10 10 6 0 10 -4
10 -10z m108 -147 c-5 -25 -28 -28 -28 -4 0 12 6 21 16 21 9 0 14 -7 12 -17z
m2 -58 c0 -8 -7 -15 -15 -15 -8 0 -15 7 -15 15 0 8 7 15 15 15 8 0 15 -7 15
-15z m0 -55 c0 -5 -7 -10 -15 -10 -8 0 -15 5 -15 10 0 6 7 10 15 10 8 0 15 -4
15 -10z m-10 -50 c0 -5 -4 -10 -10 -10 -5 0 -10 5 -10 10 0 6 5 10 10 10 6 0
10 -4 10 -10z"/>
<path d="M2220 1856 c0 -2 7 -9 15 -16 13 -11 14 -10 9 4 -5 14 -24 23 -24 12z"/>
<path d="M2020 1735 c-7 -9 -8 -15 -2 -15 5 0 12 7 16 15 3 8 4 15 2 15 -2 0
-9 -7 -16 -15z"/>
<path d="M2475 1427 c13 -41 31 -112 40 -158 10 -48 24 -89 33 -96 19 -15 36
-17 27 -3 -4 6 8 10 29 10 20 0 36 4 36 8 0 5 17 17 38 27 33 17 35 19 15 23
-25 4 -30 17 -10 25 6 3 -3 6 -20 6 -18 1 -33 -4 -33 -10 0 -18 -65 82 -78
120 -12 35 -77 121 -92 121 -4 0 3 -33 15 -73z"/>
<path d="M821 1391 l-54 -49 6 -50 c7 -58 38 -127 62 -136 9 -3 29 -6 43 -6
30 0 190 33 256 52 l41 12 -73 7 c-106 10 -106 10 -98 69 6 41 4 50 -9 50 -8
0 -15 -4 -15 -10 0 -5 -9 -1 -20 10 -25 25 -43 25 -97 0 -24 -10 -43 -17 -43
-15 0 3 17 24 38 47 24 26 32 43 24 45 -6 3 -10 9 -6 14 10 17 -1 9 -55 -40z"/>
<path d="M1150 1405 c-8 -9 -8 -15 -2 -15 12 0 26 19 19 26 -2 2 -10 -2 -17
-11z"/>
<path d="M889 1379 c-23 -19 -23 -20 -2 -10 12 6 25 16 28 21 10 16 -1 12 -26
-11z"/>
<path d="M1059 1364 l-34 -36 37 23 c21 13 40 30 42 37 9 22 -10 12 -45 -24z"/>
<path d="M1505 1340 c-82 -21 -187 -46 -232 -56 -46 -9 -83 -20 -83 -23 0 -14
190 18 260 43 40 15 74 25 77 23 2 -2 -54 -30 -124 -61 -126 -56 -127 -57 -73
-51 42 5 74 18 135 55 46 28 79 54 77 62 -2 7 0 10 3 6 4 -4 23 -1 43 8 19 8
37 12 39 10 2 -2 -23 -25 -56 -51 -34 -25 -61 -48 -61 -51 0 -3 14 5 31 18 16
13 44 30 60 39 17 10 29 21 28 25 -1 5 13 17 32 26 54 27 11 21 -156 -22z"/>
<path d="M1883 1320 c31 -28 57 -56 57 -62 0 -6 -10 -3 -22 8 l-23 19 19 -22
c10 -12 22 -21 26 -20 4 1 50 -26 101 -60 100 -65 257 -149 265 -141 2 3 -14
25 -35 50 -29 32 -67 58 -133 90 -51 25 -142 78 -203 118 l-110 72 58 -52z"/>
<path d="M1442 1185 c-30 -30 -64 -57 -76 -61 -11 -4 -122 -54 -246 -111 -275
-129 -369 -165 -393 -152 -11 7 -17 7 -17 0 0 -16 39 -23 73 -12 17 6 84 24
147 40 153 38 170 46 275 126 50 38 113 78 140 90 42 18 179 135 158 135 -3 0
-31 -25 -61 -55z"/>
<path d="M771 1204 c0 -11 3 -14 6 -6 3 7 2 16 -1 19 -3 4 -6 -2 -5 -13z"/>
<path d="M748 1180 c3 -18 0 -30 -7 -30 -6 0 -11 10 -11 23 0 20 -1 20 -15 -7
-8 -15 -15 -42 -15 -60 0 -40 25 -133 40 -152 18 -20 -4 -17 -22 4 -9 9 -24
33 -33 52 -17 34 -18 34 -26 12 -6 -16 -4 -33 7 -55 21 -41 74 -97 92 -97 15
0 199 89 362 175 88 47 103 60 43 38 -7 -3 -13 -2 -13 2 0 3 29 20 65 36 36
16 65 31 65 33 0 2 -51 -7 -112 -21 -161 -35 -267 -53 -311 -53 -49 0 -82 32
-92 88 -8 47 -24 58 -17 12z"/>
<path d="M2005 1180 c10 -11 20 -20 23 -20 3 0 -3 9 -13 20 -10 11 -20 20 -23
20 -3 0 3 -9 13 -20z"/>
<path d="M2685 1190 c3 -5 10 -10 16 -10 5 0 9 5 9 10 0 6 -7 10 -16 10 -8 0
-12 -4 -9 -10z"/>
<path d="M2650 1172 c0 -4 5 -13 10 -18 7 -7 -8 -9 -45 -7 l-55 2 6 -27 c4
-15 11 -32 16 -39 6 -7 8 -18 5 -25 -3 -7 -6 -4 -6 7 -1 16 -3 17 -11 5 -7
-12 -12 -7 -24 20 -8 19 -26 46 -41 60 l-26 25 3 -40 c2 -26 -2 -46 -12 -56
-13 -14 -19 -14 -55 -1 -22 8 -44 19 -50 24 -16 14 -26 9 -16 -9 22 -44 50
-126 39 -115 -26 26 -35 10 -10 -17 15 -15 60 -63 100 -106 39 -42 72 -81 72
-86 0 -5 5 -9 11 -9 8 0 9 13 5 40 -3 22 -2 40 3 40 5 0 32 -21 61 -47 45 -41
52 -44 46 -23 -4 14 -17 38 -28 54 l-21 29 49 -8 c27 -4 57 -11 67 -16 25 -14
21 6 -5 24 -13 9 -18 16 -12 16 6 1 30 -15 53 -35 32 -27 39 -39 29 -45 -10
-7 -11 -12 0 -29 24 -39 11 -39 -24 0 -20 22 -38 39 -40 37 -2 -2 1 -19 6 -39
7 -24 7 -45 0 -63 -13 -35 -9 -39 29 -30 50 11 61 29 61 102 0 37 2 64 5 61 3
-3 6 -33 6 -66 1 -54 3 -61 18 -53 9 6 18 24 19 43 1 18 11 45 22 61 20 27 20
27 1 27 -11 0 -23 -4 -26 -10 -9 -15 -25 -12 -25 6 0 8 -11 32 -25 52 -14 20
-25 31 -25 24 0 -6 -12 -12 -27 -12 l-28 0 25 -20 c14 -10 22 -21 19 -24 -3
-3 -22 12 -43 33 l-37 38 93 -3 c51 -1 82 0 68 3 -26 5 -52 32 -43 46 2 4 1 7
-4 6 -4 -1 -22 -1 -40 0 -27 1 -31 4 -29 26 1 14 11 35 22 47 l19 23 -22 -19
c-13 -11 -39 -19 -63 -20 -42 -1 -47 -5 -28 -24 6 -6 9 -14 6 -17 -7 -7 -88
82 -88 97 0 7 7 2 16 -10 14 -21 42 -33 29 -13 -3 6 8 25 25 44 l30 35 -25 16
c-27 18 -35 20 -35 8z m-73 -133 c8 -8 8 -20 1 -40 -10 -28 -8 -44 7 -81 5
-14 -2 -17 -47 -23 -29 -4 -57 -7 -63 -8 -5 -1 -11 6 -13 15 -2 12 6 22 25 30
l28 12 -25 3 c-53 7 -65 13 -78 34 -12 18 -11 20 5 15 10 -3 44 7 78 23 71 35
68 34 82 20z m88 -56 c11 -7 14 -13 6 -13 -7 0 -26 -14 -42 -31 l-29 -31 -11
26 c-18 38 1 77 33 69 13 -4 32 -12 43 -20z"/>
<path d="M2600 979 c0 -5 5 -7 10 -4 6 3 10 8 10 11 0 2 -4 4 -10 4 -5 0 -10
-5 -10 -11z"/>
<path d="M974 1138 l-19 -21 28 18 c28 18 33 25 19 25 -5 0 -17 -10 -28 -22z"/>
<path d="M2040 1156 c0 -2 8 -10 18 -17 15 -13 16 -12 3 4 -13 16 -21 21 -21
13z"/>
<path d="M2716 1131 c-4 -5 3 -7 14 -4 23 6 26 13 6 13 -8 0 -17 -4 -20 -9z"/>
<path d="M2070 1105 c-10 -12 -10 -15 4 -15 19 0 21 -11 4 -30 -8 -8 -2 -7 15
3 15 10 27 13 27 7 0 -5 6 -10 13 -10 6 0 43 -16 80 -35 107 -55 103 -41 -6
19 -54 30 -104 59 -111 65 -10 8 -17 7 -26 -4z"/>
<path d="M681 1060 c0 -8 4 -22 9 -30 12 -18 12 -2 0 25 -6 13 -9 15 -9 5z"/>
<path d="M1249 1024 c-43 -45 -181 -137 -265 -176 -39 -18 -88 -32 -125 -35
-36 -4 -56 -10 -51 -15 5 -5 39 -3 82 6 41 9 76 14 78 12 10 -11 -11 -24 -52
-35 -64 -16 -90 -14 -111 9 -10 12 -25 18 -33 15 -8 -3 -24 3 -36 12 -19 17
-20 17 -7 1 7 -10 9 -18 4 -18 -5 0 -15 -56 -21 -124 -6 -68 -16 -135 -21
-148 -5 -14 -5 -31 0 -40 7 -13 4 -18 -11 -23 -11 -4 -17 -11 -14 -17 4 -6 -2
-8 -17 -3 -16 4 -20 3 -11 -3 14 -10 2 -29 -102 -162 -24 -30 -51 -68 -61 -85
-15 -25 -12 -24 19 10 l37 40 -31 -45 c-18 -25 -37 -44 -43 -42 -7 1 -4 -4 5
-11 14 -11 31 -12 75 -5 97 15 128 26 195 72 34 24 86 55 113 69 47 23 85 72
85 108 0 6 14 28 30 49 17 21 30 42 30 46 0 5 -12 -8 -26 -28 -31 -43 -76 -54
-159 -39 -49 8 -48 9 33 10 77 1 85 3 107 29 16 17 24 40 25 63 0 19 11 71 24
115 20 62 26 74 32 57 6 -22 24 -32 24 -15 0 17 -39 44 -54 39 -10 -4 -20 5
-31 25 -8 17 -15 33 -15 35 0 1 20 3 45 3 38 0 52 -6 87 -37 23 -22 39 -30 35
-20 -4 9 -10 24 -14 33 -5 13 -2 15 18 9 13 -4 37 -14 52 -22 26 -13 28 -13
25 4 -4 22 -71 73 -97 73 -10 0 -26 -10 -34 -22 l-16 -23 6 23 c3 12 9 25 14
28 15 9 10 24 -8 25 -10 0 -4 5 12 10 17 5 45 7 63 4 19 -4 32 -3 29 2 -11 19
13 50 44 57 47 9 60 23 48 52 -11 31 3 61 34 74 14 6 16 9 6 9 -8 1 -31 -15
-50 -35z m-206 -187 c4 -10 -4 -14 -24 -14 -35 0 -37 5 -6 17 12 5 23 9 23 9
1 1 4 -5 7 -12z m-276 -79 c-3 -8 -6 -5 -6 6 -1 11 2 17 5 13 3 -3 4 -12 1
-19z m-47 -331 c0 5 7 10 14 10 12 0 13 -5 5 -20 -6 -10 -8 -30 -5 -43 4 -14
2 -24 -4 -24 -5 0 -10 11 -10 25 0 14 -9 34 -20 45 -11 11 -20 23 -20 27 0 3
9 -2 20 -12 11 -10 20 -14 20 -8z m-50 -11 c0 -2 -8 -10 -17 -17 -16 -13 -17
-12 -4 4 13 16 21 21 21 13z m50 -173 c-21 -27 -56 -52 -74 -53 -5 0 -1 9 8
19 10 11 15 25 11 31 -5 8 -1 10 12 6 13 -4 26 1 38 14 27 29 31 16 5 -17z"/>
<path d="M2173 971 c1 -33 5 -55 9 -48 4 7 8 8 8 3 0 -6 5 -5 12 2 19 19 26
15 53 -26 15 -22 57 -59 100 -86 67 -44 93 -71 81 -84 -3 -2 -30 10 -61 26
-53 29 -56 30 -49 9 11 -36 66 -93 113 -117 30 -15 67 -24 115 -27 43 -3 85
-12 107 -23 48 -26 106 -21 133 13 12 13 35 32 51 40 17 9 24 16 17 17 -8 0
-26 -8 -40 -19 -41 -28 -75 -45 -68 -32 4 7 -1 11 -12 11 -11 0 -57 11 -103
25 -46 14 -91 27 -100 29 -34 9 -89 36 -89 44 0 29 62 13 78 -21 16 -33 14 -1
-2 38 -16 39 -39 45 -68 18 -17 -15 -18 -14 -18 43 0 32 -4 64 -8 70 -4 6 -43
28 -87 48 -44 20 -96 49 -115 65 -60 47 -59 47 -57 -18z"/>
<path d="M1228 903 c23 -2 42 -9 42 -14 0 -6 5 -7 11 -4 6 4 17 -1 25 -11 11
-13 14 -14 11 -4 -6 23 -47 40 -92 38 l-40 -1 43 -4z"/>
<path d="M1101 850 c-7 -4 2 -7 20 -8 20 0 42 -11 62 -29 25 -23 28 -24 18 -6
-8 16 -8 23 2 26 6 3 3 5 -8 5 -11 0 -34 4 -51 10 -17 5 -37 7 -43 2z"/>
<path d="M2954 844 c-18 -14 -18 -15 4 -4 12 6 22 13 22 15 0 8 -5 6 -26 -11z"/>
<path d="M2244 842 c8 -13 66 -56 66 -49 0 3 -17 17 -37 33 -20 15 -33 23 -29
16z"/>
<path d="M2696 730 c-10 -74 7 -92 37 -41 16 28 16 31 0 60 -10 17 -21 31 -24
31 -4 0 -9 -23 -13 -50z m11 -52 c-3 -8 -6 -5 -6 6 -1 11 2 17 5 13 3 -3 4
-12 1 -19z"/>
<path d="M2909 763 c-13 -16 -12 -17 4 -4 16 13 21 21 13 21 -2 0 -10 -8 -17
-17z"/>
<path d="M2610 740 c0 -5 -7 -7 -16 -3 -11 4 -22 -1 -30 -12 -19 -26 -18 -30
9 -31 12 -1 39 -5 60 -9 31 -6 37 -5 37 9 0 18 -34 56 -50 56 -5 0 -10 -4 -10
-10z"/>
<path d="M2900 710 c-46 -25 -34 -25 21 0 24 11 37 19 29 19 -8 0 -31 -8 -50
-19z"/>
<path d="M1150 709 c0 -7 3 -9 6 -6 4 3 14 3 23 -2 9 -4 30 -4 46 0 30 7 30 7
-7 8 -20 0 -43 4 -52 7 -10 4 -16 1 -16 -7z"/>
<path d="M2332 674 c29 -30 35 -43 27 -56 -6 -11 -6 -19 0 -23 6 -3 7 -13 4
-22 -5 -13 -3 -15 13 -8 10 4 30 9 44 11 17 2 18 1 5 -2 -11 -3 -24 -10 -29
-15 -6 -5 -18 -9 -27 -9 -10 0 -20 -4 -23 -9 -7 -10 34 -2 49 10 6 4 23 6 38
5 19 -2 27 1 23 9 -3 8 2 11 15 8 32 -9 22 5 -19 26 -21 11 -65 41 -98 67 -58
46 -58 46 -22 8z"/>
<path d="M1070 692 c0 -6 6 -9 14 -6 8 3 17 0 21 -5 3 -6 11 -9 16 -5 5 3 18
0 27 -7 15 -12 16 -11 2 4 -18 20 -80 35 -80 19z"/>
<path d="M1025 649 c-4 -6 -5 -12 -2 -15 2 -3 7 2 10 11 7 17 1 20 -8 4z"/>
<path d="M2796 600 l-44 -41 -105 5 c-112 6 -159 -4 -188 -41 -13 -17 -13 -17
7 0 20 16 22 16 39 -3 10 -11 22 -17 26 -14 5 3 6 -1 3 -9 -3 -8 3 -20 12 -28
9 -8 18 -12 19 -9 3 6 55 -56 55 -65 0 -4 -8 -1 -17 6 -10 8 8 -19 40 -60 31
-41 57 -78 57 -82 0 -4 7 -10 16 -13 9 -3 -6 22 -33 56 -58 74 -71 94 -54 84
7 -4 39 -42 72 -84 l60 -76 52 2 c49 1 50 0 17 -8 -19 -5 -41 -7 -47 -5 -7 2
-13 0 -13 -5 0 -6 5 -10 10 -10 6 0 16 -12 23 -27 6 -16 27 -54 45 -86 46 -80
34 -83 -15 -5 -22 35 -52 83 -67 106 -15 24 -30 42 -33 39 -3 -3 0 -12 7 -19
6 -7 40 -58 75 -113 36 -55 65 -93 65 -86 0 12 3 12 12 3 8 -8 53 -12 134 -12
l123 0 -26 57 c-33 71 -103 193 -111 194 -27 3 -57 10 -61 16 -3 3 8 4 25 1
24 -3 31 -1 27 9 -3 7 -8 13 -12 13 -4 0 -8 19 -8 43 0 27 -19 88 -53 175 -61
152 -66 155 -134 92z m-220 -62 c4 -7 4 -10 0 -6 -5 4 -19 2 -33 -3 -26 -10
-47 -4 -38 12 9 13 63 11 71 -3z m200 -5 c42 -71 56 -97 47 -88 -19 19 -72
105 -65 105 4 0 12 -8 18 -17z m148 -287 c-3 -9 -10 -13 -15 -10 -5 3 -3 11 4
19 15 16 19 13 11 -9z m-32 -61 c-2 -25 -8 -45 -13 -45 -10 0 -12 34 -3 68 10
38 19 24 16 -23z"/>
<path d="M996 565 c-3 -9 -6 -24 -5 -33 0 -9 5 -4 10 12 9 32 6 48 -5 21z"/>
<path d="M2560 453 c0 -6 8 -17 18 -24 16 -13 16 -13 2 6 -8 11 -16 22 -17 24
-2 2 -3 0 -3 -6z"/>
<path d="M927 331 c-3 -12 -32 -33 -73 -54 -38 -20 -94 -54 -124 -76 -30 -23
-72 -46 -95 -52 -59 -16 -151 -28 -177 -23 l-23 5 23 -11 c28 -12 145 3 199
25 21 9 61 33 89 55 29 22 82 54 118 72 58 28 88 59 73 74 -2 3 -7 -4 -10 -15z"/>
</g>
</svg>
