<?xml version="1.0" standalone="no"?>
<!DOCTYPE svg PUBLIC "-//W3C//DTD SVG 20010904//EN"
 "http://www.w3.org/TR/2001/REC-SVG-20010904/DTD/svg10.dtd">
<svg version="1.0" xmlns="http://www.w3.org/2000/svg"
 width="360.000000pt" height="360.000000pt" viewBox="0 0 360.000000 360.000000"
 preserveAspectRatio="xMidYMid meet">

<g transform="translate(0.000000,360.000000) scale(0.100000,-0.100000)"
fill="#000000" stroke="none">
<path d="M1300 3394 c-41 -30 -86 -62 -100 -71 -58 -38 -133 -121 -157 -173
-20 -44 -24 -64 -19 -100 3 -25 9 -69 13 -99 l6 -55 -34 24 c-53 38 -149 132
-149 147 0 7 -4 13 -9 13 -5 0 -3 -27 5 -60 8 -34 19 -93 25 -133 15 -102 36
-161 76 -213 19 -26 32 -48 29 -52 -3 -3 -23 0 -45 6 -55 17 -56 16 -16 -19
19 -17 35 -37 35 -43 0 -17 33 -46 53 -46 20 0 47 -27 47 -47 0 -18 -40 -13
-93 11 -18 9 -59 22 -92 30 -33 8 -96 26 -140 40 -44 14 -161 50 -260 80 -99
31 -215 68 -258 82 -43 14 -85 23 -93 20 -19 -7 -18 -30 4 -48 15 -14 337
-121 692 -232 38 -12 46 -18 48 -42 2 -16 0 -26 -4 -22 -15 16 -34 -16 -34
-57 0 -55 22 -76 67 -63 60 16 80 101 36 150 -21 23 -6 23 33 -1 21 -13 36
-33 46 -64 8 -25 12 -45 9 -44 -3 1 -22 -15 -41 -36 -32 -35 -37 -38 -64 -27
-37 14 -47 5 -13 -11 15 -7 31 -24 36 -38 l9 -26 1 27 c1 15 15 43 32 63 40
45 96 49 134 10 14 -13 25 -28 25 -32 0 -5 27 -28 61 -53 34 -24 75 -65 92
-90 37 -55 43 -59 135 -114 57 -33 70 -45 56 -50 -32 -12 -131 -19 -180 -11
-48 7 -48 7 -24 22 24 14 24 14 -16 10 l-40 -5 22 47 c12 25 21 47 19 49 -2 2
-14 -4 -27 -12 -29 -19 -29 -19 -63 50 -29 59 -73 99 -126 115 -42 12 -85 3
-93 -19 -3 -9 -9 -24 -12 -32 -3 -8 6 -1 20 17 22 26 31 30 58 26 98 -15 151
-84 146 -189 -3 -67 -10 -78 -28 -43 -7 11 -14 19 -16 16 -2 -2 8 -26 23 -52
24 -43 24 -48 7 -40 -33 15 -104 17 -134 5 -38 -16 -97 -81 -101 -112 -2 -14
2 -32 9 -41 8 -9 21 -49 30 -89 17 -71 18 -73 50 -76 l33 -3 -65 -54 c-48 -39
-79 -56 -118 -65 -79 -18 -88 -21 -88 -29 0 -5 25 -28 56 -51 52 -39 54 -43
40 -59 -9 -10 -31 -26 -49 -36 -32 -17 -34 -17 -75 4 -22 11 -55 21 -72 21
-34 0 -47 22 -52 85 -1 19 -6 35 -11 35 -15 0 2 -81 24 -118 10 -18 19 -42 19
-53 0 -10 8 -27 18 -37 18 -18 17 -20 -20 -72 -45 -63 -65 -124 -47 -146 7 -8
28 -13 53 -12 l41 1 -45 7 -45 7 40 2 c44 1 165 51 245 100 28 18 49 28 46 22
-3 -5 1 -12 10 -15 8 -3 13 -2 10 3 -3 4 8 21 25 37 45 42 63 82 48 100 -10
12 -7 21 18 47 27 28 35 50 47 122 2 14 27 29 94 56 50 20 129 55 176 78 47
23 94 41 105 41 11 0 23 5 26 10 3 5 16 10 29 10 13 0 45 12 71 26 27 14 65
31 86 38 43 15 99 10 99 -9 0 -7 6 -15 13 -18 9 -3 9 -7 -1 -20 -16 -19 -12
-51 6 -53 6 -1 17 -2 23 -3 5 0 8 -4 6 -8 -3 -5 15 -9 40 -10 25 -1 50 -6 56
-12 18 -14 122 -31 190 -31 l59 0 -7 28 c-8 34 -52 81 -82 88 -24 6 -30 19
-13 29 6 3 10 13 10 21 0 8 32 54 70 102 l70 87 0 68 c0 62 2 68 18 62 9 -4
34 -11 54 -15 21 -4 43 -12 50 -17 7 -6 31 -16 53 -22 22 -7 49 -17 60 -22 23
-10 10 -6 370 -133 148 -53 275 -96 281 -96 7 0 90 -28 185 -61 184 -66 195
-67 213 -16 14 38 -3 52 -112 87 -94 31 -175 60 -237 85 -16 7 -129 45 -250
84 -608 199 -711 234 -735 256 -39 35 -65 45 -116 45 -30 0 -54 6 -66 17 -17
15 -18 15 -19 -3 -4 -69 -4 -69 -32 -72 -16 -2 -35 3 -44 10 -14 11 -15 11
-11 -2 2 -8 15 -17 29 -21 21 -6 21 -7 3 -8 -46 -2 -92 37 -64 54 6 4 7 -1 4
-12 -5 -16 -4 -16 8 -3 7 9 28 14 48 13 24 -1 27 1 10 4 -38 7 -52 24 -48 54
3 19 0 25 -9 22 -7 -3 -13 0 -13 6 0 6 16 11 35 11 24 0 35 5 35 15 0 11 12
15 48 15 l47 1 -27 15 c-30 16 -36 35 -15 52 6 6 67 21 135 33 67 13 122 27
122 31 0 4 -8 8 -18 8 -27 0 -122 30 -122 38 0 7 71 35 154 62 57 18 153 31
211 29 103 -5 118 -3 137 20 31 39 24 74 -22 100 -39 22 -122 28 -145 10 -5
-4 -37 -15 -70 -24 -33 -9 -64 -17 -70 -19 -5 -2 -22 -6 -36 -10 -23 -7 -244
14 -322 30 -27 6 -28 8 -21 49 9 65 -4 121 -41 170 l-34 43 63 11 c34 6 82 11
106 11 29 0 41 3 34 10 -10 10 -28 15 -187 46 l-87 18 7 36 c10 54 28 92 72
147 40 51 150 143 170 143 6 0 11 5 11 11 0 19 -156 1 -274 -31 -116 -31 -134
-42 -193 -122 -19 -27 -38 -48 -42 -48 -12 0 -1 110 15 164 8 26 13 51 10 54
-3 3 -6 1 -6 -5 0 -5 -20 -24 -45 -42 -25 -18 -73 -58 -106 -89 l-61 -56 7 60
c4 32 19 96 35 142 15 45 25 82 21 82 -3 -1 -40 -25 -81 -56z m109 -808 c44
-43 81 -80 81 -82 0 -2 -5 -4 -12 -4 -18 0 -154 -83 -142 -87 6 -2 40 10 77
27 99 45 113 41 129 -30 7 -32 7 -32 3 9 -2 32 0 40 8 32 17 -17 26 -13 20 10
-5 16 -2 20 13 17 14 -2 20 4 22 25 3 25 0 27 -30 27 -25 0 -29 3 -18 10 8 5
11 10 5 10 -5 0 -11 30 -12 67 l-3 66 26 -24 c33 -31 54 -70 55 -106 1 -18 3
-22 6 -10 8 31 -5 63 -48 117 -33 42 -36 49 -15 35 14 -10 26 -22 26 -27 0 -5
4 -7 9 -3 8 5 24 -11 26 -25 1 -3 5 -16 9 -29 6 -18 10 -20 17 -10 4 8 6 -18
5 -59 -3 -61 -2 -71 10 -61 11 9 14 8 14 -7 0 -14 6 -9 21 16 28 45 47 59 81
60 21 0 29 -6 34 -26 20 -78 -27 -181 -100 -219 -35 -19 -39 -19 -49 -3 -10
15 -12 14 -21 -5 -7 -13 -53 -43 -116 -74 -89 -45 -113 -53 -160 -53 -79 0
-164 23 -205 54 -35 27 -36 29 -34 91 2 69 -38 206 -53 183 -4 -7 -8 -20 -8
-28 0 -12 2 -13 9 -1 6 10 11 1 16 -28 4 -22 11 -41 17 -41 6 0 8 -6 5 -14 -3
-7 0 -19 6 -25 8 -8 8 -11 0 -11 -25 0 -57 64 -61 121 -4 51 -2 57 14 55 10
-2 20 -8 22 -14 2 -7 8 -12 14 -12 6 0 7 7 4 15 -3 8 -9 23 -13 32 -5 13 0 12
26 -6 23 -17 29 -27 22 -34 -6 -6 -10 -22 -10 -37 1 -23 2 -23 8 5 9 45 34 42
72 -9 19 -25 38 -46 42 -46 11 0 -58 126 -89 163 -27 32 -27 30 -10 76 l12 34
41 -70 c43 -71 85 -119 69 -78 -15 39 -19 131 -6 155 l12 23 13 -29 c7 -16 49
-64 94 -108z m118 92 c-3 -8 -6 -5 -6 6 -1 11 2 17 5 13 3 -3 4 -12 1 -19z
m10 -50 c-3 -8 -6 -5 -6 6 -1 11 2 17 5 13 3 -3 4 -12 1 -19z m-618 -212 c9
-10 7 -13 -11 -12 -12 0 -23 7 -26 14 -5 16 23 15 37 -2z m111 -27 c0 -6 -4
-7 -10 -4 -5 3 -10 11 -10 16 0 6 5 7 10 4 6 -3 10 -11 10 -16z m-170 -45 c-6
-6 -7 -14 -3 -18 4 -4 8 -18 9 -31 1 -20 -2 -23 -13 -14 -13 12 -18 80 -6 92
11 11 23 -16 13 -29z m197 4 c-3 -8 -6 -5 -6 6 -1 11 2 17 5 13 3 -3 4 -12 1
-19z m47 2 c14 -5 26 -16 26 -25 0 -12 -4 -13 -25 -3 -13 6 -22 14 -20 19 3 4
-1 10 -7 12 -24 10 1 7 26 -3z m1 -40 c8 -13 -5 -13 -25 0 -13 8 -13 10 2 10
9 0 20 -4 23 -10z m705 -31 c0 -12 -29 -24 -37 -16 -3 4 -3 13 0 21 6 16 37
11 37 -5z m-180 -49 c0 -5 -28 -32 -62 -61 -57 -48 -65 -51 -102 -46 -23 3
-57 13 -76 21 l-35 15 37 1 c20 0 49 -5 65 -10 26 -9 27 -9 9 5 -18 14 -18 15
5 24 13 5 51 21 84 35 68 28 75 30 75 16z m100 -34 c8 -11 9 -20 1 -33 -9 -16
-11 -15 -11 7 -1 14 -4 19 -7 13 -2 -7 -11 -13 -19 -13 -12 0 -12 4 -2 20 15
24 22 25 38 6z m-351 -94 c-9 -4 -96 40 -124 62 -11 9 14 -1 56 -21 42 -21 72
-39 68 -41z m331 48 c0 -5 -2 -10 -4 -10 -3 0 -8 5 -11 10 -3 6 -1 10 4 10 6
0 11 -4 11 -10z m-128 -40 c-18 -31 -46 -38 -87 -20 -18 8 -18 9 5 9 14 1 39
10 55 20 42 27 47 25 27 -9z m128 14 c0 -2 -7 -4 -15 -4 -8 0 -15 4 -15 10 0
5 7 7 15 4 8 -4 15 -8 15 -10z m25 -6 c-4 -13 -11 -27 -15 -32 -10 -10 -30 1
-30 16 0 7 6 6 15 -2 13 -11 15 -8 15 14 0 14 5 26 11 26 6 0 8 -9 4 -22z
m-113 -37 c-9 -16 -18 -28 -21 -26 -4 5 27 55 34 55 2 0 -4 -13 -13 -29z
m-152 -1 c11 -8 7 -9 -15 -4 -37 8 -45 14 -19 14 10 0 26 -5 34 -10z m320 6
c0 -9 -40 -13 -46 -5 -3 5 6 9 20 9 14 0 26 -2 26 -4z m-237 -23 c-7 -2 -19
-2 -25 0 -7 3 -2 5 12 5 14 0 19 -2 13 -5z m-5 -64 c-18 -7 -33 -7 -45 0 -14
8 -9 10 27 10 42 -1 43 -1 18 -10z m-243 -194 c-44 -32 -51 -34 -64 -20 -26
26 4 41 104 54 5 0 -12 -15 -40 -34z m-93 -15 c20 0 51 -75 46 -112 -6 -45
-47 -79 -48 -40 -1 9 -7 31 -15 47 l-15 30 6 -35 c4 -19 7 -39 8 -44 0 -5 -10
-13 -24 -17 -17 -5 -19 -7 -7 -8 24 -1 12 -21 -13 -21 -15 0 -20 10 -26 45 -3
25 -10 48 -15 51 -6 3 -7 -12 -3 -35 6 -36 4 -41 -12 -42 -18 0 -18 -1 1 -9
18 -7 18 -9 3 -15 -34 -14 -52 -1 -65 45 l-12 45 6 -48 c5 -47 4 -49 -18 -45
-33 4 -55 89 -33 124 24 36 80 74 111 75 15 0 37 4 48 9 11 5 29 7 40 5 11 -3
28 -5 37 -5z m138 -144 c-70 -34 -86 -32 -76 8 6 23 10 24 74 24 l67 0 -65
-32z m573 -28 c34 0 75 5 91 11 37 15 44 7 20 -20 -17 -19 -27 -21 -101 -17
-76 4 -113 17 -113 40 0 5 9 4 21 -2 11 -7 48 -12 82 -12z m-683 -27 c0 -24
-4 -26 -50 -35 -23 -4 -42 -1 -54 7 -16 11 -15 13 9 15 14 1 38 8 53 17 36 19
42 19 42 -4z m-276 -383 c-29 -32 -105 -78 -131 -78 -12 0 -52 10 -88 22 -58
19 -64 23 -51 36 11 12 20 12 47 3 17 -6 46 -11 63 -11 30 0 115 24 146 41 27
15 33 9 14 -13z"/>
<path d="M1745 2490 c-29 -47 -43 -100 -26 -100 6 0 11 -4 11 -10 0 -5 -6 -10
-14 -10 -12 0 -26 -20 -26 -36 0 -13 41 -1 50 15 13 25 13 71 0 71 -5 0 -10 8
-10 18 0 14 2 15 10 2 8 -13 11 -13 19 -1 10 15 35 5 26 -10 -4 -5 -1 -9 4 -9
17 0 13 52 -6 73 -18 19 -17 20 9 13 22 -5 26 -3 22 9 -11 28 -43 16 -69 -25z"/>
<path d="M1161 2423 c-1 -19 21 -63 32 -63 5 0 5 6 -1 13 -6 7 -16 24 -21 38
-5 13 -10 19 -10 12z"/>
<path d="M1242 2388 c2 -13 8 -23 13 -23 6 0 11 10 13 23 2 15 -2 22 -13 22
-11 0 -15 -7 -13 -22z"/>
<path d="M1366 2401 c-7 -11 3 -41 14 -41 14 0 21 17 14 34 -7 18 -20 21 -28
7z"/>
<path d="M1570 2370 c-8 -5 -10 -10 -5 -10 6 0 17 5 25 10 8 5 11 10 5 10 -5
0 -17 -5 -25 -10z"/>
<path d="M1273 2315 c-3 -9 -3 -19 1 -22 3 -4 6 -1 6 5 0 7 7 12 16 12 8 0 12
5 9 10 -9 15 -25 12 -32 -5z"/>
<path d="M1448 2291 c18 -11 -22 -37 -82 -53 -39 -10 -43 -14 -35 -30 8 -14
19 -18 47 -15 47 4 62 13 62 38 0 11 7 22 15 25 21 9 19 44 -2 44 -14 0 -15
-2 -5 -9z m-83 -89 c-3 -3 -11 0 -18 7 -9 10 -8 11 6 5 10 -3 15 -9 12 -12z"/>
<path d="M1400 2275 c-14 -8 -20 -14 -14 -15 5 0 19 7 30 15 24 18 16 19 -16
0z"/>
<path d="M1290 2231 c0 -5 5 -13 10 -16 6 -3 10 -2 10 4 0 5 -4 13 -10 16 -5
3 -10 2 -10 -4z"/>
<path d="M998 1593 c7 -3 16 -2 19 1 4 3 -2 6 -13 5 -11 0 -14 -3 -6 -6z"/>
<path d="M920 1941 c0 -6 5 -13 10 -16 6 -3 10 1 10 9 0 9 -4 16 -10 16 -5 0
-10 -4 -10 -9z"/>
<path d="M2318 1873 c7 -3 16 -2 19 1 4 3 -2 6 -13 5 -11 0 -14 -3 -6 -6z"/>
<path d="M2446 1808 c3 -5 10 -6 15 -3 13 9 11 12 -6 12 -8 0 -12 -4 -9 -9z"/>
<path d="M2471 1770 c14 -31 19 -36 19 -24 0 6 -7 19 -16 30 -14 18 -14 18 -3
-6z"/>
<path d="M2501 1674 c0 -11 3 -14 6 -6 3 7 2 16 -1 19 -3 4 -6 -2 -5 -13z"/>
<path d="M2491 1634 c0 -11 3 -14 6 -6 3 7 2 16 -1 19 -3 4 -6 -2 -5 -13z"/>
<path d="M1688 1603 c7 -3 16 -2 19 1 4 3 -2 6 -13 5 -11 0 -14 -3 -6 -6z"/>
<path d="M2470 1590 c-6 -11 -8 -20 -6 -20 3 0 10 9 16 20 6 11 8 20 6 20 -3
0 -10 -9 -16 -20z"/>
<path d="M2430 1560 c-9 -6 -10 -10 -3 -10 6 0 15 5 18 10 8 12 4 12 -15 0z"/>
<path d="M624 1504 c-8 -20 -14 -40 -12 -45 2 -5 10 11 19 36 20 54 14 60 -7
9z"/>
<path d="M2180 1494 c0 -5 7 -18 15 -28 8 -11 15 -16 15 -10 0 5 -7 18 -15 28
-8 11 -15 16 -15 10z"/>
<path d="M2578 1463 c7 -3 16 -2 19 1 4 3 -2 6 -13 5 -11 0 -14 -3 -6 -6z"/>
<path d="M2511 1424 c-12 -15 -21 -32 -21 -38 0 -6 6 -2 12 9 6 11 18 28 26
38 8 9 12 17 9 17 -3 0 -15 -12 -26 -26z"/>
<path d="M2216 1427 c3 -10 9 -15 12 -12 3 3 0 11 -7 18 -10 9 -11 8 -5 -6z"/>
<path d="M2290 1434 c45 -17 74 -24 64 -14 -5 5 -25 12 -44 15 -19 3 -28 3
-20 -1z"/>
<path d="M538 1413 c7 -3 16 -2 19 1 4 3 -2 6 -13 5 -11 0 -14 -3 -6 -6z"/>
<path d="M1728 1403 c7 -3 16 -2 19 1 4 3 -2 6 -13 5 -11 0 -14 -3 -6 -6z"/>
<path d="M2381 1390 c14 -31 19 -36 19 -24 0 6 -7 19 -16 30 -14 18 -14 18 -3
-6z"/>
<path d="M1664 1384 c-18 -14 -18 -14 6 -3 31 14 36 19 24 19 -6 0 -19 -7 -30
-16z"/>
<path d="M1895 1383 c17 -8 39 -23 50 -32 19 -15 19 -15 6 2 -15 18 -63 47
-78 47 -4 -1 6 -8 22 -17z"/>
<path d="M2232 1365 c0 -16 2 -22 5 -12 2 9 2 23 0 30 -3 6 -5 -1 -5 -18z"/>
<path d="M2727 1369 c4 -13 8 -18 11 -10 2 7 -1 18 -6 23 -8 8 -9 4 -5 -13z"/>
<path d="M1615 1348 c-13 -20 -17 -21 -26 -8 -9 12 -10 12 -7 1 7 -25 24 -23
42 4 20 31 13 33 -9 3z"/>
<path d="M2500 1336 c0 -2 8 -10 18 -17 15 -13 16 -12 3 4 -13 16 -21 21 -21
13z"/>
<path d="M1970 1326 c0 -2 8 -10 18 -17 15 -13 16 -12 3 4 -13 16 -21 21 -21
13z"/>
<path d="M2232 1270 c0 -19 2 -27 5 -17 2 9 2 25 0 35 -3 9 -5 1 -5 -18z"/>
<path d="M2731 1234 c0 -11 3 -14 6 -6 3 7 2 16 -1 19 -3 4 -6 -2 -5 -13z"/>
<path d="M1270 1220 c6 -11 13 -20 16 -20 2 0 0 9 -6 20 -6 11 -13 20 -16 20
-2 0 0 -9 6 -20z"/>
<path d="M2021 1224 c0 -11 3 -14 6 -6 3 7 2 16 -1 19 -3 4 -6 -2 -5 -13z"/>
<path d="M1621 1214 c0 -11 3 -14 6 -6 3 7 2 16 -1 19 -3 4 -6 -2 -5 -13z"/>
<path d="M2216 1215 c-9 -26 -7 -32 5 -12 6 10 9 21 6 23 -2 3 -7 -2 -11 -11z"/>
<path d="M563 1143 c9 -2 25 -2 35 0 9 3 1 5 -18 5 -19 0 -27 -2 -17 -5z"/>
<path d="M1312 1077 c-2 -49 0 -56 12 -45 8 7 10 15 6 18 -5 3 -10 23 -13 45
-3 32 -4 29 -5 -18z"/>
<path d="M2149 1113 c-13 -16 -12 -17 4 -4 9 7 17 15 17 17 0 8 -8 3 -21 -13z"/>
<path d="M886 1084 c-22 -15 -73 -42 -115 -60 -42 -18 -70 -34 -64 -34 20 0
176 75 203 98 35 30 22 27 -24 -4z"/>
<path d="M429 1083 c-13 -16 -12 -17 4 -4 9 7 17 15 17 17 0 8 -8 3 -21 -13z"/>
<path d="M1104 1078 l-19 -23 23 19 c21 18 27 26 19 26 -2 0 -12 -10 -23 -22z"/>
<path d="M2109 1083 c-13 -16 -12 -17 4 -4 16 13 21 21 13 21 -2 0 -10 -8 -17
-17z"/>
<path d="M1565 1064 c-9 -15 -12 -23 -6 -20 11 7 35 46 28 46 -3 0 -12 -12
-22 -26z"/>
<path d="M950 1056 c0 -2 8 -10 18 -17 15 -13 16 -12 3 4 -13 16 -21 21 -21
13z"/>
<path d="M1083 1015 c0 -22 2 -30 4 -17 2 12 2 30 0 40 -3 9 -5 -1 -4 -23z"/>
<path d="M1370 1026 c0 -2 8 -10 18 -17 15 -13 16 -12 3 4 -13 16 -21 21 -21
13z"/>
<path d="M2191 1004 c0 -11 3 -14 6 -6 3 7 2 16 -1 19 -3 4 -6 -2 -5 -13z"/>
<path d="M2200 976 c0 -2 8 -10 18 -17 15 -13 16 -12 3 4 -13 16 -21 21 -21
13z"/>
<path d="M1105 940 c10 -11 20 -20 23 -20 3 0 -3 9 -13 20 -10 11 -20 20 -23
20 -3 0 3 -9 13 -20z"/>
<path d="M1269 943 c-13 -16 -12 -17 4 -4 9 7 17 15 17 17 0 8 -8 3 -21 -13z"/>
<path d="M1441 945 c0 -5 6 -21 14 -35 8 -14 14 -20 14 -15 0 6 -6 21 -14 35
-8 14 -14 21 -14 15z"/>
<path d="M93 895 c0 -22 2 -30 4 -17 2 12 2 30 0 40 -3 9 -5 -1 -4 -23z"/>
<path d="M1230 920 c-9 -6 -10 -10 -3 -10 6 0 15 5 18 10 8 12 4 12 -15 0z"/>
<path d="M728 903 c7 -3 16 -2 19 1 4 3 -2 6 -13 5 -11 0 -14 -3 -6 -6z"/>
<path d="M1548 883 c7 -3 16 -2 19 1 4 3 -2 6 -13 5 -11 0 -14 -3 -6 -6z"/>
<path d="M855 840 c10 -11 20 -20 23 -20 3 0 -3 9 -13 20 -10 11 -20 20 -23
20 -3 0 3 -9 13 -20z"/>
<path d="M1706 810 c17 -19 36 -44 42 -55 6 -11 12 -14 12 -7 0 7 -19 32 -42
56 -29 28 -33 30 -12 6z"/>
<path d="M500 819 c-7 -11 -10 -23 -7 -25 2 -2 9 7 15 21 14 30 7 33 -8 4z"/>
<path d="M1482 790 c0 -19 2 -27 5 -17 2 9 2 25 0 35 -3 9 -5 1 -5 -18z"/>
<path d="M2098 713 c7 -3 16 -2 19 1 4 3 -2 6 -13 5 -11 0 -14 -3 -6 -6z"/>
<path d="M1751 644 c0 -11 3 -14 6 -6 3 7 2 16 -1 19 -3 4 -6 -2 -5 -13z"/>
<path d="M885 629 c-4 -6 -5 -12 -2 -15 2 -3 7 2 10 11 7 17 1 20 -8 4z"/>
<path d="M510 585 c13 -14 26 -25 28 -25 3 0 -5 11 -18 25 -13 14 -26 25 -28
25 -3 0 5 -11 18 -25z"/>
<path d="M1648 543 c6 -2 18 -2 25 0 6 3 1 5 -13 5 -14 0 -19 -2 -12 -5z"/>
<path d="M1392 510 c0 -19 2 -27 5 -17 2 9 2 25 0 35 -3 9 -5 1 -5 -18z"/>
<path d="M1339 473 c-13 -16 -12 -17 4 -4 16 13 21 21 13 21 -2 0 -10 -8 -17
-17z"/>
<path d="M1299 443 c-13 -16 -12 -17 4 -4 16 13 21 21 13 21 -2 0 -10 -8 -17
-17z"/>
<path d="M568 383 c12 -2 30 -2 40 0 9 3 -1 5 -23 4 -22 0 -30 -2 -17 -4z"/>
<path d="M1458 303 c12 -2 30 -2 40 0 9 3 -1 5 -23 4 -22 0 -30 -2 -17 -4z"/>
</g>
</svg>
