<?xml version="1.0" standalone="no"?>
<!DOCTYPE svg PUBLIC "-//W3C//DTD SVG 20010904//EN"
 "http://www.w3.org/TR/2001/REC-SVG-20010904/DTD/svg10.dtd">
<svg version="1.0" xmlns="http://www.w3.org/2000/svg"
 width="360.000000pt" height="360.000000pt" viewBox="0 0 360.000000 360.000000"
 preserveAspectRatio="xMidYMid meet">

<g transform="translate(0.000000,360.000000) scale(0.100000,-0.100000)"
fill="#000000" stroke="none">
<path d="M1783 2757 c-6 -18 -23 -65 -38 -104 l-28 -73 -56 -1 c-31 -1 -82 -4
-114 -8 l-58 -6 90 -68 89 -68 -19 -72 c-22 -86 -23 -90 -6 -81 6 5 -1 -9 -17
-31 -37 -48 -22 -43 85 33 l86 59 92 -64 c51 -36 94 -63 96 -61 2 2 -9 46 -25
98 -16 52 -30 102 -30 110 0 8 39 44 85 79 82 62 99 79 73 78 -7 0 -58 1 -113
1 l-100 2 -35 101 c-19 55 -37 102 -40 104 -3 2 -11 -11 -17 -28z m7 -267 c0
-5 -8 -10 -17 -10 -15 0 -16 2 -3 10 19 12 20 12 20 0z m30 -55 c14 -19 14
-19 -2 -6 -10 7 -18 18 -18 24 0 6 1 8 3 6 1 -2 9 -13 17 -24z"/>
<path d="M2780 2725 c0 -6 4 -15 9 -20 20 -21 83 -190 108 -292 25 -98 27
-126 28 -293 0 -144 -4 -204 -19 -270 -65 -300 -226 -566 -451 -747 -44 -35
-88 -71 -97 -78 -10 -8 -18 -10 -18 -5 0 5 41 41 91 80 l91 70 -61 1 c-34 1
-65 3 -71 4 -5 1 -32 3 -59 4 l-49 1 -33 98 c-17 53 -34 101 -37 105 -5 10
-29 -40 -62 -134 l-24 -66 -90 -8 c-50 -4 -104 -7 -121 -6 -34 2 -37 5 69 -74
43 -33 80 -65 83 -71 2 -7 -1 -31 -7 -55 -20 -74 -21 -81 -4 -75 12 5 12 0 -3
-25 -22 -38 -53 -66 -35 -32 7 12 12 23 12 25 0 2 -40 -6 -89 -18 -129 -33
-345 -52 -357 -33 -6 10 -64 201 -64 211 0 3 41 37 90 75 l90 68 -118 9 -119
8 -33 104 c-30 93 -50 128 -50 92 0 -7 -16 -53 -34 -103 l-34 -90 -64 -7 c-35
-4 -87 -8 -116 -9 -28 -1 -52 -3 -52 -4 0 -1 35 -29 77 -61 42 -33 82 -63 89
-69 11 -8 10 -22 -5 -75 -10 -36 -17 -74 -15 -85 3 -22 -14 -47 -27 -39 -5 3
-32 -2 -61 -11 -29 -8 -82 -18 -118 -21 -36 -4 -66 -8 -68 -9 -5 -5 93 -75
164 -119 113 -69 305 -141 429 -162 17 -2 55 -9 85 -14 98 -16 342 -4 460 23
610 143 1042 680 1044 1297 0 221 -45 412 -144 610 -60 118 -209 328 -210 295z
m-1353 -1641 c-3 -3 -12 -4 -19 -1 -8 3 -5 6 6 6 11 1 17 -2 13 -5z m773 -4
c0 -5 -2 -10 -4 -10 -3 0 -8 5 -11 10 -3 6 -1 10 4 10 6 0 11 -4 11 -10z m50
6 c0 -2 -9 -6 -20 -9 -11 -3 -18 -1 -14 4 5 9 34 13 34 5z m-840 -51 c14 -19
14 -19 -2 -6 -10 7 -18 18 -18 24 0 6 1 8 3 6 1 -2 9 -13 17 -24z m63 -162
c103 -71 108 -76 77 -69 -14 3 -50 7 -80 10 -63 6 -159 25 -178 35 -9 5 4 19
39 44 29 20 55 37 57 37 2 0 41 -25 85 -57z m-213 23 c0 -2 -8 -10 -17 -17
-16 -13 -17 -12 -4 4 13 16 21 21 21 13z"/>
<path d="M1057 2125 c-20 -53 -37 -100 -37 -105 0 -9 -59 -13 -198 -15 -17 0
-32 -2 -32 -5 0 -3 40 -35 89 -72 l88 -68 -18 -67 c-11 -38 -18 -75 -17 -84 2
-8 -5 -27 -15 -42 -10 -15 -15 -27 -12 -27 3 0 47 29 98 65 l93 64 93 -66 c50
-36 93 -64 95 -62 2 2 -11 53 -29 112 l-33 108 89 67 c49 37 89 70 89 74 0 5
-51 8 -113 8 l-113 0 -33 98 c-19 53 -37 100 -40 104 -4 4 -23 -35 -44 -87z
m33 -205 c0 -5 -5 -10 -11 -10 -5 0 -7 5 -4 10 3 6 8 10 11 10 2 0 4 -4 4 -10z
m30 0 c0 -5 -5 -10 -11 -10 -5 0 -7 5 -4 10 3 6 8 10 11 10 2 0 4 -4 4 -10z
m0 -55 c14 -19 14 -19 -2 -6 -10 7 -18 18 -18 24 0 6 1 8 3 6 1 -2 9 -13 17
-24z"/>
<path d="M2540 2188 c0 -6 -16 -55 -37 -110 l-36 -98 -91 -2 c-50 -1 -101 -1
-113 0 -13 0 -23 -1 -23 -3 0 -3 160 -130 178 -141 1 -1 -6 -35 -18 -75 -24
-89 -24 -85 -3 -68 9 8 2 -7 -16 -33 -17 -27 -29 -48 -26 -48 3 0 47 29 99 65
l95 66 92 -66 c51 -36 94 -63 96 -61 3 2 -10 52 -28 112 -27 92 -30 109 -17
118 8 6 50 38 93 71 l78 60 -118 5 -118 5 -36 107 c-32 95 -51 132 -51 96z m0
-322 c0 -3 -4 -8 -10 -11 -5 -3 -10 -1 -10 4 0 6 5 11 10 11 6 0 10 -2 10 -4z"/>
<path d="M540 1365 c0 -19 105 -220 154 -293 27 -41 85 -111 128 -157 l79 -84
71 20 c75 21 138 45 138 53 0 2 -25 16 -55 30 -170 78 -368 243 -492 411 -12
17 -22 26 -23 20z"/>
</g>
</svg>
