<?xml version="1.0" standalone="no"?>
<!DOCTYPE svg PUBLIC "-//W3C//DTD SVG 20010904//EN"
 "http://www.w3.org/TR/2001/REC-SVG-20010904/DTD/svg10.dtd">
<svg version="1.0" xmlns="http://www.w3.org/2000/svg"
 width="360.000000pt" height="360.000000pt" viewBox="0 0 360.000000 360.000000"
 preserveAspectRatio="xMidYMid meet">

<g transform="translate(0.000000,360.000000) scale(0.100000,-0.100000)"
fill="#000000" stroke="none">
<path d="M0 3209 c1 -423 -2 -403 60 -470 63 -69 80 -91 80 -104 0 -21 19 -28
26 -10 7 17 -57 157 -83 183 -8 9 -12 28 -9 51 6 47 -6 70 -27 52 -13 -10 -15
-9 -10 8 3 12 9 21 14 21 13 0 39 -42 39 -63 0 -22 37 -77 51 -77 5 0 0 18
-11 41 l-21 40 29 -4 c37 -6 70 -28 101 -67 13 -16 29 -30 36 -30 7 0 15 -5
17 -10 4 -14 88 -22 88 -9 0 14 17 11 34 -6 16 -17 50 -9 39 8 -4 6 -10 27
-13 47 -3 19 -12 34 -18 32 -7 -1 -11 1 -11 5 3 20 -3 32 -29 60 -21 21 -31
44 -36 81 -4 29 -11 52 -17 52 -6 0 -7 5 -4 10 4 6 11 7 17 4 7 -5 8 -2 4 5
-5 7 -11 10 -14 7 -12 -13 -29 32 -27 72 2 30 -2 45 -11 49 -8 3 -12 9 -9 14
3 4 0 17 -7 28 -7 11 -9 23 -5 27 9 9 43 -36 39 -50 -2 -5 3 -4 12 3 11 9 16
9 22 0 4 -8 3 -9 -4 -5 -7 4 -12 3 -12 -3 0 -14 20 -25 21 -12 1 6 2 17 3 24
1 6 -4 21 -11 33 -7 11 -10 23 -7 27 4 3 -14 30 -40 59 -25 29 -46 56 -46 60
0 5 -4 8 -9 8 -5 0 1 -20 14 -44 13 -24 21 -47 18 -50 -4 -3 -1 -6 5 -6 7 0
12 -4 12 -9 0 -5 -9 -7 -20 -4 -11 3 -20 9 -20 14 0 5 -17 23 -37 41 -85 76
-103 97 -142 166 -22 41 -41 78 -41 83 0 5 -7 9 -15 9 -13 0 -15 -48 -15 -391z"/>
<path d="M60 3592 c0 -12 72 -78 92 -85 10 -4 15 -12 12 -21 -3 -8 -1 -17 5
-21 7 -4 9 1 5 12 -6 18 17 -5 79 -81 18 -21 60 -68 95 -105 57 -60 62 -69 58
-101 -3 -19 -8 -62 -12 -95 l-6 -60 51 55 c31 33 54 51 58 45 18 -24 102 -85
153 -110 30 -16 99 -45 153 -65 118 -45 110 -50 -76 -45 l-132 4 25 -19 c14
-11 82 -49 151 -83 98 -50 155 -71 257 -97 113 -28 133 -36 137 -54 3 -11 6
-85 8 -164 l2 -143 -92 -52 c-51 -29 -105 -62 -120 -75 -21 -18 -15 -16 27 8
30 17 85 46 121 65 l67 34 -3 -147 c-3 -109 -1 -130 5 -82 4 36 8 157 9 270
l1 205 21 -43 c12 -24 42 -60 67 -80 117 -95 116 -92 162 -267 39 -148 122
-526 117 -531 -3 -2 -136 14 -169 21 l-26 6 20 47 c20 44 20 53 9 132 -7 47
-18 110 -25 140 l-13 55 -1 -87 c-1 -107 -8 -149 -39 -215 l-24 -53 -62 0
c-70 0 -302 -26 -317 -35 -6 -4 -22 3 -36 14 -31 25 -48 27 -40 6 3 -8 0 -15
-7 -15 -9 0 -8 -3 1 -9 10 -6 -1 -12 -35 -22 l-48 -13 38 -4 c20 -2 37 -9 38
-15 1 -20 7 -49 11 -52 2 -2 42 13 88 34 172 78 308 95 496 62 147 -25 304
-27 434 -5 132 23 336 16 448 -15 45 -13 82 -26 82 -30 0 -13 -182 -127 -275
-174 -49 -24 -133 -62 -185 -83 l-95 -39 -186 2 c-102 1 -237 6 -300 12 -165
17 -409 50 -446 62 -17 5 -49 31 -70 56 -81 97 -76 92 -58 55 9 -18 38 -56 64
-83 47 -48 53 -63 15 -34 -24 18 -38 19 -28 3 5 -9 2 -9 -9 1 -14 11 -17 11
-17 0 0 -7 -10 -4 -24 10 -24 23 -25 23 -19 2 12 -47 -40 -5 -71 57 -10 19
-32 52 -49 75 -18 23 -43 65 -57 92 -14 28 -28 52 -32 53 -5 2 -8 15 -8 28 0
14 -4 34 -10 44 -7 13 -6 21 5 30 21 17 19 23 -18 82 -19 29 -37 62 -41 73
l-8 20 -9 -20 c-17 -39 -36 -302 -33 -460 9 -392 52 -634 154 -851 20 -45 36
-92 35 -106 -3 -24 20 -66 30 -56 8 7 -6 39 -14 34 -4 -3 -8 4 -8 15 -1 10 0
19 2 19 9 0 44 -73 39 -81 -3 -5 -2 -8 3 -7 13 4 203 -248 195 -258 -4 -4 -2
-4 4 -1 11 6 98 -75 94 -88 -1 -4 2 -10 6 -13 4 -4 3 0 -1 8 -5 8 18 -9 52
-37 l61 -53 426 0 427 0 122 113 c314 289 571 558 685 717 26 35 66 101 89
145 23 44 43 72 43 63 0 -9 -5 -20 -10 -23 -5 -3 -10 -13 -10 -22 0 -9 -18
-45 -40 -80 -33 -52 -39 -67 -30 -83 6 -11 13 -20 16 -20 3 0 2 4 -1 10 -3 5
-2 18 4 27 8 15 9 13 7 -11 -2 -21 -9 -30 -25 -33 -11 -1 -20 0 -18 5 1 4 -2
7 -8 7 -5 0 -9 -4 -7 -10 2 -5 0 -7 -4 -3 -10 11 -56 -54 -49 -70 2 -7 1 -11
-3 -9 -4 3 -18 -6 -32 -19 -24 -24 -24 -24 -3 -24 12 0 25 5 28 10 9 15 25 12
25 -5 0 -8 5 -15 10 -15 12 0 12 -2 1 38 -6 18 -6 30 -1 27 4 -3 10 2 14 10 4
11 11 13 31 5 25 -9 37 3 13 13 -10 4 -10 6 0 6 7 1 10 6 7 11 -3 6 3 11 14
12 12 0 27 1 34 2 6 1 15 5 18 10 9 12 39 0 39 -16 0 -10 -2 -10 -9 0 -6 10
-10 10 -21 -3 -11 -13 -15 -13 -22 -3 -6 10 -10 10 -18 -2 -13 -20 -13 -33 1
-24 8 4 8 0 0 -15 -7 -11 -8 -21 -4 -21 4 0 -1 -7 -11 -15 -11 -8 -15 -15 -8
-15 6 0 2 -15 -11 -34 -14 -21 -25 -29 -29 -22 -6 8 -8 7 -9 -1 -1 -7 -2 -16
-3 -20 -2 -12 -51 -85 -72 -110 -11 -12 -28 -34 -39 -49 -22 -31 -99 -124
-178 -216 -28 -32 -55 -58 -61 -58 -33 0 -141 -65 -197 -119 l-64 -60 56 -1
c46 0 59 4 78 24 13 13 56 41 96 61 66 34 84 38 168 43 74 4 107 1 153 -14 59
-18 139 -71 139 -91 0 -6 4 -15 9 -20 5 -5 6 -3 2 5 -4 6 -2 12 3 12 6 0 11
-4 11 -10 0 -6 128 -10 364 -10 l365 0 -26 69 -25 69 41 78 40 79 1 290 0 290
-21 -35 c-12 -19 -43 -77 -69 -127 -41 -81 -46 -88 -46 -59 1 19 3 32 5 30 5
-5 31 44 31 59 0 14 -15 -2 -15 -16 0 -7 -8 -11 -18 -11 -9 1 -15 -2 -12 -6 3
-5 1 -19 -4 -32 -7 -16 -10 -18 -10 -6 -1 24 -31 11 -31 -13 0 -10 -6 -19 -14
-19 -8 0 -16 -6 -18 -12 -3 -9 -9 -8 -22 5 -10 9 -13 18 -7 18 6 1 17 2 24 3
7 1 11 13 9 29 -2 17 5 38 18 54 11 14 20 34 20 43 0 10 18 37 40 61 22 24 40
50 40 56 0 7 6 13 14 13 8 0 17 13 21 29 4 20 16 34 36 43 l29 13 0 552 c0
492 -2 553 -15 553 -20 0 -65 -45 -65 -65 0 -20 -8 -19 -64 6 -26 11 -52 19
-58 17 -6 -2 17 -16 50 -31 49 -22 60 -31 55 -45 -9 -23 -62 -100 -74 -107 -5
-4 -9 -16 -9 -28 0 -18 2 -19 11 -7 18 25 1 -38 -28 -103 -14 -31 -24 -60 -21
-62 3 -3 23 33 44 81 21 47 40 82 42 76 2 -6 -5 -27 -14 -49 -38 -82 -37 -78
-17 -62 35 30 93 59 93 46 0 -36 -155 -188 -183 -179 -4 1 -23 -31 -42 -71
-27 -58 -45 -82 -87 -115 -29 -22 -54 -39 -57 -37 -2 2 6 20 18 40 26 45 27
53 0 29 -14 -12 -36 -19 -70 -19 -27 0 -49 0 -49 1 0 1 9 26 20 56 10 29 24
73 30 96 7 26 27 61 51 87 43 47 53 72 14 35 -20 -19 -25 -20 -25 -7 0 31 -20
28 -36 -7 -11 -22 -24 -34 -36 -33 -10 1 -18 6 -18 12 -1 5 -7 -1 -16 -15 -17
-28 -18 -34 19 110 14 52 27 111 30 130 l6 35 -14 -30 c-15 -31 -19 -18 -9 23
4 13 12 21 19 18 9 -3 17 11 24 39 13 53 13 69 0 35 -8 -20 -12 -22 -19 -10
-5 8 -10 11 -10 5 0 -5 -5 -2 -11 8 -8 14 -14 16 -24 7 -8 -7 -18 -9 -23 -6
-4 3 -28 -8 -53 -25 -24 -16 -50 -29 -58 -29 -8 0 -21 -7 -30 -15 -21 -20 -93
-67 -106 -69 -5 -1 -15 -5 -21 -9 -14 -8 -27 20 -18 35 4 6 -5 2 -20 -7 -15
-10 -31 -25 -37 -34 -6 -9 -9 -11 -7 -5 2 7 58 72 126 145 67 73 122 141 122
150 0 10 12 27 27 38 44 35 19 34 -64 -1 l-78 -34 -75 64 c-41 35 -116 88
-167 118 l-92 55 -3 153 -3 153 72 22 c39 11 100 37 135 57 59 35 248 154 248
158 0 0 -52 -1 -116 -2 -106 -3 -116 -2 -110 13 3 9 6 18 6 20 0 2 49 29 110
60 60 31 135 77 167 101 74 57 401 356 402 367 1 5 -9 5 -21 1 -42 -13 -233
-63 -235 -60 -1 1 22 40 52 88 48 78 51 87 32 86 -12 -1 -47 -20 -77 -43 -69
-52 -131 -94 -194 -130 l-49 -29 7 27 c3 14 11 39 18 54 6 15 11 31 10 35 -1
4 4 5 11 2 7 -2 44 15 81 40 l69 44 -85 1 -84 1 -11 -71 c-13 -80 -77 -218
-166 -358 l-54 -83 -6 118 c-4 83 -14 150 -32 219 -15 55 -27 108 -28 117 -1
9 -4 15 -8 12 -4 -2 -10 3 -13 12 -8 22 -8 26 4 19 6 -3 10 -1 10 4 0 6 -9 11
-20 11 -20 0 -24 -12 -34 -120 -3 -30 -19 -95 -36 -144 -31 -93 -130 -319
-137 -313 -2 2 -8 55 -14 118 -20 217 -55 331 -131 423 l-29 36 -374 0 -373 0
-57 -46 c-112 -91 -243 -263 -342 -450 -69 -130 -67 -134 -59 136 5 172 13
265 31 333 6 21 4 27 -9 27 -10 0 -16 -9 -16 -25 0 -21 -13 -30 -92 -69 -150
-72 -214 -120 -371 -274 -127 -126 -147 -142 -142 -117 2 17 14 95 26 175 11
80 27 176 35 213 16 80 18 100 5 92 -6 -3 -13 -26 -17 -51 l-7 -46 -51 51 -52
51 -67 0 c-41 0 -67 -4 -67 -11 0 -13 25 -39 39 -39 5 0 13 -5 17 -11 4 -8 -1
-9 -17 -4 -24 8 -56 43 -51 58 1 4 -32 7 -73 7 -41 0 -75 -4 -75 -8z m366 -99
c-6 -6 -36 9 -36 19 0 5 -4 7 -9 3 -5 -3 -13 0 -17 6 -4 8 -3 9 4 5 7 -4 12
-2 12 3 0 6 -3 11 -7 11 -5 0 -17 13 -27 28 -10 15 4 5 32 -22 28 -28 50 -51
48 -53z m2738 11 c-25 -44 -51 -82 -58 -86 -17 -11 -116 -21 -124 -13 -11 11
37 45 55 38 10 -4 14 -2 10 4 -4 6 24 33 61 61 38 28 74 58 82 67 30 36 18 3
-26 -71z m-3029 36 c10 -11 14 -20 9 -20 -5 0 -15 9 -22 20 -7 11 -11 20 -9
20 2 0 12 -9 22 -20z m1563 -116 c65 -22 88 -26 152 -21 41 3 105 15 142 26
81 26 132 31 189 21 27 -5 45 -5 48 1 1 6 10 2 18 -8 8 -10 12 -12 8 -5 -3 6
-4 12 -1 12 12 0 47 -73 65 -137 l20 -73 -22 -11 c-84 -44 -427 -253 -427
-261 0 -5 -4 -6 -10 -3 -5 3 -11 0 -11 -7 -1 -7 -5 1 -9 17 l-7 30 -9 -34 -10
-35 -22 22 c-12 12 -22 18 -22 13 0 -22 -36 -15 -47 9 l-11 25 -2 -30 c-1 -16
-4 -24 -7 -16 -5 11 -7 11 -14 0 -6 -10 -9 -8 -9 8 0 12 -10 27 -21 34 -12 6
-74 50 -138 98 -64 47 -160 115 -214 151 l-97 64 57 59 c32 33 84 81 115 108
l58 48 80 -40 c44 -21 115 -51 158 -65z m-1320 -89 c27 -24 42 -47 42 -62 0
-12 -2 -23 -5 -23 -6 0 -70 70 -140 155 -92 111 -94 114 -15 39 41 -39 94 -88
118 -109z m540 49 c57 -87 95 -254 57 -254 -9 0 -15 -9 -15 -25 0 -14 -4 -25
-9 -25 -17 0 -34 31 -33 63 l1 32 -15 -28 c-13 -25 -13 -32 5 -72 15 -35 26
-46 53 -53 29 -7 34 -13 38 -48 5 -34 6 -37 16 -20 20 33 50 27 62 -11 11 -34
9 -35 -33 -35 -35 0 -45 5 -116 58 -137 103 -136 103 -186 248 -36 107 -37
148 -2 166 17 10 19 7 19 -36 0 -33 8 -61 25 -91 30 -50 38 -54 34 -15 -4 35
7 52 33 52 18 0 19 -4 14 -34 -6 -31 -5 -33 17 -29 35 7 60 -23 53 -61 l-5
-31 16 31 c19 39 14 62 -31 136 -30 51 -32 56 -13 46 22 -11 22 -11 3 10 -10
12 -22 19 -26 17 -4 -2 -16 5 -26 18 l-19 22 25 -20 25 -20 -19 23 c-11 12
-26 20 -33 18 -20 -8 -25 12 -6 23 24 13 61 -10 91 -55z m76 23 c-2 -7 -13
-18 -24 -25 -26 -16 -40 6 -15 25 24 17 46 17 39 0z m1650 -9 c3 -14 0 -27 -8
-33 -7 -5 -16 -32 -19 -60 -5 -34 -4 -45 3 -35 9 13 10 13 10 0 1 -12 3 -12
14 3 21 27 26 21 26 -36 0 -51 -19 -97 -41 -97 -14 0 -11 21 6 40 14 15 14 18
0 30 -13 11 -20 9 -40 -10 -14 -13 -25 -19 -25 -14 0 25 53 234 60 234 4 0 10
-10 14 -22z m635 5 c-33 -40 -279 -259 -329 -293 -51 -35 -204 -120 -215 -120
-3 0 13 36 36 80 36 71 45 83 89 105 30 15 63 24 84 23 41 -4 38 -10 -20 -44
-24 -14 -44 -28 -44 -31 0 -8 90 47 157 95 34 25 59 50 56 56 -3 6 -3 8 2 4
11 -11 67 31 59 44 -4 6 -2 8 3 5 13 -8 65 31 58 44 -4 5 0 6 7 4 8 -3 25 6
38 20 26 28 40 34 19 8z m-309 3 c0 -2 -7 -7 -16 -10 -8 -3 -12 -2 -9 4 6 10
25 14 25 6z m-1981 -78 c0 -38 -1 -40 -10 -19 -8 22 -4 61 7 61 2 0 4 -19 3
-42z m1861 -49 c-12 -30 -47 -106 -78 -169 -56 -113 -58 -115 -137 -172 -49
-35 -91 -57 -107 -58 -33 0 -33 2 -11 86 16 61 19 65 42 59 20 -5 32 2 62 34
42 47 64 53 55 16 -4 -14 -3 -25 2 -25 10 0 98 133 147 223 21 37 39 66 42 64
2 -2 -6 -29 -17 -58z m-1322 -189 c88 -63 158 -118 156 -122 -7 -11 -21 -2
-206 115 -87 55 -155 103 -152 108 3 5 -2 6 -12 2 -14 -5 -15 -3 -5 16 15 27
14 28 219 -119z m-893 32 c22 -11 66 -27 96 -36 31 -9 65 -27 76 -40 12 -13
46 -43 77 -66 31 -23 56 -44 56 -45 0 -5 -78 20 -150 48 -98 37 -180 81 -239
127 -50 40 -52 43 -36 60 17 19 18 19 49 -4 17 -13 49 -33 71 -44z m580 -77
c17 -62 26 -80 41 -82 10 -1 89 -9 174 -18 85 -9 160 -17 165 -17 8 0 15 9 32
41 1 1 12 -4 25 -13 12 -9 30 -16 40 -16 10 0 23 -9 30 -20 10 -16 24 -20 68
-20 46 0 59 5 79 26 13 13 29 23 35 21 6 -2 23 2 39 10 23 12 27 12 27 -1 0
-8 5 -18 11 -21 16 -10 353 26 361 39 6 8 8 8 8 0 0 -14 -26 -37 -64 -56 l-29
-15 57 -5 c31 -3 61 -9 66 -14 5 -5 -6 -53 -27 -117 -29 -89 -37 -106 -49 -96
-9 8 -14 8 -14 1 0 -6 5 -14 10 -17 15 -9 12 -25 -5 -25 -8 0 -15 5 -15 11 0
5 -5 7 -11 3 -8 -5 -8 -9 1 -14 7 -4 9 -13 5 -19 -5 -9 -10 -8 -18 4 -10 13
-12 9 -12 -22 0 -31 -4 -38 -20 -38 -15 0 -20 -7 -20 -32 0 -36 -50 -97 -73
-88 -7 3 -10 0 -6 -6 7 -13 -108 -121 -215 -201 -76 -57 -76 -58 -147 -58 -85
0 -91 4 -326 187 -198 155 -210 168 -248 295 -17 57 -52 166 -79 243 l-48 140
23 24 c13 13 22 28 21 32 -1 4 7 15 18 24 11 9 13 13 5 9 -13 -7 -13 -5 1 16
8 14 19 32 24 40 11 18 28 -21 60 -135z m-472 98 c3 -17 8 -37 12 -42 3 -6 -1
-11 -9 -11 -9 0 -13 6 -10 14 4 11 0 14 -19 10 -14 -2 -29 0 -32 6 -4 6 7 10
26 10 24 0 30 3 22 11 -6 6 -9 18 -6 26 7 18 10 14 16 -24z m587 -6 c60 -30
65 -35 71 -71 11 -66 67 -95 116 -61 20 14 25 13 57 -6 35 -21 46 -42 26 -54
-6 -3 -74 1 -153 10 -228 26 -202 16 -215 89 -7 35 -12 80 -12 100 0 34 2 37
23 31 12 -3 51 -21 87 -38z m925 13 c-3 -5 -13 -7 -23 -4 -15 4 -15 4 -1 -7
13 -10 -12 -26 -149 -96 -90 -46 -167 -82 -170 -79 -7 8 -17 2 167 109 146 85
194 106 176 77z m94 -62 c0 -18 -6 -51 -13 -73 l-12 -40 -164 -16 c-162 -17
-180 -17 -180 1 0 17 61 43 73 31 6 -6 28 -11 49 -11 42 0 78 30 78 65 0 16
12 26 53 42 50 21 79 29 105 32 7 1 12 -11 11 -31z m-897 -31 c41 -28 46 -47
14 -47 -29 0 -56 24 -56 51 0 24 2 24 42 -4z m708 -33 c0 -14 -39 -34 -66 -34
-43 0 -44 14 -1 27 28 9 67 13 67 7z m525 -93 c-3 -6 -11 -8 -17 -5 -6 4 -5 9
3 15 16 10 23 4 14 -10z m-1960 -46 c61 -3 66 -5 59 -17 -4 -7 -3 -8 5 -4 6 4
17 3 24 -2 7 -6 26 -13 42 -16 17 -3 57 -12 90 -21 33 -8 81 -15 107 -15 31 0
52 -6 64 -17 16 -17 16 -18 -7 -24 -23 -6 -23 -6 6 -10 22 -3 31 -10 33 -27 4
-26 13 -27 -166 19 -61 16 -136 40 -165 53 -53 25 -178 103 -142 90 11 -4 34
-8 50 -9z m2070 -31 c-106 -69 -186 -111 -230 -122 -102 -25 -93 -28 -93 27
-1 56 0 57 87 67 32 3 108 21 168 39 59 18 115 33 123 34 8 0 -16 -20 -55 -45z
m-361 -622 c8 -38 26 -95 40 -128 l25 -59 -6 114 c-5 96 -4 113 8 109 8 -3 34
-14 59 -24 25 -10 77 -39 115 -64 39 -26 86 -55 105 -65 l35 -18 -20 24 -20
23 31 -22 c58 -40 60 -47 21 -94 -20 -24 -101 -105 -181 -181 l-146 -138 -47
5 c-27 2 -100 5 -164 5 l-117 1 -46 68 c-25 37 -46 77 -46 90 0 12 16 54 35
92 19 39 33 70 31 70 -2 0 -20 -29 -40 -64 -48 -85 -47 -117 4 -190 22 -31 40
-59 40 -61 0 -3 -17 -5 -37 -5 -21 -1 -94 -11 -163 -24 -69 -13 -126 -23 -127
-22 -9 8 76 168 199 373 145 243 268 411 290 397 11 -7 39 27 31 39 -2 4 -9 4
-16 0 -6 -3 4 14 23 40 18 25 36 44 40 42 4 -3 8 1 7 8 0 6 1 21 3 32 2 11 7
-53 11 -143 5 -89 15 -193 23 -230z m-180 312 c-15 -19 -31 -34 -38 -33 -7 0
-7 2 1 5 7 3 9 13 6 22 -3 9 -3 14 2 10 12 -11 35 11 28 28 -4 10 0 12 11 8
13 -5 12 -11 -10 -40z m-695 -378 c89 -81 111 -91 211 -90 87 0 160 22 202 60
9 9 22 13 29 8 7 -4 10 -3 7 2 -3 5 5 17 18 27 29 21 31 14 6 -21 -41 -59
-171 -302 -207 -387 -21 -49 -41 -94 -45 -98 -7 -8 -188 -12 -195 -5 -2 2 -17
73 -35 158 -46 222 -70 400 -55 400 3 0 32 -24 64 -54z m1327 -52 c8 3 11 0 7
-10 -3 -7 -8 -14 -11 -14 -9 0 -42 33 -42 42 0 5 7 2 16 -7 9 -9 23 -14 30
-11z m650 -111 c-8 -15 -15 -25 -16 -21 0 12 23 58 27 54 3 -2 -2 -17 -11 -33z
m-3032 -327 c27 -41 32 -56 17 -56 -5 0 -22 20 -38 45 -15 25 -31 45 -35 45
-5 0 -8 9 -8 20 0 20 1 20 19 3 10 -10 30 -36 45 -57z m2565 -140 c-7 -20 -17
-36 -21 -36 -11 0 -10 8 8 46 21 44 30 37 13 -10z m-68 -193 c-17 -32 -20 -34
-21 -15 0 25 32 81 38 64 2 -6 -6 -28 -17 -49z m-51 -20 c-11 -17 -11 -17 -6
0 3 10 6 24 7 30 0 9 2 9 5 0 3 -7 0 -20 -6 -30z m-45 -150 c-9 -15 -14 -20
-11 -10 4 11 9 31 13 45 5 19 8 22 11 10 2 -9 -4 -29 -13 -45z m-25 -70 c-11
-17 -11 -17 -6 0 3 10 6 24 7 30 0 9 2 9 5 0 3 -7 0 -20 -6 -30z m160 -17 c0
-2 -8 -10 -17 -17 -16 -13 -17 -12 -4 4 13 16 21 21 21 13z m-46 -68 c-6 -20
-5 -21 10 -9 9 8 19 11 23 8 10 -10 -18 -37 -38 -37 -14 0 -18 6 -15 23 3 12
5 25 5 30 1 4 6 7 12 7 6 0 8 -9 3 -22z m66 -43 c18 11 54 12 62 1 9 -13 -2
-36 -17 -36 -7 0 -15 -9 -18 -20 -3 -12 -14 -20 -27 -20 -14 0 -19 4 -14 13 5
8 2 8 -9 -2 -13 -11 -17 -11 -17 -1 0 8 -2 11 -5 8 -11 -10 7 -37 21 -31 8 3
14 3 14 0 0 -3 -7 -7 -14 -10 -17 -7 -61 56 -53 76 3 7 6 5 6 -5 1 -10 6 -18
12 -18 6 0 8 7 5 16 -7 20 25 49 35 32 4 -6 12 -7 19 -3z m-187 -57 c3 -10 1
-16 -3 -13 -5 3 -10 -1 -13 -7 -4 -10 -7 -11 -18 0 -11 10 -11 12 0 12 7 0 11
6 8 13 -3 8 1 14 8 14 8 0 16 -9 18 -19z m57 6 c0 -8 -5 -12 -10 -9 -6 4 -8
11 -5 16 9 14 15 11 15 -7z m90 -92 c0 -3 -7 3 -15 14 -15 18 -16 17 -10 -11
3 -21 -1 -39 -15 -60 -14 -21 -20 -25 -20 -13 0 9 5 20 10 23 6 4 8 10 5 15
-3 5 -1 28 6 50 l12 40 14 -26 c7 -15 13 -29 13 -32z m237 36 c-3 -8 -6 -5 -6
6 -1 11 2 17 5 13 3 -3 4 -12 1 -19z m-337 -19 c0 -6 -4 -7 -10 -4 -5 3 -10
11 -10 16 0 6 5 7 10 4 6 -3 10 -11 10 -16z m-21 -34 c0 -5 -4 -3 -9 5 -5 8
-9 22 -9 30 0 16 17 -16 18 -35z m348 -2 c-3 -10 -5 -4 -5 12 0 17 2 24 5 18
2 -7 2 -21 0 -30z m100 -205 c-3 -8 -6 -5 -6 6 -1 11 2 17 5 13 3 -3 4 -12 1
-19z m-407 -87 c-6 -12 -10 -27 -9 -34 3 -18 -19 -67 -31 -67 -5 0 -10 -7 -10
-16 0 -10 -6 -14 -14 -11 -16 6 -32 -26 -27 -52 1 -7 -2 -10 -8 -6 -6 3 -12 1
-12 -4 -3 -20 -5 -26 -16 -47 -9 -16 -9 -27 3 -48 18 -36 19 -33 -16 -38 -25
-4 -30 -2 -25 11 5 13 4 13 -6 4 -15 -15 4 -43 30 -44 9 0 26 -13 39 -29 l22
-28 -58 34 -59 35 66 133 c36 74 68 130 71 126 3 -5 6 8 6 29 1 21 7 47 13 57
10 16 10 15 5 -8 -9 -38 9 -35 24 4 6 17 14 29 18 26 3 -4 1 -16 -6 -27z m630
-231 c-6 -11 -13 -20 -16 -20 -2 0 0 9 6 20 6 11 13 20 16 20 2 0 0 -9 -6 -20z
m-740 -20 c0 -5 -5 -10 -11 -10 -5 0 -7 5 -4 10 3 6 8 10 11 10 2 0 4 -4 4
-10z"/>
<path d="M3074 3468 l-19 -23 23 19 c21 18 27 26 19 26 -2 0 -12 -10 -23 -22z"/>
<path d="M3000 3420 c0 -5 7 -10 16 -10 8 0 12 5 9 10 -3 6 -10 10 -16 10 -5
0 -9 -4 -9 -10z"/>
<path d="M1460 3500 c0 -5 7 -10 15 -10 8 0 15 5 15 10 0 6 -7 10 -15 10 -8 0
-15 -4 -15 -10z"/>
<path d="M1355 2851 c-38 -6 -37 -7 30 -14 39 -5 92 -15 119 -24 48 -15 48
-15 72 10 13 15 24 27 24 29 0 6 -207 6 -245 -1z"/>
<path d="M1945 2849 c7 -10 225 -9 265 1 24 6 -13 8 -117 7 -83 -1 -150 -4
-148 -8z"/>
<path d="M1792 2721 c2 -50 0 -91 -4 -91 -5 0 -8 37 -9 83 0 80 0 81 -17 57
-9 -14 -34 -44 -54 -66 -21 -23 -38 -51 -38 -63 0 -23 83 -90 113 -91 10 0 39
21 65 46 l47 45 -45 -7 c-39 -6 -43 -5 -32 9 8 10 11 39 8 88 -3 60 -7 75 -20
77 -16 3 -17 -6 -14 -87z"/>
<path d="M1780 2496 c-59 -12 -80 -22 -80 -36 0 -5 14 -1 32 7 20 11 60 17
110 17 65 1 75 3 61 14 -20 15 -50 14 -123 -2z"/>
<path d="M1773 2370 c-23 -9 -31 -34 -14 -45 5 -3 13 0 17 6 4 7 21 9 45 5 37
-6 38 -5 30 16 -9 25 -42 33 -78 18z"/>
<path d="M988 2783 c7 -3 16 -2 19 1 4 3 -2 6 -13 5 -11 0 -14 -3 -6 -6z"/>
<path d="M2377 2530 c-3 -11 -3 -20 -1 -20 2 0 8 9 14 20 6 11 7 20 2 20 -6 0
-12 -9 -15 -20z"/>
<path d="M2346 2502 c-3 -5 1 -9 9 -9 8 0 12 4 9 9 -3 4 -7 8 -9 8 -2 0 -6 -4
-9 -8z"/>
<path d="M2387 2503 c-4 -3 -7 -11 -7 -17 0 -6 5 -5 12 2 6 6 9 14 7 17 -3 3
-9 2 -12 -2z"/>
<path d="M2288 2425 c-3 -6 0 -15 7 -22 10 -10 14 -9 19 3 3 8 2 13 -3 9 -5
-3 -11 0 -13 7 -3 7 -7 8 -10 3z"/>
<path d="M3016 962 c-2 -4 -1 -14 3 -21 6 -9 10 -7 14 8 5 20 -7 29 -17 13z"/>
<path d="M537 3593 c-3 -5 -8 -37 -11 -73 -4 -36 -9 -78 -12 -95 -4 -24 1 -20
26 25 17 30 32 63 33 72 1 9 4 15 8 12 8 -4 39 40 39 56 0 14 -43 13 -59 -2
-11 -10 -13 -10 -7 0 8 13 -10 18 -17 5z"/>
<path d="M695 3590 c-3 -5 -3 -10 1 -10 4 0 -1 -6 -12 -14 -10 -8 -19 -23 -19
-33 0 -10 -6 -18 -14 -18 -7 0 -21 -11 -30 -25 -15 -24 -15 -24 2 -11 9 7 17
10 17 5 0 -4 11 3 24 15 14 13 23 31 21 42 -2 11 0 17 4 15 4 -3 29 6 56 19
l48 25 -46 0 c-25 0 -49 -4 -52 -10z"/>
<path d="M1147 3548 c-9 -29 -14 -54 -12 -57 3 -2 6 -2 8 0 1 2 19 25 40 51
20 25 37 49 37 52 0 3 -13 6 -28 6 -25 0 -30 -6 -45 -52z"/>
<path d="M2426 3586 c3 -7 11 -49 18 -92 l12 -79 12 66 c19 106 17 119 -18
119 -21 0 -28 -4 -24 -14z"/>
<path d="M2630 3592 c0 -9 23 -61 41 -95 12 -23 2 -38 -11 -17 -15 23 -12 3 6
-38 8 -20 24 -75 35 -122 12 -53 17 -66 13 -35 -3 28 -5 77 -5 110 1 33 -1 93
-5 133 l-6 72 -34 0 c-19 0 -34 -4 -34 -8z m58 -167 c-3 -3 -9 2 -12 12 -6 14
-5 15 5 6 7 -7 10 -15 7 -18z"/>
<path d="M2716 3570 c8 -43 14 -51 14 -19 0 13 -5 31 -10 39 -7 11 -8 5 -4
-20z"/>
<path d="M2756 3586 c3 -9 11 -16 16 -16 13 0 5 23 -10 28 -7 2 -10 -2 -6 -12z"/>
<path d="M2797 3558 c4 -43 4 -43 -12 -18 l-16 25 7 -30 c4 -16 10 -70 13
-119 l6 -90 42 90 c23 49 44 98 46 109 16 63 17 75 7 75 -6 0 -8 -6 -4 -12 6
-10 4 -10 -7 0 -7 6 -30 12 -50 12 l-37 0 5 -42z m60 10 c-3 -8 -6 -5 -6 6 -1
11 2 17 5 13 3 -3 4 -12 1 -19z m-34 -155 c-3 -7 -6 -13 -8 -13 -2 0 -5 6 -8
13 -3 8 1 14 8 14 7 0 11 -6 8 -14z"/>
<path d="M3463 3583 c-3 -8 2 -22 11 -32 9 -10 16 -22 15 -27 -1 -5 -1 -17 0
-26 3 -51 111 21 111 74 l0 29 -66 -2 c-45 -2 -68 -7 -71 -16z"/>
<path d="M747 3563 c-10 -9 -9 -23 2 -23 5 0 11 7 15 15 5 15 -5 20 -17 8z"/>
<path d="M700 3539 c-12 -8 -9 -9 10 -5 l25 6 -23 -12 c-13 -6 -21 -17 -18
-24 3 -7 -3 -18 -12 -26 -15 -12 -16 -11 -3 5 22 27 -1 20 -37 -12 -17 -17
-32 -25 -32 -19 0 16 -11 3 -14 -15 -1 -8 -7 -21 -13 -29 -7 -7 -21 -36 -33
-63 -21 -48 -21 -49 -1 -31 11 10 18 23 14 29 -3 5 -1 7 4 4 13 -8 46 27 36
38 -5 4 -3 5 4 1 7 -4 21 6 34 24 13 16 30 30 38 30 14 0 14 1 1 10 -12 8 -11
10 7 10 23 0 37 15 38 40 0 8 11 17 25 18 22 4 23 2 10 -14 -14 -16 -13 -16 5
-6 11 6 27 16 35 22 12 9 11 10 -5 6 -11 -3 -33 1 -49 9 -33 18 -28 17 -46 4z
m-45 -89 c3 -5 1 -10 -4 -10 -6 0 -11 5 -11 10 0 6 2 10 4 10 3 0 8 -4 11 -10z
m-21 -28 c3 -5 -1 -9 -9 -9 -8 0 -12 4 -9 9 3 4 7 8 9 8 2 0 6 -4 9 -8z"/>
<path d="M2727 3461 c-4 -29 -6 -56 -2 -59 11 -12 16 8 13 59 l-3 54 -8 -54z"/>
<path d="M3578 3413 c-7 -16 -18 -35 -25 -43 -14 -18 -73 -131 -73 -142 0 -5
5 -7 12 -5 16 3 26 -50 16 -93 -10 -48 -10 -118 1 -124 5 -4 12 0 14 6 3 7 6
3 6 -9 1 -30 14 -29 31 2 7 14 19 25 27 25 10 0 13 41 13 205 0 113 -2 205 -5
205 -3 0 -11 -12 -17 -27z"/>
<path d="M2722 3350 c0 -19 2 -27 5 -17 2 9 2 25 0 35 -3 9 -5 1 -5 -18z"/>
<path d="M360 3181 c0 -17 12 -41 21 -41 5 0 9 11 9 25 0 16 -6 25 -15 25 -8
0 -15 -4 -15 -9z"/>
<path d="M2492 2635 c0 -16 2 -22 5 -12 2 9 2 23 0 30 -3 6 -5 -1 -5 -18z"/>
<path d="M1073 2124 c-18 -9 -33 -21 -33 -26 0 -8 35 8 70 31 23 16 -1 12 -37
-5z"/>
<path d="M582 2118 c-7 -7 -35 -11 -66 -9 -58 3 -105 -17 -246 -100 l-66 -39
-54 21 c-66 25 -87 20 -123 -30 l-27 -39 0 -386 c0 -283 3 -385 11 -383 7 1
13 -17 15 -48 2 -29 0 -44 -5 -37 -17 29 -22 -46 -21 -359 1 -281 3 -320 17
-315 8 3 17 6 20 6 4 0 -2 9 -12 20 -22 24 -12 39 15 22 17 -10 23 -9 40 8 11
11 25 20 31 20 5 0 8 4 4 9 -5 9 16 36 34 43 5 1 12 32 14 68 3 35 10 66 16
68 13 4 34 -16 44 -40 6 -16 9 -16 43 4 l36 21 -23 13 c-13 7 -32 11 -41 8
-12 -3 -18 0 -18 10 0 10 12 16 36 18 33 3 34 4 20 23 -14 17 -17 18 -26 5 -9
-12 -10 -10 -5 9 5 16 4 21 -4 17 -6 -4 -19 -3 -28 3 -15 8 -13 9 9 7 17 -2
49 -23 84 -57 31 -30 62 -60 70 -67 8 -7 14 -20 14 -28 0 -8 3 -13 8 -13 20 3
33 -5 75 -45 37 -37 46 -42 51 -28 3 9 9 23 12 30 4 7 0 10 -9 6 -9 -3 -16 3
-20 18 -3 13 -25 102 -50 198 -85 328 -92 380 -92 680 1 236 7 337 32 485 l6
40 -57 -52 c-37 -32 -64 -50 -75 -46 -11 3 -12 2 -3 -4 9 -7 6 -15 -15 -34
-20 -18 -23 -19 -13 -4 14 18 14 19 -2 6 -10 -7 -16 -17 -13 -21 2 -4 -11 -21
-29 -39 -21 -21 -33 -27 -33 -17 0 8 3 14 6 12 3 -2 11 2 18 9 16 17 -9 29
-26 12 -6 -6 -12 -8 -12 -4 -3 14 -7 27 -9 30 -1 1 -4 12 -5 25 -3 30 30 49
43 26 6 -10 12 -12 16 -6 3 5 -1 15 -9 22 -11 9 -20 8 -44 -6 -22 -13 -27 -21
-18 -27 8 -6 7 -7 -4 -4 -9 3 -21 1 -26 -4 -6 -6 -10 -4 -10 6 0 8 2 13 5 10
2 -2 24 11 47 31 42 34 62 39 78 19 5 -6 7 -4 4 5 -2 8 -11 14 -18 12 -27 -5
35 35 148 98 151 83 259 99 172 25 -33 -27 -52 -27 -29 0 10 12 10 15 -3 15
-15 0 -27 -28 -27 -68 0 -14 4 -21 11 -17 6 4 16 -1 24 -11 16 -22 27 -14 31
20 2 19 -1 24 -14 19 -9 -3 7 19 37 50 30 31 53 59 50 62 -3 2 -11 -1 -17 -7z
m-428 -152 l29 -12 -36 -27 c-20 -15 -39 -27 -43 -26 -4 0 -11 -5 -15 -13 -7
-10 -9 -10 -9 3 0 8 5 20 10 25 7 7 4 17 -11 30 -22 19 -22 19 -17 -3 4 -13 1
-26 -4 -30 -7 -4 -8 -1 -3 7 5 8 3 11 -6 8 -8 -3 -13 -12 -13 -20 1 -8 -5 -15
-12 -15 -20 0 -18 5 22 54 38 46 39 46 108 19z m-94 -1496 c0 -5 -4 -10 -10
-10 -5 0 -10 5 -10 10 0 6 5 10 10 10 6 0 10 -4 10 -10z"/>
<path d="M98 1963 c7 -3 16 -2 19 1 4 3 -2 6 -13 5 -11 0 -14 -3 -6 -6z"/>
<path d="M881 1971 c-11 -7 -26 -61 -16 -61 1 0 15 16 29 35 26 34 19 46 -13
26z"/>
<path d="M165 1830 c-3 -6 1 -7 9 -4 18 7 21 14 7 14 -6 0 -13 -4 -16 -10z"/>
<path d="M701 1743 c-1 -23 4 -33 14 -33 12 0 13 5 7 18 -5 9 -12 24 -15 32
-3 8 -6 0 -6 -17z"/>
<path d="M380 1702 c0 -29 5 -52 10 -52 11 0 9 85 -3 96 -4 4 -7 -16 -7 -44z"/>
<path d="M1505 1690 c3 -5 8 -10 11 -10 2 0 4 5 4 10 0 6 -5 10 -11 10 -5 0
-7 -4 -4 -10z"/>
<path d="M371 1486 c1 -86 4 -131 9 -116 7 21 8 22 10 5 l1 -20 8 20 c4 11 7
34 6 50 -1 17 -4 64 -5 105 -2 57 -4 68 -10 45 l-8 -30 -1 33 c0 17 4 32 9 32
6 0 10 4 10 8 0 5 -7 9 -15 9 -13 0 -15 -22 -14 -141z"/>
<path d="M2592 640 c-9 -16 -20 -30 -24 -30 -4 0 -12 -8 -17 -18 -7 -14 -6
-19 4 -19 8 0 12 4 9 8 -2 4 8 20 22 34 19 19 29 23 34 15 4 -7 8 -1 8 14 0
35 -15 33 -36 -4z"/>
<path d="M540 628 c0 -8 7 -21 15 -28 19 -16 19 -1 0 24 -12 16 -15 17 -15 4z"/>
<path d="M561 559 c-1 -9 5 -21 12 -27 10 -8 13 -6 13 8 0 10 -3 17 -7 14 -4
-2 -10 2 -12 8 -4 9 -6 7 -6 -3z"/>
<path d="M180 535 c0 -14 5 -25 10 -25 6 0 10 11 10 25 0 14 -4 25 -10 25 -5
0 -10 -11 -10 -25z"/>
<path d="M2481 519 c-13 -10 -18 -19 -11 -19 12 0 45 29 39 35 -2 2 -15 -5
-28 -16z"/>
<path d="M644 419 c1 -7 12 -16 24 -20 20 -8 21 -7 11 13 -8 15 -13 17 -19 8
-5 -9 -9 -9 -13 -1 -4 8 -5 8 -3 0z"/>
<path d="M2390 419 c0 -5 -5 -7 -12 -3 -7 4 -8 3 -4 -4 4 -6 13 -9 21 -6 8 4
12 10 9 15 -7 12 -14 11 -14 -2z"/>
<path d="M2348 378 c-10 -10 -14 -18 -9 -18 10 0 36 29 30 34 -2 1 -12 -6 -21
-16z"/>
<path d="M660 381 c0 -6 4 -13 10 -16 6 -3 7 1 4 9 -7 18 -14 21 -14 7z"/>
<path d="M690 372 c0 -5 7 -15 15 -22 8 -7 15 -8 15 -2 0 5 -7 15 -15 22 -8 7
-15 8 -15 2z"/>
<path d="M2305 329 c-4 -6 -5 -12 -2 -15 2 -3 7 2 10 11 7 17 1 20 -8 4z"/>
<path d="M740 295 c0 -5 5 -17 10 -25 5 -8 10 -10 10 -5 0 6 -5 17 -10 25 -5
8 -10 11 -10 5z"/>
<path d="M2238 277 c-22 -17 -26 -25 -18 -37 9 -12 10 -12 8 5 -2 11 2 19 8
18 5 -1 15 7 22 18 15 24 13 24 -20 -4z"/>
<path d="M787 249 c21 -44 20 -43 27 -24 3 9 2 13 -4 10 -6 -3 -10 0 -10 8 0
8 -7 20 -15 27 -12 10 -11 6 2 -21z"/>
<path d="M2131 175 c-23 -25 -45 -45 -50 -45 -14 0 -41 -36 -34 -45 5 -4 2 -5
-5 -1 -7 4 -15 1 -18 -8 -3 -9 -12 -16 -18 -16 -7 0 -25 -13 -41 -30 l-28 -30
79 2 c43 0 85 3 92 6 16 6 15 19 -2 25 -10 4 -13 1 -9 -9 8 -22 -5 -17 -18 7
-9 17 -8 23 2 30 8 5 17 3 21 -4 6 -9 8 -9 8 0 0 6 -4 14 -9 17 -14 9 0 58 15
52 9 -3 11 0 7 12 -6 15 -5 16 12 2 16 -14 17 -13 11 6 -5 15 -2 24 10 28 9 4
14 9 11 13 -4 3 1 12 11 19 9 7 12 14 6 14 -6 0 -30 -20 -53 -45z m-46 -95 c3
-5 -1 -10 -10 -10 -9 0 -13 5 -10 10 3 6 8 10 10 10 2 0 7 -4 10 -10z"/>
<path d="M2150 110 c-12 -7 -10 -9 7 -7 12 0 19 5 17 9 -6 10 -6 10 -24 -2z"/>
<path d="M2635 54 c-39 -19 -60 -24 -94 -19 -42 5 -71 -6 -71 -26 0 -5 60 -9
133 -9 103 0 138 3 153 15 19 15 18 16 -9 40 -34 30 -48 30 -112 -1z"/>
<path d="M968 52 c-3 -11 0 -19 7 -19 7 0 12 6 11 13 -3 23 -13 26 -18 6z"/>
<path d="M2131 56 c-8 -10 -9 -16 -1 -21 6 -4 9 -1 8 7 -2 7 3 12 10 10 8 -1
11 2 7 8 -8 13 -10 13 -24 -4z"/>
<path d="M2307 23 c-16 -15 -4 -23 36 -23 39 1 41 2 23 15 -21 16 -48 20 -59
8z"/>
</g>
</svg>
