<?xml version="1.0" standalone="no"?>
<!DOCTYPE svg PUBLIC "-//W3C//DTD SVG 20010904//EN"
 "http://www.w3.org/TR/2001/REC-SVG-20010904/DTD/svg10.dtd">
<svg version="1.0" xmlns="http://www.w3.org/2000/svg"
 width="360.000000pt" height="360.000000pt" viewBox="0 0 360.000000 360.000000"
 preserveAspectRatio="xMidYMid meet">

<g transform="translate(0.000000,360.000000) scale(0.100000,-0.100000)"
fill="#000000" stroke="none">
<path d="M1529 3540 c80 -59 98 -70 86 -50 -9 14 -146 110 -157 110 -6 0 27
-27 71 -60z"/>
<path d="M1590 3591 c0 -5 7 -26 16 -47 31 -73 28 -82 -29 -100 -31 -10 -105
-18 -183 -21 -138 -6 -201 5 -286 48 l-38 19 21 -52 c82 -211 158 -335 234
-386 28 -19 51 -40 53 -47 2 -8 -14 -23 -35 -34 -44 -22 -100 -75 -109 -103
-3 -10 -37 -37 -75 -59 -48 -29 -77 -54 -92 -80 -12 -22 -30 -42 -40 -45 -9
-3 -37 -20 -61 -39 l-43 -33 -54 19 c-72 25 -96 23 -149 -7 -55 -32 -68 -35
-150 -36 -100 -1 -110 4 -108 60 2 93 -2 109 -31 141 -39 42 -74 41 -115 -3
-29 -30 -34 -32 -51 -20 -42 31 -80 17 -171 -65 -27 -25 -60 -54 -72 -63 -21
-17 -21 -18 -5 -63 16 -42 16 -47 0 -74 -23 -39 -22 -45 13 -84 25 -29 30 -43
30 -86 0 -49 1 -52 30 -57 24 -5 31 -13 36 -41 8 -45 41 -67 79 -53 31 12 162
8 280 -8 170 -24 306 -34 352 -28 55 9 133 42 182 80 19 14 47 26 62 26 35 0
140 33 240 75 l80 33 59 -88 c49 -73 60 -97 60 -130 0 -49 11 -72 61 -127 l38
-41 -22 -67 -22 -67 32 -28 c31 -28 31 -29 11 -36 -16 -5 -29 4 -62 42 -82 97
-80 96 -140 89 -88 -11 -246 20 -316 62 l-58 34 -60 -30 c-49 -25 -65 -29 -90
-22 -17 5 -92 19 -166 32 -130 21 -137 21 -181 5 -50 -20 -275 -180 -359 -257
-64 -58 -76 -88 -106 -264 -25 -144 -35 -263 -26 -299 3 -14 33 -54 65 -88
l59 -63 -13 -86 c-7 -47 -18 -102 -25 -123 -24 -73 2 -102 168 -193 l83 -45
-7 -42 c-18 -93 -4 -122 70 -150 55 -21 68 -49 110 -233 l32 -138 282 -2 c216
-2 282 1 282 10 0 7 7 125 15 262 l16 250 74 70 c76 71 87 94 65 135 -7 13 -5
30 8 59 l19 41 169 -136 c93 -75 182 -145 199 -155 36 -22 62 -17 91 19 l22
27 -14 -70 c-22 -114 -19 -139 21 -183 l34 -39 -10 -64 c-5 -35 -19 -96 -30
-136 -12 -39 -19 -77 -16 -85 6 -16 6 -14 36 92 11 41 23 98 27 127 5 38 10
50 20 46 17 -6 10 -114 -12 -206 -8 -32 -14 -61 -14 -63 0 -2 112 -4 249 -4
l249 0 17 70 c10 39 15 80 12 91 -4 16 -3 18 8 9 11 -9 11 -21 -1 -73 -8 -34
-17 -70 -20 -80 -5 -16 11 -17 267 -15 l273 3 18 70 c10 39 17 77 16 85 -2 8
21 53 49 100 79 131 103 198 112 309 5 53 9 78 11 56 3 -48 3 -37 -3 -113 -4
-38 -2 -60 4 -57 5 4 68 -44 139 -105 142 -122 141 -120 120 -215 -7 -34 -8
-30 -5 25 5 70 -7 107 -25 80 -6 -10 -10 -11 -10 -2 0 6 1 13 2 15 5 6 -37 45
-44 41 -5 -3 -4 -12 2 -19 8 -9 6 -14 -6 -19 -10 -4 -21 -1 -26 6 -4 7 -8 9
-8 3 0 -5 -8 -1 -16 10 -11 14 -18 16 -21 8 -3 -7 -9 -13 -15 -13 -6 0 -5 6 2
15 7 9 19 14 27 11 7 -3 13 -1 13 5 0 6 4 8 9 4 5 -3 13 0 16 6 8 13 -24 39
-41 32 -7 -2 -15 1 -19 7 -5 7 -11 8 -19 1 -8 -7 -12 -4 -13 12 -2 17 0 19 7
7 5 -8 10 -11 10 -6 0 5 7 3 15 -4 9 -7 18 -10 21 -7 3 3 -11 17 -31 32 -19
15 -38 25 -42 21 -4 -3 -20 6 -36 21 -22 20 -28 23 -24 10 4 -10 3 -16 -2 -12
-11 6 -25 -50 -16 -65 4 -6 1 -9 -6 -8 -6 2 -14 -3 -17 -11 -2 -8 -1 -11 4 -8
5 3 9 -16 9 -42 1 -38 -2 -47 -17 -47 -16 0 -16 2 -2 18 12 12 14 24 7 43 l-9
27 -19 -36 c-11 -20 -23 -36 -28 -36 -4 0 -2 -10 4 -22 11 -21 11 -22 -4 -9
-20 16 -23 1 -4 -18 10 -10 8 -11 -7 -5 -14 5 -17 4 -12 -5 4 -7 2 -10 -5 -9
-7 2 -14 -8 -15 -23 -1 -14 -10 -53 -18 -86 -9 -34 -16 -66 -16 -72 0 -8 69
-11 230 -11 l230 0 0 33 c0 17 5 69 12 115 l11 83 -41 42 c-32 33 -44 55 -55
104 -13 56 -12 68 5 135 10 40 21 98 25 129 5 55 5 56 -40 107 -32 36 -52 71
-66 116 -31 101 -34 128 -17 207 8 41 18 119 22 174 4 55 12 111 19 125 7 14
16 77 20 140 6 98 12 124 36 172 16 31 36 85 46 120 14 52 30 79 94 154 77 92
100 138 114 230 l6 42 -68 37 c-37 21 -93 62 -124 92 -53 52 -56 58 -52 93 5
33 2 40 -21 55 -14 10 -26 23 -26 31 0 7 -27 49 -60 93 l-61 80 16 32 c15 28
15 32 0 49 -9 10 -30 24 -46 30 -16 7 -29 13 -29 14 0 0 -9 48 -20 105 -11 58
-17 108 -13 112 5 4 44 22 88 39 144 58 144 54 0 60 l-130 5 75 27 c88 32 193
78 188 84 -2 2 -53 -16 -114 -40 -168 -68 -168 -68 -87 12 82 80 128 147 184
269 21 47 39 87 39 89 0 2 -27 4 -60 4 -53 0 -73 -7 -177 -60 -133 -67 -208
-97 -197 -77 4 7 27 40 51 74 l44 62 -706 1 c-393 0 -705 -4 -705 -9z m653
-463 c12 10 16 8 21 -10 13 -52 -4 -188 -24 -188 -11 0 -70 -81 -69 -94 0 -6
3 -5 6 2 2 6 11 12 18 12 7 0 16 7 19 16 4 9 9 15 11 12 3 -3 -2 -22 -10 -43
-9 -20 -14 -39 -12 -42 3 -2 33 10 67 27 34 17 64 30 66 28 2 -2 -30 -21 -72
-41 -61 -31 -76 -34 -80 -22 -12 30 -34 16 -34 -21 0 -23 -4 -33 -11 -28 -7 4
-9 21 -5 43 4 25 2 31 -4 21 -5 -8 -10 -26 -11 -40 -1 -16 -4 -11 -8 14 -6 39
-31 64 -31 31 0 -11 -17 2 -47 35 -87 96 -86 85 -9 157 90 83 187 148 197 132
6 -10 11 -10 22 -1z m567 -96 c0 -8 -9 -55 -21 -104 -26 -110 -52 -140 -174
-198 -47 -22 -85 -44 -85 -49 0 -4 -17 -34 -38 -67 -31 -48 -58 -72 -141 -127
-111 -75 -150 -92 -184 -83 -28 7 -233 189 -234 208 -1 7 -4 36 -8 65 l-7 52
44 -14 c23 -7 51 -16 61 -20 9 -4 17 -3 17 2 0 5 -35 20 -77 33 -77 25 -78 26
-81 60 l-2 35 15 -26 c8 -15 25 -29 39 -33 13 -3 32 -9 42 -13 11 -4 15 -3 11
5 -4 6 -21 13 -38 17 -34 8 -54 44 -44 82 9 39 31 25 64 -40 12 -25 23 -33 48
-35 19 -2 39 -12 47 -23 13 -19 14 -18 22 18 l8 38 5 -45 c4 -25 2 -47 -2 -48
-4 -2 -3 -10 4 -18 13 -16 55 -19 64 -4 4 6 3 10 -2 9 -4 -1 -17 0 -28 1 -17
2 -16 3 5 9 21 6 25 13 23 42 l-2 34 13 -30 c16 -34 42 -39 69 -12 10 10 24
17 30 14 52 -19 56 -18 96 22 47 48 76 55 61 16 -10 -27 -2 -33 18 -13 8 8 12
9 12 1 0 -20 -30 -43 -56 -43 -13 0 -24 -4 -24 -8 0 -5 14 -7 31 -4 22 3 37
15 55 43 13 21 41 47 61 58 46 23 84 62 116 119 13 23 48 60 77 82 50 38 55
39 72 23 10 -9 18 -23 18 -31z m293 -153 c17 -104 19 -133 9 -137 -7 -2 -54
-33 -105 -70 -259 -184 -503 -427 -652 -647 -26 -38 -44 -59 -40 -46 6 18 4
22 -6 16 -8 -5 -11 -5 -7 -1 3 4 9 6 11 4 6 -4 47 47 47 57 0 4 -8 1 -17 -6
-16 -13 -17 -12 -5 3 8 10 19 16 24 15 6 -1 13 4 15 11 3 7 1 12 -4 11 -16 -4
-43 13 -37 23 4 6 10 5 15 -3 4 -8 14 -14 21 -14 18 -1 49 35 42 47 -4 6 -10
5 -15 -3 -5 -8 -9 -9 -9 -4 0 6 5 16 11 22 8 8 8 17 -1 33 -13 25 -17 23 -53
-42 -17 -28 -23 -49 -17 -53 5 -3 10 -12 10 -18 0 -7 -4 -6 -10 3 -11 18 -30
3 -33 -27 0 -12 -6 -19 -13 -16 -13 5 15 57 116 218 130 208 216 295 501 508
64 48 124 98 133 112 9 14 25 25 36 25 11 0 20 5 20 10 0 6 -8 10 -19 10 -14
0 -22 12 -30 47 -11 42 -10 49 5 60 26 19 31 6 57 -148z m-1341 78 c-13 -15
-5 -55 15 -79 8 -9 13 -23 11 -30 -5 -15 -30 19 -52 74 -15 35 -15 37 1 31 12
-5 15 -2 10 9 -7 20 3 32 16 19 7 -7 6 -15 -1 -24z m-402 -3 c0 -3 -6 -29 -14
-57 -8 -29 -17 -68 -20 -88 l-6 -36 -45 4 c-37 5 -54 0 -109 -31 -37 -21 -92
-62 -124 -93 -31 -30 -39 -41 -17 -22 22 18 73 54 114 81 65 42 80 48 128 48
54 0 55 0 49 -27 -17 -86 -25 -183 -16 -212 8 -30 6 -33 -81 -107 -56 -47
-103 -79 -125 -84 -44 -10 -137 2 -159 20 -47 39 -60 129 -25 173 11 14 20 31
20 39 0 28 41 78 79 97 22 12 52 39 68 62 16 25 50 54 82 72 51 29 53 29 47 9
-13 -41 1 -22 33 43 22 45 44 73 69 90 38 24 52 30 52 19z m417 -36 c-3 -7 -5
-2 -5 12 0 14 2 19 5 13 2 -7 2 -19 0 -25z m680 -2 c-5 -13 -107 -73 -107 -63
0 2 23 18 50 35 28 17 50 37 50 43 0 7 3 10 6 6 4 -3 4 -13 1 -21z m498 -62
c19 -19 23 -14 -79 -89 l-79 -58 5 46 c4 33 1 50 -10 61 -19 19 -19 19 48 39
72 20 95 20 115 1z m205 -61 c0 4 10 2 22 -4 l23 -12 -28 -10 c-15 -5 -25 -13
-22 -17 3 -5 -4 -15 -15 -23 -11 -7 -17 -17 -13 -20 3 -4 -4 -7 -17 -7 -20 0
-21 -2 -9 -17 13 -16 12 -17 -3 -5 -19 15 -31 2 -22 -25 4 -11 3 -14 -3 -6 -7
10 -18 11 -52 4 -2 -1 3 -9 10 -18 12 -14 12 -16 0 -8 -11 6 -13 4 -8 -8 4
-11 2 -14 -9 -10 -7 3 -14 10 -14 15 0 6 -6 5 -15 -2 -13 -11 -13 -14 2 -26
20 -15 19 -15 -15 -19 -18 -2 -20 0 -11 11 21 25 -7 15 -37 -13 -16 -16 -38
-33 -49 -39 -11 -6 -19 -16 -17 -23 1 -7 -2 -9 -9 -5 -9 5 -10 2 -6 -10 4 -10
3 -15 -3 -11 -14 9 -52 -14 -44 -27 4 -6 3 -8 -3 -5 -6 4 -18 -2 -27 -12 -15
-17 -16 -20 -2 -28 13 -7 12 -13 -7 -47 -12 -22 -28 -41 -35 -42 -7 -1 -8 0
-2 3 17 8 42 64 36 79 -5 13 -9 12 -30 -1 -14 -9 -23 -22 -20 -30 3 -7 0 -16
-5 -20 -6 -3 -8 -12 -5 -18 5 -8 3 -8 -7 1 -15 14 -33 16 -25 3 3 -5 -4 -12
-17 -16 -13 -4 -17 -8 -9 -12 6 -2 12 -12 11 -21 0 -12 -2 -13 -6 -4 -4 10
-10 9 -25 -5 -11 -10 -22 -17 -24 -15 -2 1 -5 -1 -5 -5 -1 -5 -10 -14 -21 -22
-11 -7 -17 -20 -14 -28 3 -8 2 -12 -3 -9 -14 9 -21 -20 -9 -32 8 -8 4 -10 -14
-7 -32 6 -68 -32 -58 -61 4 -10 4 -29 -1 -41 -11 -29 -19 -30 -11 -1 4 16 2
19 -9 13 -12 -8 -12 -6 0 8 8 10 11 20 8 23 -7 7 -62 -77 -59 -89 1 -5 -2 -6
-7 -3 -5 4 -13 -4 -17 -16 -3 -12 -15 -31 -26 -42 -11 -12 -17 -29 -14 -40 4
-14 2 -16 -7 -7 -27 27 124 232 313 422 156 157 255 240 410 347 84 57 85 59
85 100 0 36 2 40 13 25 6 -9 12 -14 12 -10z m-2780 7 c-24 -8 -24 -8 7 -9 47
-1 63 -31 63 -116 0 -38 -3 -80 -6 -93 -8 -27 -52 -41 -65 -21 -6 10 -1 15 19
19 22 4 28 11 30 37 3 28 -1 33 -23 39 -15 4 -36 2 -48 -3 -20 -9 -23 -6 -38
38 -10 31 -12 55 -6 70 5 15 11 19 15 12 5 -7 21 -8 47 -3 39 7 39 8 8 9 -31
1 -41 10 -26 24 3 4 16 7 27 6 18 -1 18 -2 -4 -9z m2387 -44 c-3 -30 -1 -56 4
-58 5 -2 -19 -25 -52 -53 -34 -27 -108 -98 -164 -157 -57 -60 -106 -108 -109
-108 -3 0 4 21 15 46 11 26 17 49 14 52 -3 3 -15 -17 -27 -46 -20 -47 -25 -51
-62 -57 -23 -3 -54 -9 -71 -12 -26 -5 -19 6 73 105 55 61 115 135 132 165 27
48 38 57 93 81 34 15 82 42 107 61 25 18 47 34 49 34 2 1 1 -23 -2 -53z
m-2503 -7 c27 -21 35 -41 14 -36 -8 1 -11 -10 -10 -33 2 -35 2 -35 -93 -79
-52 -25 -95 -48 -95 -53 0 -12 1 -12 99 37 85 43 129 56 117 36 -3 -5 1 -28 9
-51 8 -23 15 -43 15 -45 0 -1 -46 -23 -102 -50 -55 -27 -97 -50 -91 -52 6 -2
48 14 94 37 45 22 90 40 99 40 18 0 40 -39 40 -70 0 -11 6 -20 13 -20 6 0 -7
-9 -30 -19 -52 -24 -152 -91 -135 -91 7 0 41 18 76 40 35 22 68 40 74 40 14 0
26 -44 19 -70 -3 -11 -1 -20 4 -20 20 0 -6 -31 -44 -53 -69 -40 -132 -46 -95
-9 8 8 8 12 1 12 -6 0 -18 -12 -27 -26 -29 -43 -67 -26 -80 38 -4 18 -16 29
-37 37 -30 10 -31 13 -25 51 5 34 2 44 -25 74 -40 46 -37 78 9 87 19 4 39 12
45 19 9 10 9 12 -3 8 -59 -20 -63 -20 -57 -4 3 8 -1 32 -9 52 -20 47 -13 61
31 70 21 4 32 10 26 13 -7 4 6 23 32 48 71 68 97 76 141 42z m1623 -131 c-3
-7 -5 -2 -5 12 0 14 2 19 5 13 2 -7 2 -19 0 -25z m-1467 2 c0 -16 -7 -20 -35
-20 -23 0 -35 5 -35 13 0 20 10 27 42 27 21 0 28 -5 28 -20z m2870 -83 c0 -6
-9 0 -19 12 -11 12 -22 22 -25 22 -19 -3 -26 0 -26 10 0 8 5 8 15 -1 11 -9 15
-9 15 -1 0 6 -6 14 -13 17 -7 2 -14 14 -14 26 -2 16 7 9 32 -27 19 -27 35 -53
35 -58z m-2412 77 c49 -16 50 -17 39 -43 -6 -14 -17 -34 -25 -43 -7 -9 -16
-35 -19 -57 -3 -23 -11 -41 -17 -41 -7 0 -21 -6 -31 -14 -18 -13 -18 -15 18
-47 20 -18 37 -38 37 -45 0 -7 -12 -26 -26 -43 -21 -25 -31 -30 -58 -27 -31 4
-86 17 -86 20 0 0 4 28 10 60 11 66 -2 182 -25 226 -13 24 -11 26 23 47 44 27
91 29 160 7z m-517 -51 c13 -16 12 -17 -3 -4 -17 13 -22 21 -14 21 2 0 10 -8
17 -17z m2839 2 c-10 -12 -10 -15 0 -15 8 0 11 -3 7 -6 -3 -3 -11 -3 -17 1 -8
5 -8 11 1 21 6 8 14 14 16 14 3 0 0 -7 -7 -15z m-1249 -12 c13 -16 12 -17 -3
-4 -10 7 -18 15 -18 17 0 8 8 3 21 -13z m1094 -3 c-3 -5 -12 -10 -18 -10 -7 0
-6 4 3 10 19 12 23 12 15 0z m-2605 -35 c0 -18 -4 -23 -15 -19 -17 7 -17 7 -9
28 9 24 24 19 24 -9z m1471 -2 c13 -16 12 -17 -3 -4 -10 7 -18 15 -18 17 0 8
8 3 21 -13z m1286 11 c-3 -3 -12 -4 -19 -1 -8 3 -5 6 6 6 11 1 17 -2 13 -5z
m-2724 -24 c3 -11 1 -23 -4 -26 -5 -3 -9 6 -9 20 0 31 6 34 13 6z m1486 -45
c35 -21 96 -65 134 -97 38 -32 77 -58 87 -58 10 0 42 11 73 25 47 22 185 49
196 39 6 -5 -19 -12 -71 -19 -26 -3 -53 -12 -60 -19 -7 -7 -22 -16 -33 -20
-42 -17 3 -15 68 3 37 10 67 17 67 15 0 -2 -40 -70 -88 -151 -48 -82 -108
-183 -132 -225 l-44 -78 -33 20 c-38 22 -93 38 -144 42 -28 1 -35 6 -31 17 3
9 1 12 -7 7 -17 -11 -57 83 -76 182 -20 96 -18 263 3 270 6 2 12 10 12 18 0
18 5 18 35 -2 37 -24 31 0 -10 40 -19 20 -35 41 -35 48 0 8 4 6 13 -4 6 -8 41
-32 76 -53z m61 40 c13 -14 21 -25 18 -25 -2 0 -15 11 -28 25 -13 14 -21 25
-18 25 2 0 15 -11 28 -25z m1000 15 c0 -5 -5 -10 -11 -10 -5 0 -7 5 -4 10 3 6
8 10 11 10 2 0 4 -4 4 -10z m320 -24 c0 -2 -36 -12 -81 -22 -44 -9 -76 -20
-71 -23 6 -3 -13 -6 -41 -7 -48 -1 -44 1 53 26 103 27 140 34 140 26z m-2889
-36 c4 -14 7 -48 8 -76 1 -44 -3 -54 -30 -80 -28 -26 -30 -27 -19 -5 7 13 9
39 6 60 -5 32 -9 103 -7 124 2 19 36 0 42 -23z m1549 4 c0 -2 -9 0 -20 6 -11
6 -20 13 -20 16 0 2 9 0 20 -6 11 -6 20 -13 20 -16z m355 6 c-10 -11 -22 -20
-28 -20 -5 0 1 9 14 20 31 25 37 25 14 0z m-1875 -10 c0 -5 -2 -10 -4 -10 -3
0 -8 5 -11 10 -3 6 -1 10 4 10 6 0 11 -4 11 -10z m1207 -12 c-3 -8 -6 -5 -6 6
-1 11 2 17 5 13 3 -3 4 -12 1 -19z m353 -8 c0 -5 -2 -10 -4 -10 -3 0 -8 5 -11
10 -3 6 -1 10 4 10 6 0 11 -4 11 -10z m758 -15 c-3 -3 -9 2 -12 12 -6 14 -5
15 5 6 7 -7 10 -15 7 -18z m-669 -29 c-2 -2 -13 8 -23 22 l-19 27 24 -22 c12
-12 21 -24 18 -27z m948 38 c-3 -3 -12 -4 -19 -1 -8 3 -5 6 6 6 11 1 17 -2 13
-5z m-47 -8 c0 -2 -7 -7 -16 -10 -8 -3 -12 -2 -9 4 6 10 25 14 25 6z m177 -2
c-3 -3 -12 -4 -19 -1 -8 3 -5 6 6 6 11 1 17 -2 13 -5z m-464 -29 c-3 -9 -8
-14 -10 -11 -3 3 -2 9 2 15 9 16 15 13 8 -4z m63 3 c4 -7 3 -8 -4 -4 -7 4 -12
0 -12 -10 0 -10 -3 -15 -6 -11 -7 6 2 37 10 37 3 0 8 -5 12 -12z m559 -8 c10
-11 14 -20 10 -20 -18 0 104 -86 154 -110 l53 -24 -5 -49 c-9 -69 -46 -142
-111 -215 -31 -35 -56 -59 -56 -54 0 5 16 27 36 48 52 56 92 121 111 181 16
50 16 54 -2 73 -46 51 -100 34 -424 -130 -198 -100 -272 -151 -378 -255 -62
-60 -73 -76 -74 -105 -1 -34 -1 -34 -9 -8 -4 15 -18 39 -29 54 -25 32 -27 44
-6 44 14 0 19 -11 16 -36 -1 -6 5 -11 14 -11 8 0 12 3 10 6 -4 7 21 43 29 42
3 -1 6 2 6 7 0 4 -4 7 -9 7 -25 0 -18 13 9 17 16 3 30 1 30 -4 0 -5 16 7 36
26 23 23 33 39 28 48 -6 10 -4 10 9 -1 15 -12 17 -11 14 5 -1 11 -6 25 -10 31
-6 9 -3 11 8 7 9 -4 14 -13 11 -20 -3 -8 -3 -14 0 -14 10 0 39 33 39 44 0 6 9
10 20 9 20 -1 20 -1 1 13 -11 8 -15 14 -10 14 6 0 15 -5 21 -11 8 -8 20 -6 43
6 26 13 30 19 19 27 -10 6 -7 7 10 3 17 -5 22 -4 16 5 -5 9 -4 11 3 6 12 -7
120 44 161 75 13 11 33 19 44 19 17 0 18 2 6 18 -11 14 -11 15 1 5 17 -16 34
-17 25 -2 -4 6 -1 9 6 7 19 -4 80 22 74 32 -2 4 2 16 10 26 9 11 14 13 13 5
-2 -7 3 -16 11 -19 9 -3 11 0 6 8 -5 9 -4 11 4 6 6 -4 21 -4 32 -1 20 7 20 8
-7 26 -16 10 -24 19 -19 19 6 0 20 -7 31 -14 26 -19 59 -11 61 14 1 13 -3 17
-15 13 -15 -4 -15 -3 -2 6 13 9 13 11 -2 11 -23 0 -34 -20 -17 -31 16 -10 8
-12 -16 -3 -15 6 -15 8 1 25 15 17 14 20 -11 43 -16 15 -33 26 -38 26 -6 0 -7
3 -4 7 4 3 2 12 -4 20 -14 17 -59 17 -55 1 1 -7 1 -10 -1 -5 -3 4 -23 8 -46 8
l-42 2 40 7 c74 13 101 11 120 -10z m-1245 -15 c13 -14 21 -25 18 -25 -2 0
-15 11 -28 25 -13 14 -21 25 -18 25 2 0 15 -11 28 -25z m-730 11 c0 -2 -7 -7
-16 -10 -8 -3 -12 -2 -9 4 6 10 25 14 25 6z m338 -21 c-3 -3 -9 2 -12 12 -6
14 -5 15 5 6 7 -7 10 -15 7 -18z m1598 0 c-8 -8 -18 -15 -22 -15 -3 0 -1 7 6
15 7 8 17 15 22 15 5 0 3 -7 -6 -15z m-52 -1 c9 -3 16 -11 16 -16 0 -7 -4 -7
-12 0 -7 5 -22 12 -33 15 -15 3 -16 5 -3 6 9 0 23 -2 32 -5z m-1514 -84 c0
-47 21 -174 35 -215 l7 -20 -14 20 c-16 22 -38 153 -38 225 0 27 -4 40 -9 32
-6 -10 -10 -10 -21 3 -11 13 -10 14 5 9 14 -6 16 -4 10 7 -8 12 -6 12 8 0 12
-9 17 -28 17 -61z m455 60 c-3 -5 -12 -10 -18 -10 -7 0 -6 4 3 10 19 12 23 12
15 0z m1040 0 c8 -13 -5 -13 -25 0 -13 8 -13 10 2 10 9 0 20 -4 23 -10z m85 0
c0 -5 -5 -10 -11 -10 -5 0 -7 5 -4 10 3 6 8 10 11 10 2 0 4 -4 4 -10z m-511
-53 c-11 -21 -23 -36 -26 -33 -3 3 0 12 6 20 7 8 10 20 6 26 -8 14 1 27 19 27
12 0 11 -7 -5 -40z m569 18 c-3 -3 -9 2 -12 12 -6 14 -5 15 5 6 7 -7 10 -15 7
-18z m-722 -22 c-10 -10 -19 5 -10 18 6 11 8 11 12 0 2 -7 1 -15 -2 -18z m186
-1 c-6 -2 -8 -10 -5 -19 5 -12 3 -14 -7 -8 -10 6 -12 4 -7 -9 5 -11 3 -15 -5
-10 -8 5 -9 2 -5 -10 4 -10 3 -15 -3 -11 -13 8 -13 -8 0 -23 7 -9 7 -9 -2 -2
-13 11 -42 -36 -31 -53 3 -5 1 -7 -4 -4 -16 10 -26 -25 -11 -36 9 -6 8 -7 -4
-3 -25 7 -50 -42 -36 -68 7 -13 7 -17 0 -12 -6 3 -17 -3 -25 -14 -7 -11 -16
-17 -19 -15 -3 3 -15 -14 -26 -39 -12 -24 -26 -47 -32 -51 -8 -5 -4 -12 9 -22
12 -8 19 -19 16 -24 -4 -5 1 -12 9 -15 9 -3 13 -11 10 -16 -4 -7 -10 -4 -16 6
-5 9 -15 16 -22 16 -8 0 -16 10 -20 23 -4 16 12 50 58 127 35 58 90 154 122
214 32 61 60 103 62 96 3 -8 0 -16 -6 -18z m-1705 12 c-3 -3 -12 -4 -19 -1 -8
3 -5 6 6 6 11 1 17 -2 13 -5z m2153 -58 c-7 -7 -13 -7 -20 0 -6 6 -3 10 10 10
13 0 16 -4 10 -10z m-1500 -88 c7 -37 16 -65 21 -62 5 3 6 -2 3 -10 -3 -8 4
-32 15 -54 11 -22 18 -42 15 -44 -2 -3 2 -11 10 -17 10 -8 16 -9 21 -1 3 5 1
10 -6 10 -7 0 -10 3 -6 6 3 4 0 12 -7 20 -8 7 -17 33 -20 59 -4 25 -10 45 -14
45 -4 0 -8 17 -10 37 -3 50 3 40 23 -36 9 -35 32 -95 51 -133 19 -37 30 -68
24 -68 -5 0 -10 4 -10 10 0 5 -13 16 -29 24 -41 22 -82 130 -105 276 -10 63
11 8 24 -62z m1055 47 c0 -14 -3 -25 -7 -25 -10 0 -10 34 -1 43 3 4 7 7 7 7 1
0 1 -11 1 -25z m435 21 c0 -3 -4 -8 -10 -11 -5 -3 -10 -1 -10 4 0 6 5 11 10
11 6 0 10 -2 10 -4z m-2626 -24 c3 -5 -1 -9 -9 -9 -8 0 -12 4 -9 9 3 4 7 8 9
8 2 0 6 -4 9 -8z m129 -19 c-18 -2 -48 -2 -65 0 -18 2 -4 4 32 4 36 0 50 -2
33 -4z m2555 -70 c29 -92 37 -185 22 -258 -16 -78 -59 -171 -99 -218 -33 -37
-33 -51 0 -21 17 16 18 14 14 -32 -2 -27 -7 -77 -10 -112 -6 -80 -13 -93 -92
-173 -64 -65 -82 -103 -83 -169 0 -40 18 -4 25 51 6 40 15 54 66 105 l60 59
-5 -35 c-3 -19 -8 -71 -12 -114 -9 -113 -28 -179 -81 -276 l-47 -85 -1 -145
c-2 -193 -22 -261 -127 -427 l-40 -63 -33 26 c-73 55 -239 92 -342 76 l-51 -9
-7 115 c-13 209 2 266 109 393 65 77 92 90 107 51 10 -26 11 -24 52 49 29 52
67 99 124 153 115 109 150 190 167 391 4 39 9 89 12 113 3 23 1 42 -4 42 -5 0
-12 -45 -16 -101 -7 -120 -30 -237 -57 -299 -21 -47 -71 -103 -152 -172 l-48
-41 -24 23 c-56 52 -81 213 -65 405 11 124 22 174 82 361 l42 131 53 39 c57
41 300 174 320 174 15 0 31 -48 38 -118 5 -43 2 -73 -14 -122 -11 -35 -18 -66
-16 -69 8 -8 33 63 50 144 17 78 17 81 -3 133 l-20 52 36 20 c21 10 39 19 43
20 3 0 15 -30 27 -67z m-198 37 c-8 -5 -19 -10 -25 -10 -5 0 -3 5 5 10 8 5 20
10 25 10 6 0 3 -5 -5 -10z m-780 -4 c0 -3 -4 -8 -10 -11 -5 -3 -10 -1 -10 4 0
6 5 11 10 11 6 0 10 -2 10 -4z m204 -44 c3 -5 -1 -9 -9 -9 -8 0 -12 4 -9 9 3
4 7 8 9 8 2 0 6 -4 9 -8z m207 -27 c5 4 6 -1 2 -10 -5 -13 -7 -14 -14 -3 -5 7
-8 18 -8 23 0 6 3 4 6 -3 2 -6 9 -10 14 -7z m-220 -22 c-12 -20 -14 -14 -5 12
4 9 9 14 11 11 3 -2 0 -13 -6 -23z m-884 -33 c-1 -12 -5 -16 -10 -11 -5 5 -6
14 -3 20 11 16 15 13 13 -9z m709 -20 c0 -12 -4 -16 -9 -11 -5 5 -6 14 -3 20
10 15 12 14 12 -9z m434 10 c-8 -5 -19 -10 -25 -10 -5 0 -3 5 5 10 8 5 20 10
25 10 6 0 3 -5 -5 -10z m31 -9 c-8 -5 -10 -14 -5 -22 6 -11 4 -11 -10 0 -13
11 -14 16 -4 22 7 5 18 9 23 9 6 0 4 -4 -4 -9z m-2152 -14 c30 -7 56 -18 59
-24 2 -7 -1 -13 -8 -13 -6 0 -9 4 -6 9 3 5 -13 11 -37 14 -23 2 -51 8 -61 13
-13 5 -17 4 -12 -4 3 -6 1 -14 -5 -18 -7 -4 -9 -3 -5 4 15 25 -75 26 -98 1 -8
-9 -6 -10 7 -6 11 4 16 3 12 -4 -4 -6 -14 -8 -22 -5 -19 8 -63 -22 -57 -39 3
-8 1 -22 -5 -32 -9 -15 -10 -13 -5 10 4 17 2 27 -6 27 -6 0 -8 -4 -5 -10 3 -5
1 -10 -5 -10 -6 0 -8 -5 -4 -11 4 -8 1 -8 -12 -1 -15 8 -26 5 -49 -15 -17 -14
-22 -23 -13 -20 10 4 20 2 24 -4 7 -11 -23 -49 -39 -49 -5 0 1 9 14 19 13 11
21 22 18 26 -4 3 -14 -1 -23 -10 -9 -9 -16 -12 -16 -6 0 6 -5 11 -10 11 -6 0
-8 -12 -6 -27 4 -20 2 -23 -6 -15 -16 16 -31 15 -25 -2 7 -18 -3 -28 -17 -17
-7 6 -20 2 -36 -11 -16 -14 -21 -22 -13 -25 10 -4 9 -8 -1 -19 -19 -19 -32
-18 -16 1 8 9 9 15 2 15 -6 0 -17 -9 -25 -20 -8 -11 -17 -17 -20 -14 -11 11
-35 -65 -31 -98 3 -30 3 -31 -8 -10 -8 17 -8 32 1 62 13 44 55 82 229 212 175
131 210 142 341 115z m-92 -13 c-3 -3 -12 -4 -19 -1 -8 3 -5 6 6 6 11 1 17 -2
13 -5z m502 -18 c53 -34 84 -75 70 -92 -11 -14 -39 -8 -39 8 0 6 6 5 15 -2 12
-10 15 -10 15 3 0 18 -27 30 -36 16 -4 -6 -14 -3 -25 10 -20 21 -25 36 -10 26
5 -3 12 -1 16 4 3 6 -8 17 -25 26 -16 8 -30 18 -30 20 0 9 10 5 49 -19z m1597
6 c0 -10 -6 -19 -13 -19 -17 0 -17 24 0 30 6 3 12 6 12 6 1 1 1 -7 1 -17z
m-333 -6 c4 -10 1 -13 -9 -9 -17 6 -19 -8 -2 -25 8 -8 9 -12 1 -12 -6 0 -20
-3 -30 -6 -17 -5 -17 -5 0 6 9 6 15 16 11 21 -3 5 0 16 6 24 15 18 17 18 23 1z
m-1656 -2 c-3 -3 -12 -4 -19 -1 -8 3 -5 6 6 6 11 1 17 -2 13 -5z m88 -12 c-3
-3 -11 0 -18 7 -9 10 -8 11 6 5 10 -3 15 -9 12 -12z m-138 2 c-3 -3 -12 -4
-19 -1 -8 3 -5 6 6 6 11 1 17 -2 13 -5z m1112 -78 c7 -27 9 -51 6 -54 -3 -3
-5 -1 -5 5 0 6 -11 8 -25 5 -14 -2 -25 0 -25 6 0 6 9 8 20 5 16 -4 20 0 20 21
0 14 -5 26 -11 26 -5 0 -7 4 -4 10 3 5 1 20 -6 32 -10 20 -10 21 4 8 8 -8 20
-37 26 -64z m678 61 c3 -4 13 -1 21 6 13 10 14 9 4 -10 -17 -31 -26 -34 -48
-18 -10 8 -28 15 -39 15 -13 0 -16 3 -8 8 14 9 60 8 70 -1z m-477 -1 c0 -9
-30 -14 -35 -6 -4 6 3 10 14 10 12 0 21 -2 21 -4z m-1057 -20 c18 -14 17 -15
-3 -21 -12 -4 -24 -4 -27 -1 -4 3 2 6 12 6 18 0 18 1 -1 15 -10 8 -14 14 -9
14 6 0 18 -6 28 -13z m1501 -19 c25 -19 11 -49 -18 -37 -13 5 -29 4 -37 -1
-21 -13 -26 -11 -32 11 -4 14 2 22 22 29 36 13 45 13 65 -2z m69 -8 c-8 -8 -8
-18 -1 -34 8 -17 6 -30 -8 -56 -10 -19 -18 -38 -19 -44 0 -5 -5 -10 -12 -10
-6 0 -15 -3 -19 -7 -4 -5 -1 -8 6 -8 7 0 11 -3 8 -6 -3 -3 -15 0 -27 7 -20 13
-19 14 9 25 40 17 66 69 51 102 -9 18 -9 28 0 38 7 8 14 12 17 9 3 -3 1 -10
-5 -16z m-1523 7 c0 -2 -7 -7 -16 -10 -8 -3 -12 -2 -9 4 6 10 25 14 25 6z
m1135 -69 c-19 -34 -39 -63 -45 -65 -15 -5 -35 20 -38 51 -3 24 2 30 47 51 28
13 47 26 44 30 -4 4 0 4 9 1 15 -6 13 -14 -17 -68z m-1681 55 c3 -5 -1 -9 -9
-9 -8 0 -12 4 -9 9 3 4 7 8 9 8 2 0 6 -4 9 -8z m661 -32 c3 -5 1 -10 -4 -10
-6 0 -11 5 -11 10 0 6 2 10 4 10 3 0 8 -4 11 -10z m139 -41 c-2 -4 2 -10 8
-12 8 -4 9 -6 2 -6 -16 -1 -38 27 -39 51 -2 19 -1 19 16 -3 10 -13 16 -27 13
-30z m476 41 c-8 -5 -19 -10 -25 -10 -5 0 -3 5 5 10 8 5 20 10 25 10 6 0 3 -5
-5 -10z m763 -31 c-7 -24 -41 -49 -65 -49 -19 0 -43 45 -32 61 3 5 14 9 25 9
12 0 17 -4 14 -11 -4 -6 -13 -8 -21 -5 -19 7 -18 -4 4 -21 9 -8 11 -12 5 -8
-7 3 -13 1 -13 -5 0 -12 38 -4 55 12 6 6 3 6 -10 2 -17 -7 -18 -6 -5 8 8 9 19
13 24 10 5 -3 6 0 2 6 -4 7 -4 17 0 23 10 16 23 -9 17 -32z m-2082 -22 c-10
-9 -11 -8 -5 6 3 10 9 15 12 12 3 -3 0 -11 -7 -18z m787 10 c9 -10 6 -13 -13
-12 -13 0 -27 4 -31 8 -5 4 -1 5 9 1 10 -3 17 -1 17 5 0 14 5 14 18 -2z m1555
-17 c-3 -11 -7 -20 -9 -20 -2 0 -4 9 -4 20 0 11 4 20 9 20 5 0 7 -9 4 -20z
m-849 -16 c3 -8 2 -12 -4 -9 -6 3 -10 10 -10 16 0 14 7 11 14 -7z m27 -26
c-11 -11 -13 -10 -7 0 4 7 2 21 -5 30 -12 15 -11 15 6 0 16 -15 17 -20 6 -30z
m20 -11 c-10 -9 -11 -8 -5 6 3 10 9 15 12 12 3 -3 0 -11 -7 -18z m-633 -48
c-3 -8 -7 -3 -11 10 -4 17 -3 21 5 13 5 -5 8 -16 6 -23z m-11 -41 c-3 -8 -6
-5 -6 6 -1 11 2 17 5 13 3 -3 4 -12 1 -19z m36 2 c3 -11 1 -18 -4 -14 -5 3 -9
12 -9 20 0 20 7 17 13 -6z m17 -50 c0 -5 -2 -10 -4 -10 -3 0 -8 5 -11 10 -3 6
-1 10 4 10 6 0 11 -4 11 -10z m-1190 -75 c0 -14 -2 -25 -4 -25 -2 0 -6 11 -8
25 -3 14 -1 25 3 25 5 0 9 -11 9 -25z m-13 -107 c-3 -7 -5 -2 -5 12 0 14 2 19
5 13 2 -7 2 -19 0 -25z m2560 10 c-3 -8 -6 -5 -6 6 -1 11 2 17 5 13 3 -3 4
-12 1 -19z m-1218 -45 c12 -24 18 -43 13 -43 -4 0 -14 17 -22 38 -8 20 -17 42
-19 47 -9 23 8 -3 28 -42z m-1325 -8 c3 -8 1 -15 -4 -15 -6 0 -10 7 -10 15 0
8 2 15 4 15 2 0 6 -7 10 -15z m983 9 c-3 -3 3 -30 13 -60 18 -52 18 -84 -1
-84 -5 0 -9 5 -9 11 0 5 -4 8 -8 5 -4 -2 -8 4 -8 14 0 10 6 16 13 13 7 -3 13
0 13 6 0 6 -5 11 -11 11 -6 0 -8 9 -4 21 4 12 3 19 -2 16 -5 -3 -8 7 -7 21 3
33 3 32 11 32 3 0 4 -3 0 -6z m-904 -11 c-7 -2 -19 -2 -25 0 -7 3 -2 5 12 5
14 0 19 -2 13 -5z m2454 -25 c-3 -8 -6 -5 -6 6 -1 11 2 17 5 13 3 -3 4 -12 1
-19z m-2454 5 c-7 -2 -19 -2 -25 0 -7 3 -2 5 12 5 14 0 19 -2 13 -5z m1044
-24 c0 -21 -3 -26 -9 -16 -4 9 -5 22 -2 31 9 23 11 20 11 -15z m1148 -8 c-11
-5 -26 -6 -34 -3 -10 4 -12 1 -6 -8 5 -9 4 -11 -3 -6 -23 14 -11 26 26 25 28
0 32 -2 17 -8z m155 -107 c17 -60 30 -111 30 -115 0 -3 -26 -2 -57 2 -32 4
-87 8 -123 10 l-65 2 70 6 c39 4 87 2 107 -3 21 -6 41 -7 45 -3 7 8 -12 94
-32 142 -12 29 -19 82 -9 72 3 -2 18 -54 34 -113z m52 99 c10 -9 18 -21 18
-26 0 -6 -8 -3 -18 6 -10 10 -21 15 -24 12 -2 -3 -5 2 -5 10 0 19 6 19 29 -2z
m-135 1 c-3 -3 -12 -4 -19 -1 -8 3 -5 6 6 6 11 1 17 -2 13 -5z m-2022 -15 c11
-16 1 -19 -13 -3 -7 8 -8 14 -3 14 5 0 13 -5 16 -11z m1001 -7 c1 -7 0 -8 -3
-2 -2 5 -9 10 -14 10 -6 0 -5 -9 1 -21 7 -11 9 -23 7 -26 -3 -2 -8 5 -12 16
-3 12 -10 21 -14 21 -18 0 -19 -15 -2 -39 34 -51 112 -211 101 -211 -5 0 -10
7 -10 15 0 7 -8 19 -17 24 -10 6 -15 11 -10 11 10 0 -84 180 -95 180 -11 0
-10 -14 2 -26 6 -6 3 -10 -9 -10 -21 0 -18 19 6 47 12 14 12 18 1 21 -7 3 5 4
26 4 23 -1 41 -7 42 -14z m-1016 -22 c0 -5 -2 -10 -4 -10 -3 0 -8 5 -11 10 -3
6 -1 10 4 10 6 0 11 -4 11 -10z m870 -34 c0 -12 -5 -7 -19 24 -11 24 -11 24 3
6 9 -11 16 -24 16 -30z m-113 -2 c9 -15 18 -42 20 -62 2 -33 -5 -43 -92 -133
-76 -78 -97 -107 -107 -143 -7 -25 -16 -46 -21 -46 -4 0 -5 -5 -2 -10 4 -6 4
-29 0 -50 -6 -36 -8 -38 -22 -24 -13 13 -17 13 -24 2 -6 -9 -9 -9 -9 -1 0 6 4
14 10 18 5 3 7 11 4 18 -2 7 7 24 21 39 28 31 31 40 10 32 -8 -3 -61 -63 -119
-132 -57 -70 -126 -151 -153 -181 -43 -48 -50 -52 -57 -36 -4 11 -4 16 0 12
10 -10 45 23 37 36 -3 5 -1 7 5 3 12 -7 26 11 27 34 0 8 7 15 15 15 8 0 15 7
15 15 0 8 5 15 10 15 20 0 34 16 30 35 -2 11 1 22 6 25 5 4 7 10 4 15 -3 5 -1
11 4 14 16 11 22 -11 6 -24 -8 -7 -12 -16 -9 -21 5 -9 59 48 59 63 0 5 7 13
15 18 15 9 13 11 -12 14 -6 0 -13 8 -15 16 -4 13 -3 13 6 0 9 -13 11 -13 11
-1 0 11 3 10 13 -3 13 -17 15 -16 36 17 12 19 28 38 36 41 8 3 12 12 9 20 -6
17 12 31 21 16 10 -16 25 -12 19 5 -4 8 -2 15 3 15 5 0 15 16 22 36 7 19 15
33 17 31 3 -3 19 9 35 26 23 23 27 32 17 38 -10 7 -10 9 2 10 8 1 17 1 20 1 3
0 25 18 50 40 27 24 37 37 25 34 -17 -5 -18 -4 -5 6 16 14 24 52 9 42 -5 -3
-9 0 -9 7 0 8 -4 8 -15 -1 -9 -7 -13 -15 -10 -18 3 -3 0 -12 -7 -19 -9 -11 -9
-17 3 -24 9 -5 10 -9 2 -9 -7 0 -20 16 -29 35 -13 29 -19 33 -31 24 -8 -7 -12
-18 -9 -26 3 -8 2 -12 -3 -8 -5 3 -11 -1 -14 -7 -2 -7 -8 -10 -12 -6 -4 4 16
31 44 60 34 35 51 47 51 36 0 -9 -5 -20 -10 -23 -6 -4 -8 -11 -4 -16 3 -6 14
0 25 12 15 17 17 24 7 31 -7 4 -8 8 -3 8 6 0 3 5 -5 10 -10 6 -11 10 -3 10 7
0 20 -12 30 -26z m278 16 c3 -5 1 -10 -4 -10 -6 0 -11 5 -11 10 0 6 2 10 4 10
3 0 8 -4 11 -10z m1151 -19 c5 2 12 -22 16 -54 4 -32 14 -81 23 -109 19 -66
19 -71 -5 -56 -14 9 -16 14 -7 20 9 6 8 8 -3 8 -13 0 -13 1 0 10 8 5 10 10 3
10 -6 0 -9 9 -5 22 3 11 1 19 -4 16 -9 -6 -14 27 -14 94 0 22 -5 37 -11 35 -7
-1 -14 5 -16 13 -4 12 -3 12 5 2 5 -8 13 -12 18 -11z m-2178 -11 c7 -11 11
-20 9 -20 -2 0 -12 9 -22 20 -10 11 -14 20 -9 20 5 0 15 -9 22 -20z m1066 -5
c-4 -8 -11 -12 -17 -8 -8 5 -7 8 1 11 7 2 9 9 6 14 -4 7 -2 8 4 4 6 -4 9 -13
6 -21z m-517 -1 c-3 -3 -12 -4 -19 -1 -8 3 -5 6 6 6 11 1 17 -2 13 -5z m1670
-36 c-3 -7 -5 -2 -5 12 0 14 2 19 5 13 2 -7 2 -19 0 -25z m-1137 12 c0 -5 -5
-10 -11 -10 -5 0 -7 5 -4 10 3 6 8 10 11 10 2 0 4 -4 4 -10z m50 -45 c0 -5 -5
-3 -10 5 -5 8 -10 20 -10 25 0 6 5 3 10 -5 5 -8 10 -19 10 -25z m-36 9 c3 -8
2 -12 -4 -9 -6 3 -10 10 -10 16 0 14 7 11 14 -7z m-1000 -30 c5 -14 4 -15 -9
-4 -17 14 -19 20 -6 20 5 0 12 -7 15 -16z m896 -29 c0 -5 -5 -3 -10 5 -5 8
-10 20 -10 25 0 6 5 3 10 -5 5 -8 10 -19 10 -25z m-300 5 c0 -5 -5 -10 -11
-10 -5 0 -7 5 -4 10 3 6 8 10 11 10 2 0 4 -4 4 -10z m485 -40 c13 -27 14 -32
2 -20 -8 8 -18 26 -22 40 -9 32 -2 25 20 -20z m-555 10 c0 -5 -2 -10 -4 -10
-3 0 -8 5 -11 10 -3 6 -1 10 4 10 6 0 11 -4 11 -10z m-407 -17 c-20 -8 -15
-26 5 -18 14 5 15 4 5 -6 -10 -10 -16 -10 -24 -2 -13 13 -4 33 14 32 9 0 9 -2
0 -6z m656 -111 c17 -58 -5 -117 -71 -188 -55 -58 -78 -71 -78 -42 0 5 7 8 15
5 8 -4 17 -2 20 3 3 4 1 10 -5 12 -13 4 11 50 30 56 11 4 10 1 -3 -12 -9 -10
-17 -24 -17 -33 0 -11 8 -7 28 13 17 18 24 33 19 41 -4 6 -3 14 4 19 7 4 9 3
5 -4 -3 -6 -2 -13 3 -16 14 -9 21 20 8 35 -10 11 -9 11 6 0 9 -7 17 -10 17 -5
1 5 5 28 9 52 5 23 5 45 0 48 -4 2 -6 11 -3 19 4 8 -1 18 -10 21 -9 4 -24 20
-32 36 -8 16 -18 27 -22 24 -4 -3 -8 4 -9 14 -2 27 76 -61 86 -98z m-296 77
c4 9 5 9 3 0 -1 -7 -9 -13 -18 -15 -12 -1 -15 3 -11 14 5 14 2 13 -17 -3 l-24
-20 20 27 c19 26 19 26 30 6 7 -14 13 -17 17 -9z m47 17 c0 -3 -4 -8 -10 -11
-5 -3 -10 -1 -10 4 0 6 5 11 10 11 6 0 10 -2 10 -4z m1226 -73 c-3 -4 1 -17 9
-30 9 -13 12 -23 8 -23 -14 0 -61 83 -56 97 4 9 11 6 25 -13 11 -14 18 -28 14
-31z m107 50 c-13 -2 -35 -2 -50 0 -16 2 -5 4 22 4 28 0 40 -2 28 -4z m-928
-23 c3 -5 1 -10 -4 -10 -6 0 -11 5 -11 10 0 6 2 10 4 10 3 0 8 -4 11 -10z
m1758 -126 l15 -42 -44 25 c-42 24 -60 41 -30 30 16 -7 40 16 29 27 -4 4 -8
13 -8 19 0 7 -4 13 -10 14 -5 1 -9 -5 -8 -13 0 -9 -2 -13 -5 -10 -6 7 -36 -54
-34 -66 1 -5 -4 -8 -12 -8 -10 0 -3 21 25 71 21 40 39 77 40 83 0 6 6 -11 14
-39 8 -27 20 -69 28 -91z m-573 106 c0 8 3 11 6 8 14 -14 -24 -97 -64 -143
-103 -115 -141 -204 -143 -335 -1 -36 -5 -78 -9 -95 l-8 -30 -1 28 c0 16 -5
26 -10 23 -5 -4 -3 18 5 46 17 66 19 122 2 112 -7 -4 -8 -3 -4 5 4 6 12 9 17
6 8 -5 13 29 12 72 -1 7 3 10 8 7 5 -3 9 1 9 8 0 8 8 25 17 38 9 13 17 40 16
60 -1 26 0 28 4 8 3 -22 7 -25 18 -15 10 9 10 15 1 26 -9 12 -8 13 3 7 9 -6
12 -5 9 5 -3 8 -11 13 -17 11 -7 -1 -9 3 -6 9 5 8 10 8 18 0 17 -17 27 -13 21
7 -4 13 -4 14 4 4 7 -11 14 -9 35 12 29 29 48 73 26 62 -8 -4 -5 0 6 9 17 14
18 18 6 38 -13 20 -13 21 2 8 14 -11 17 -11 17 -1z m-1380 -30 c1 12 3 11 11
-2 9 -17 -3 -58 -17 -58 -2 0 0 10 7 22 9 17 9 20 -3 16 -9 -4 -14 2 -16 15
-1 17 1 19 8 7 9 -13 10 -13 10 0z m250 -26 c0 -8 -4 -12 -10 -9 -5 3 -10 10
-10 16 0 5 5 9 10 9 6 0 10 -7 10 -16z m-316 -2 c3 -5 -1 -9 -9 -9 -8 0 -12 4
-9 9 3 4 7 8 9 8 2 0 6 -4 9 -8z m1213 -8 c-3 -3 -12 -4 -19 -1 -8 3 -5 6 6 6
11 1 17 -2 13 -5z m109 -6 c4 -7 3 -8 -5 -4 -6 4 -42 0 -79 -9 -76 -19 -133
-17 -140 4 -3 9 0 11 9 6 22 -14 51 -14 114 0 78 17 92 17 101 3z m34 -2 c0
-3 -4 -8 -10 -11 -5 -3 -10 -1 -10 4 0 6 5 11 10 11 6 0 10 -2 10 -4z m-1332
-23 c9 -9 10 -13 2 -13 -6 0 -8 -4 -5 -10 3 -5 -3 -10 -14 -10 -12 0 -21 -5
-21 -12 0 -6 -3 -8 -7 -4 -4 4 3 16 17 26 20 16 21 20 8 20 -66 1 -146 -88
-229 -254 -33 -65 -63 -116 -65 -113 -3 3 2 19 11 36 8 17 12 31 8 31 -5 0 -2
4 6 9 11 7 11 15 3 40 -8 24 -8 30 0 25 7 -5 9 -2 6 7 -4 10 1 15 13 15 16 0
17 -2 4 -16 -8 -9 -15 -23 -15 -31 0 -16 39 29 40 46 0 6 7 23 15 39 8 15 12
33 8 39 -3 5 -1 7 4 4 13 -8 37 18 30 31 -3 4 -2 14 4 22 6 11 9 12 9 2 0 -7
4 -11 10 -7 5 3 8 11 6 18 -1 7 -1 8 2 4 2 -5 13 -1 23 9 10 9 16 21 12 27 -3
5 -1 7 4 4 11 -7 66 16 58 24 -2 3 6 5 18 5 12 0 28 -6 35 -13z m1362 7 c0 -5
-5 -10 -11 -10 -5 0 -7 5 -4 10 3 6 8 10 11 10 2 0 4 -4 4 -10z m-1000 -11 c0
8 2 12 5 9 3 -3 1 -16 -4 -29 -7 -18 -10 -20 -10 -6 -1 10 -5 15 -11 12 -6 -3
-7 1 -3 10 5 13 7 14 14 3 7 -11 9 -10 9 1z m927 -3 c-10 -8 -18 -17 -18 -20
3 -20 0 -26 -9 -21 -5 3 -10 -3 -10 -14 0 -12 -5 -21 -11 -21 -7 0 -5 -9 4
-24 14 -21 14 -26 2 -36 -11 -9 -15 -9 -15 -1 0 6 5 11 12 11 16 0 1 13 -18
16 -11 2 -13 -4 -9 -19 5 -16 4 -18 -3 -8 -8 11 -13 4 -23 -30 -7 -24 -13 -61
-13 -81 -1 -21 -4 -38 -8 -38 -5 0 -8 -7 -8 -15 0 -8 -9 -19 -20 -25 -12 -6
-18 -16 -14 -23 4 -7 4 -9 -1 -5 -4 4 -14 3 -22 -4 -10 -8 -17 -8 -25 0 -9 9
-8 12 4 12 38 0 68 43 79 110 14 87 101 251 133 250 6 0 3 -7 -7 -14z m789
-122 c9 -13 14 -29 11 -36 -4 -9 -6 -8 -6 3 -1 21 -58 73 -111 100 -25 13 -48
22 -51 22 -3 -1 -6 4 -6 11 0 18 144 -69 163 -100z m-1676 101 c0 -2 -6 -8
-13 -14 -10 -8 -14 -7 -14 2 0 8 6 14 14 14 7 0 13 -1 13 -2z m-59 -22 c13
-16 12 -17 -3 -4 -17 13 -22 21 -14 21 2 0 10 -8 17 -17z m84 -23 c3 -5 1 -10
-4 -10 -6 0 -11 5 -11 10 0 6 2 10 4 10 3 0 8 -4 11 -10z m-843 -22 c-7 -7
-12 -8 -12 -2 0 14 12 26 19 19 2 -3 -1 -11 -7 -17z m822 7 c3 -8 1 -15 -4
-15 -6 0 -10 7 -10 15 0 8 2 15 4 15 2 0 6 -7 10 -15z m-609 -15 c-3 -5 -11
-10 -16 -10 -6 0 -7 5 -4 10 3 6 11 10 16 10 6 0 7 -4 4 -10z m259 -67 c-5
-14 -29 -42 -53 -62 -29 -23 -42 -30 -38 -18 3 9 2 17 -3 17 -6 0 -10 -4 -10
-10 0 -5 -5 -10 -11 -10 -8 0 -9 4 0 13 6 8 7 17 3 22 -4 4 3 3 15 -4 28 -14
28 -14 30 9 1 16 -3 20 -17 15 -10 -3 2 15 28 42 42 43 48 46 56 30 6 -11 6
-28 0 -44z m366 -8 c0 -5 -5 -3 -10 5 -5 8 -10 20 -10 25 0 6 5 3 10 -5 5 -8
10 -19 10 -25z m-740 0 c-10 -12 -10 -15 0 -15 8 0 11 -3 7 -6 -14 -14 -27 7
-16 27 6 12 13 18 16 15 3 -3 0 -12 -7 -21z m890 -61 c0 -14 -53 -64 -68 -64
-7 0 -12 7 -12 16 0 9 -8 23 -18 32 -10 10 -12 13 -5 8 7 -5 13 -5 13 0 0 5 4
3 9 -5 12 -19 31 -5 26 19 -2 11 -1 19 3 17 8 -2 12 7 12 24 0 8 -4 8 -12 1
-10 -8 -13 -4 -14 15 -2 23 0 22 32 -14 19 -21 34 -43 34 -49z m-649 33 c-10
-9 -11 -8 -5 6 3 10 9 15 12 12 3 -3 0 -11 -7 -18z m526 -9 c-3 -8 -6 -5 -6 6
-1 11 2 17 5 13 3 -3 4 -12 1 -19z m51 -13 c-3 -3 -9 2 -12 12 -6 14 -5 15 5
6 7 -7 10 -15 7 -18z m709 -7 c-3 -8 -6 -5 -6 6 -1 11 2 17 5 13 3 -3 4 -12 1
-19z m-1503 -33 c3 -8 1 -15 -4 -15 -6 0 -10 7 -10 15 0 8 2 15 4 15 2 0 6 -7
10 -15z m2216 -39 c0 -26 -6 -18 -14 19 -5 22 -4 26 4 15 5 -8 10 -24 10 -34z
m21 -13 c-12 -20 -14 -14 -5 12 4 9 9 14 11 11 3 -2 0 -13 -6 -23z m-2531 5
c-8 -7 -20 -20 -28 -28 -11 -13 -12 -12 -3 7 9 18 23 29 41 32 2 1 -2 -5 -10
-11z m230 -2 c0 -3 -4 -8 -10 -11 -5 -3 -10 -1 -10 4 0 6 5 11 10 11 6 0 10
-2 10 -4z m20 -26 c0 -5 -2 -10 -4 -10 -3 0 -8 5 -11 10 -3 6 -1 10 4 10 6 0
11 -4 11 -10z m2281 -28 c8 3 21 2 30 -3 11 -6 21 -3 29 6 11 14 15 13 28 -6
8 -12 21 -47 28 -76 15 -63 22 -66 -95 32 -39 32 -71 66 -71 75 0 10 6 8 19
-9 10 -13 24 -21 32 -19z m29 34 c0 -3 -4 -8 -10 -11 -5 -3 -10 -1 -10 4 0 6
5 11 10 11 6 0 10 -2 10 -4z m-2060 -70 c0 -2 -8 -10 -17 -17 -16 -13 -17 -12
-4 4 13 16 21 21 21 13z m1066 -58 c9 -18 22 -36 28 -40 8 -6 7 -8 -1 -8 -7 0
-22 18 -33 40 -11 22 -18 40 -15 40 2 0 12 -15 21 -32z m261 -45 c-3 -10 -5
-4 -5 12 0 17 2 24 5 18 2 -7 2 -21 0 -30z m-1340 -30 c-3 -10 -5 -4 -5 12 0
17 2 24 5 18 2 -7 2 -21 0 -30z m2083 19 c0 -13 -12 -22 -22 -16 -10 6 -1 24
13 24 5 0 9 -4 9 -8z m-943 -62 c-1 -26 -4 -35 -9 -25 -8 13 -1 65 8 65 1 0 2
-18 1 -40z m32 8 c4 7 12 3 20 -11 9 -15 10 -18 1 -10 -7 6 -19 9 -26 6 -10
-3 -14 2 -13 18 1 20 2 20 6 5 3 -12 8 -15 12 -8z m935 -40 c18 -36 19 -41 7
-34 -9 6 -33 66 -26 66 2 0 11 -14 19 -32z m-47 -30 c-3 -7 -5 -2 -5 12 0 14
2 19 5 13 2 -7 2 -19 0 -25z m-839 -3 c-3 -3 -9 2 -12 12 -6 14 -5 15 5 6 7
-7 10 -15 7 -18z m-1318 1 c0 -2 -8 -10 -17 -17 -16 -13 -17 -12 -4 4 13 16
21 21 21 13z m1290 -6 c0 -5 -4 -10 -10 -10 -5 0 -10 5 -10 10 0 6 5 10 10 10
6 0 10 -4 10 -10z m904 -6 c3 -8 2 -12 -4 -9 -6 3 -10 10 -10 16 0 14 7 11 14
-7z m-226 -25 c3 -12 2 -12 -6 0 -8 11 -11 10 -15 -5 -4 -16 -5 -15 -6 4 -1
25 20 26 27 1z m-1881 -21 c-3 -7 -5 -2 -5 12 0 14 2 19 5 13 2 -7 2 -19 0
-25z m-60 -86 c-2 -20 -4 -3 -4 38 0 41 2 58 4 38 2 -21 2 -55 0 -76z m1926
48 c-3 -12 -8 -19 -11 -16 -5 6 5 36 12 36 2 0 2 -9 -1 -20z m-646 -52 c-3 -8
-6 -5 -6 6 -1 11 2 17 5 13 3 -3 4 -12 1 -19z"/>
<path d="M2010 2975 c0 -10 53 -95 60 -95 17 0 -21 88 -41 93 -10 3 -19 4 -19
2z"/>
<path d="M2687 2962 c-55 -56 -69 -84 -46 -98 8 -4 9 1 4 17 -7 22 -6 22 9 10
10 -8 16 -25 14 -40 -2 -21 -8 -25 -26 -23 -28 4 -76 -43 -67 -66 4 -12 11
-10 35 13 17 16 30 25 30 20 0 -4 9 0 19 9 28 25 33 67 12 91 -17 19 -17 21 1
38 17 16 18 16 18 -8 0 -25 14 -33 25 -15 3 6 1 10 -4 10 -20 0 -11 37 15 61
l27 24 -6 -45 c-2 -25 -8 -53 -12 -62 -4 -10 -3 -18 2 -18 10 0 33 65 33 92 0
8 -6 22 -13 31 -11 16 -18 12 -70 -41z m-55 -152 c-12 -5 -25 -16 -28 -25 -4
-8 -11 -15 -17 -15 -6 0 0 11 13 25 13 14 31 25 39 24 10 0 8 -4 -7 -9z"/>
<path d="M2335 2708 c-49 -11 -98 -20 -107 -19 -10 0 -18 -5 -18 -11 0 -14
108 0 163 21 16 6 39 11 52 11 13 0 27 5 30 10 8 14 -15 11 -120 -12z"/>
<path d="M2076 2643 l-27 -38 36 -31 c21 -19 31 -34 24 -36 -7 -2 -10 -11 -6
-22 6 -14 18 -16 79 -14 69 3 73 4 76 27 6 38 -21 53 -63 35 -49 -20 -61 -18
-39 7 19 21 19 21 -16 17 l-35 -3 3 48 c2 26 2 47 -1 47 -2 0 -16 -17 -31 -37z
m11 -38 c0 -8 -4 -12 -9 -9 -5 3 -6 10 -3 15 9 13 12 11 12 -6z m147 -63 c-18
-14 -18 -14 -1 -8 13 4 17 2 15 -6 -3 -8 -28 -14 -67 -16 -48 -2 -62 0 -59 10
3 7 18 15 34 19 16 3 38 10 49 16 10 6 25 8 33 5 12 -4 11 -8 -4 -20z"/>
<path d="M2262 2596 c10 -7 15 -16 11 -19 -3 -4 -1 -7 5 -7 18 0 14 27 -4 34
-25 10 -30 6 -12 -8z"/>
<path d="M2154 2463 c11 -11 66 -12 66 -2 0 5 -16 9 -37 9 -20 0 -33 -3 -29
-7z"/>
<path d="M3053 3014 c-14 -6 -2 -56 15 -62 7 -2 12 1 12 7 0 6 -4 11 -9 11 -4
0 -6 11 -3 25 2 14 3 25 1 24 -2 0 -9 -3 -16 -5z"/>
<path d="M3040 2860 c-29 -27 -34 -59 -7 -44 7 4 8 3 4 -1 -10 -12 -38 -15
-31 -4 10 17 -11 9 -40 -16 -16 -14 -33 -25 -38 -25 -4 0 -8 -7 -8 -17 0 -14
3 -14 22 3 14 12 18 13 10 3 -6 -9 -10 -19 -7 -22 3 -4 2 -5 -2 -2 -3 3 -12 0
-20 -7 -8 -6 -13 -7 -12 -2 1 5 1 16 0 24 -1 13 -3 13 -10 0 -6 -8 -7 -18 -5
-22 3 -4 -3 -5 -12 -1 -14 5 -16 3 -11 -11 4 -11 3 -15 -4 -10 -12 7 -119 -63
-119 -79 0 -6 12 1 28 14 33 31 87 65 78 50 -4 -6 -21 -18 -37 -27 -25 -12
-28 -18 -18 -30 8 -10 8 -14 0 -14 -6 0 -11 5 -11 12 0 6 -13 0 -28 -15 -15
-15 -32 -27 -37 -27 -5 0 0 7 11 15 10 8 15 15 10 15 -9 0 -146 -109 -146
-116 0 -3 9 0 19 6 27 14 34 13 20 -3 -7 -7 -20 -14 -29 -14 -19 -2 -70 -45
-70 -59 0 -5 5 -2 11 6 9 13 10 13 6 0 -2 -8 -9 -14 -15 -13 -9 2 -65 -66
-104 -128 -22 -35 -8 -57 18 -28 19 22 19 22 -1 16 -18 -7 -19 -6 -3 6 10 8
14 18 10 22 -4 5 -1 5 6 1 7 -4 10 -12 7 -17 -4 -5 -1 -9 6 -9 6 0 1 -9 -12
-21 -16 -14 -18 -19 -7 -15 9 2 22 -1 28 -9 9 -11 7 -16 -9 -25 -11 -6 -25
-20 -31 -33 -6 -12 8 -2 31 23 23 25 68 72 100 106 55 57 57 62 41 78 -16 17
-16 18 5 5 19 -12 26 -9 66 27 63 55 58 65 -5 13 -37 -30 -45 -34 -25 -13 15
17 25 33 22 37 -3 4 -2 5 2 2 3 -3 17 2 30 10 13 9 23 13 23 9 0 -4 7 -1 15 6
8 7 12 16 9 21 -3 5 2 6 10 3 10 -4 23 6 37 28 11 18 18 24 15 14 -5 -14 4 -9
28 15 30 30 32 35 18 47 -13 10 -13 12 -1 12 12 0 12 2 -1 11 -13 9 -13 10 0
6 8 -2 14 -10 13 -16 -4 -14 9 -14 44 1 30 14 44 28 37 39 -2 4 3 10 12 13 8
3 12 2 9 -4 -3 -6 1 -7 9 -4 9 3 14 10 11 14 -3 5 4 10 15 12 12 2 21 8 21 13
1 19 22 35 39 30 28 -9 33 24 15 104 -9 43 -18 45 -55 11z m37 -2 c-3 -8 -6
-5 -6 6 -1 11 2 17 5 13 3 -3 4 -12 1 -19z m9 -63 c-24 -18 -33 -19 -42 -3 -4
7 -3 8 4 4 7 -4 20 -2 29 3 26 15 31 13 9 -4z m4 -24 c0 -5 -11 -11 -25 -13
-14 -3 -25 -3 -25 -1 0 3 34 19 48 22 1 1 2 -3 2 -8z m-220 -95 c0 -2 -8 -10
-17 -17 -16 -13 -17 -12 -4 4 13 16 21 21 21 13z m-15 -66 c3 -6 -1 -7 -9 -4
-18 7 -21 14 -7 14 6 0 13 -4 16 -10z m-100 -40 c3 -6 -1 -7 -9 -4 -18 7 -21
14 -7 14 6 0 13 -4 16 -10z m-5 -24 c0 -2 -7 -7 -16 -10 -8 -3 -12 -2 -9 4 6
10 25 14 25 6z m40 -6 c8 -5 11 -10 5 -10 -5 0 -17 5 -25 10 -8 5 -10 10 -5
10 6 0 17 -5 25 -10z m-123 -77 c0 -9 -4 -10 -14 -2 -7 6 -13 12 -13 14 0 1 6
2 13 2 8 0 14 -6 14 -14z m-63 -104 c-21 -23 -30 -24 -38 -3 -5 14 -4 15 9 4
17 -14 21 -1 5 18 -7 9 -7 9 2 2 20 -17 31 -11 17 8 -13 15 -12 16 4 3 16 -13
16 -15 1 -32z m-55 -21 c6 11 10 10 15 -4 4 -12 -1 -25 -15 -38 -12 -12 -19
-15 -15 -8 4 6 2 12 -3 12 -10 0 -15 -13 -13 -31 1 -3 -6 -6 -14 -6 -12 0 -12
3 0 21 7 12 22 21 31 21 10 0 20 6 23 14 3 8 0 11 -6 7 -14 -9 -43 4 -36 16 4
6 10 5 15 -3 8 -12 10 -12 18 -1z"/>
<path d="M3055 2730 c-3 -5 -2 -10 4 -10 5 0 13 5 16 10 3 6 2 10 -4 10 -5 0
-13 -4 -16 -10z"/>
<path d="M2410 2240 c0 -19 3 -21 12 -12 9 9 9 15 0 24 -9 9 -12 7 -12 -12z"/>
<path d="M2428 2222 c-17 -29 -18 -65 -3 -70 6 -1 11 8 11 20 1 12 13 32 28
44 14 13 22 25 17 29 -5 3 -13 0 -17 -6 -5 -8 -8 -8 -13 0 -4 6 -13 0 -23 -17z"/>
<path d="M2390 2221 c0 -5 5 -13 10 -16 6 -3 10 -2 10 4 0 5 -4 13 -10 16 -5
3 -10 2 -10 -4z"/>
<path d="M3155 2780 c-3 -5 -1 -10 4 -10 6 0 11 5 11 10 0 6 -2 10 -4 10 -3 0
-8 -4 -11 -10z"/>
<path d="M2687 2373 c-4 -3 -7 -11 -7 -17 0 -6 5 -5 12 2 6 6 9 14 7 17 -3 3
-9 2 -12 -2z"/>
<path d="M2609 2293 c-13 -16 -12 -17 4 -4 16 13 21 21 13 21 -2 0 -10 -8 -17
-17z"/>
<path d="M2515 2191 c-3 -5 -2 -12 3 -15 5 -3 9 1 9 9 0 17 -3 19 -12 6z"/>
<path d="M223 2743 c-14 -5 -16 -47 -5 -75 5 -11 12 -14 21 -9 8 6 9 11 3 15
-6 4 -8 22 -5 41 3 19 4 35 2 34 -2 0 -10 -3 -16 -6z"/>
<path d="M78 2611 c-18 -16 -30 -32 -27 -36 4 -3 22 10 42 30 42 42 31 47 -15
6z"/>
<path d="M123 2485 c-41 -21 -64 -48 -53 -59 7 -7 22 1 47 27 40 39 42 51 6
32z"/>
<path d="M95 2360 c3 -5 12 -7 20 -3 21 7 19 13 -6 13 -11 0 -18 -4 -14 -10z"/>
<path d="M163 2330 c-13 -10 -23 -26 -23 -36 0 -16 4 -15 26 8 32 31 29 54 -3
28z"/>
<path d="M180 2260 c-8 -5 -10 -10 -5 -10 6 0 17 5 25 10 8 5 11 10 5 10 -5 0
-17 -5 -25 -10z"/>
<path d="M2141 2267 c-6 -8 -20 -44 -32 -81 l-21 -68 -41 6 c-35 5 -39 4 -22
-6 39 -23 42 -31 37 -107 -3 -45 -1 -72 5 -68 5 3 10 27 11 54 1 26 5 60 8 76
l6 27 20 -22 c12 -14 18 -17 15 -7 -4 12 2 15 27 12 l31 -3 -32 10 c-18 6 -35
14 -38 19 -7 12 14 109 31 144 16 29 13 35 -5 14z"/>
<path d="M3465 2260 c-3 -5 1 -10 10 -10 9 0 13 5 10 10 -3 6 -8 10 -10 10 -2
0 -7 -4 -10 -10z"/>
<path d="M2709 2003 c-13 -16 -12 -17 4 -4 16 13 21 21 13 21 -2 0 -10 -8 -17
-17z"/>
<path d="M2960 1868 c0 -5 21 -36 46 -70 25 -35 50 -72 55 -83 6 -12 3 -10 -8
5 -10 14 -42 51 -72 83 -53 56 -90 72 -107 46 -5 -8 1 -10 18 -6 21 6 33 -2
75 -46 27 -28 62 -71 77 -94 16 -24 32 -41 36 -38 4 3 10 -2 14 -10 3 -8 10
-15 15 -15 14 0 -69 144 -111 193 -20 23 -37 39 -38 35z"/>
<path d="M3097 896 c-15 -19 -33 -40 -40 -48 -18 -18 -29 -94 -19 -138 8 -32
9 -28 21 49 10 68 18 91 43 123 17 21 29 40 26 43 -3 3 -17 -10 -31 -29z"/>
<path d="M2874 713 c24 -147 17 -203 -46 -346 -16 -38 -27 -71 -24 -74 5 -6
61 98 58 109 -1 5 3 7 10 5 24 -4 49 64 44 123 -7 83 -25 180 -37 198 -8 13
-9 10 -5 -15z"/>
<path d="M1125 1900 c-3 -5 -1 -10 5 -10 6 0 8 -5 4 -12 -5 -9 -3 -9 9 1 9 7
14 17 11 22 -7 12 -21 11 -29 -1z"/>
<path d="M2450 1901 c0 -5 5 -13 10 -16 6 -3 10 -2 10 4 0 5 -4 13 -10 16 -5
3 -10 2 -10 -4z"/>
<path d="M2395 1860 c-3 -5 -3 -10 2 -11 4 0 16 -2 26 -4 15 -3 16 -1 6 11
-14 16 -25 18 -34 4z"/>
<path d="M2360 1844 c0 -8 5 -12 10 -9 6 3 10 10 10 16 0 5 -4 9 -10 9 -5 0
-10 -7 -10 -16z"/>
<path d="M1145 1240 c-3 -5 -1 -10 4 -10 6 0 11 5 11 10 0 6 -2 10 -4 10 -3 0
-8 -4 -11 -10z"/>
<path d="M1151 1176 c-9 -11 -8 -18 4 -30 22 -22 32 -20 12 2 -13 14 -14 21
-5 30 7 7 9 12 6 12 -3 0 -11 -6 -17 -14z"/>
<path d="M990 860 c0 -5 5 -10 11 -10 5 0 7 5 4 10 -3 6 -8 10 -11 10 -2 0 -4
-4 -4 -10z"/>
<path d="M991 792 c-6 -11 -6 -24 0 -33 5 -7 9 -9 10 -4 0 6 2 20 5 33 5 27
-2 29 -15 4z"/>
<path d="M2296 947 c3 -10 9 -15 12 -12 3 3 0 11 -7 18 -10 9 -11 8 -5 -6z"/>
<path d="M3216 841 c-3 -5 0 -11 7 -14 8 -3 14 1 14 9 0 16 -13 19 -21 5z"/>
<path d="M1294 702 c-14 -9 -14 -44 -1 -39 6 2 12 13 14 25 3 24 3 25 -13 14z"/>
<path d="M1264 672 c-5 -4 -10 -17 -10 -28 0 -18 3 -20 18 -11 11 8 14 15 8
23 -6 6 -7 14 -3 17 9 9 1 9 -13 -1z"/>
<path d="M1789 618 c-12 -41 -1 -65 17 -36 5 7 2 9 -7 4 -8 -4 -6 -1 3 7 10 8
15 17 11 20 -6 7 -22 10 -24 5z"/>
<path d="M3204 458 c-4 -7 -3 -8 4 -4 7 4 12 3 12 -2 0 -14 32 -24 40 -13 3 6
12 0 19 -12 13 -20 13 -21 -2 -9 -9 8 -18 9 -21 3 -7 -10 44 -55 52 -46 7 7
-28 95 -38 95 -5 0 -12 -5 -15 -10 -4 -7 -12 -7 -25 0 -13 7 -21 7 -26 -2z"/>
<path d="M3286 295 c-11 -8 -16 -18 -13 -22 4 -3 7 -3 7 2 0 4 7 2 15 -5 10
-9 15 -9 15 -1 0 6 -6 11 -12 11 -8 0 -5 7 6 15 11 8 16 15 10 15 -5 0 -18 -7
-28 -15z"/>
</g>
</svg>
